<?xml version="1.0" encoding="UTF-8" standalone="no"?>
<!DOCTYPE svg PUBLIC "-//W3C//DTD SVG 1.1//EN"
 "http://www.w3.org/Graphics/SVG/1.1/DTD/svg11.dtd">
<!-- Generated by graphviz version 12.2.0 (20241103.1931)
 -->
<!-- Title: Logger Pages: 1 -->
<svg width="394pt" height="1127pt"
 viewBox="0.00 0.00 394.45 1126.75" xmlns="http://www.w3.org/2000/svg" xmlns:xlink="http://www.w3.org/1999/xlink">
<g id="graph0" class="graph" transform="scale(1 1) rotate(0) translate(4 1122.75)">
<title>Logger</title>
<!-- Node1 -->
<g id="Node000001" class="node">
<title>Node1</title>
<g id="a_Node000001"><a xlink:title="Logger Class Used to Output Details of Current Application Flow.">
<polygon fill="#999999" stroke="none" points="302.62,-522.5 160.12,-522.5 160.12,0 302.62,0 302.62,-522.5"/>
<text text-anchor="start" x="216.38" y="-509" font-family="Helvetica,sans-Serif" font-size="10.00">Logger</text>
<text text-anchor="start" x="165.62" y="-493.75" font-family="Helvetica,sans-Serif" font-size="10.00">&#45;</text>
<text text-anchor="start" x="174.12" y="-493.75" font-family="Helvetica,sans-Serif" font-size="10.00">loggerInitialized</text>
<text text-anchor="start" x="165.62" y="-478.5" font-family="Helvetica,sans-Serif" font-size="10.00">&#45;</text>
<text text-anchor="start" x="174.12" y="-478.5" font-family="Helvetica,sans-Serif" font-size="10.00">loggingEnabled</text>
<text text-anchor="start" x="165.62" y="-463.25" font-family="Helvetica,sans-Serif" font-size="10.00">&#45;</text>
<text text-anchor="start" x="174.12" y="-463.25" font-family="Helvetica,sans-Serif" font-size="10.00">logLevel</text>
<text text-anchor="start" x="165.62" y="-448" font-family="Helvetica,sans-Serif" font-size="10.00">&#45;</text>
<text text-anchor="start" x="174.12" y="-448" font-family="Helvetica,sans-Serif" font-size="10.00">openedOnce</text>
<text text-anchor="start" x="164.12" y="-432.75" font-family="Helvetica,sans-Serif" font-size="10.00">+</text>
<text text-anchor="start" x="174.12" y="-432.75" font-family="Helvetica,sans-Serif" font-size="10.00">Logger()</text>
<text text-anchor="start" x="164.12" y="-417.5" font-family="Helvetica,sans-Serif" font-size="10.00">+</text>
<text text-anchor="start" x="174.12" y="-417.5" font-family="Helvetica,sans-Serif" font-size="10.00">~Logger()</text>
<text text-anchor="start" x="164.12" y="-402.25" font-family="Helvetica,sans-Serif" font-size="10.00">+</text>
<text text-anchor="start" x="174.12" y="-402.25" font-family="Helvetica,sans-Serif" font-size="10.00">IsLoggingEnabled()</text>
<text text-anchor="start" x="164.12" y="-387" font-family="Helvetica,sans-Serif" font-size="10.00">+</text>
<text text-anchor="start" x="174.12" y="-387" font-family="Helvetica,sans-Serif" font-size="10.00">GetLogLevel()</text>
<text text-anchor="start" x="164.12" y="-371.75" font-family="Helvetica,sans-Serif" font-size="10.00">+</text>
<text text-anchor="start" x="174.12" y="-371.75" font-family="Helvetica,sans-Serif" font-size="10.00">SetLogPreferences()</text>
<text text-anchor="start" x="164.12" y="-356.5" font-family="Helvetica,sans-Serif" font-size="10.00">+</text>
<text text-anchor="start" x="174.12" y="-356.5" font-family="Helvetica,sans-Serif" font-size="10.00">Log()</text>
<text text-anchor="start" x="164.12" y="-341.25" font-family="Helvetica,sans-Serif" font-size="10.00">+</text>
<text text-anchor="start" x="174.12" y="-341.25" font-family="Helvetica,sans-Serif" font-size="10.00">Log()</text>
<text text-anchor="start" x="164.12" y="-326" font-family="Helvetica,sans-Serif" font-size="10.00">+</text>
<text text-anchor="start" x="174.12" y="-326" font-family="Helvetica,sans-Serif" font-size="10.00">Log()</text>
<text text-anchor="start" x="164.12" y="-310.75" font-family="Helvetica,sans-Serif" font-size="10.00">+</text>
<text text-anchor="start" x="174.12" y="-310.75" font-family="Helvetica,sans-Serif" font-size="10.00">logMsgAndThrowError()</text>
<text text-anchor="start" x="164.12" y="-295.5" font-family="Helvetica,sans-Serif" font-size="10.00">+</text>
<text text-anchor="start" x="174.12" y="-295.5" font-family="Helvetica,sans-Serif" font-size="10.00">GetLogger()</text>
<text text-anchor="start" x="165.62" y="-280.25" font-family="Helvetica,sans-Serif" font-size="10.00">&#45;</text>
<text text-anchor="start" x="174.12" y="-280.25" font-family="Helvetica,sans-Serif" font-size="10.00">CreateDateString()</text>
<text text-anchor="start" x="165.62" y="-265" font-family="Helvetica,sans-Serif" font-size="10.00">&#45;</text>
<text text-anchor="start" x="174.12" y="-265" font-family="Helvetica,sans-Serif" font-size="10.00">CreateDirectory()</text>
<text text-anchor="start" x="165.62" y="-249.75" font-family="Helvetica,sans-Serif" font-size="10.00">&#45;</text>
<text text-anchor="start" x="174.12" y="-249.75" font-family="Helvetica,sans-Serif" font-size="10.00">DirectoryExists()</text>
<text text-anchor="start" x="165.62" y="-234.5" font-family="Helvetica,sans-Serif" font-size="10.00">&#45;</text>
<text text-anchor="start" x="174.12" y="-234.5" font-family="Helvetica,sans-Serif" font-size="10.00">ExtractFirstNDirs()</text>
<text text-anchor="start" x="165.62" y="-219.25" font-family="Helvetica,sans-Serif" font-size="10.00">&#45;</text>
<text text-anchor="start" x="174.12" y="-219.25" font-family="Helvetica,sans-Serif" font-size="10.00">FileExists()</text>
<text text-anchor="start" x="165.62" y="-204" font-family="Helvetica,sans-Serif" font-size="10.00">&#45;</text>
<text text-anchor="start" x="174.12" y="-204" font-family="Helvetica,sans-Serif" font-size="10.00">FindAndOpenLogConfigFile()</text>
<text text-anchor="start" x="165.62" y="-188.75" font-family="Helvetica,sans-Serif" font-size="10.00">&#45;</text>
<text text-anchor="start" x="174.12" y="-188.75" font-family="Helvetica,sans-Serif" font-size="10.00">GetLogFilePath()</text>
<text text-anchor="start" x="165.62" y="-173.5" font-family="Helvetica,sans-Serif" font-size="10.00">&#45;</text>
<text text-anchor="start" x="174.12" y="-173.5" font-family="Helvetica,sans-Serif" font-size="10.00">GetParentDirName()</text>
<text text-anchor="start" x="165.62" y="-158.25" font-family="Helvetica,sans-Serif" font-size="10.00">&#45;</text>
<text text-anchor="start" x="174.12" y="-158.25" font-family="Helvetica,sans-Serif" font-size="10.00">JsonFileValid()</text>
<text text-anchor="start" x="165.62" y="-143" font-family="Helvetica,sans-Serif" font-size="10.00">&#45;</text>
<text text-anchor="start" x="174.12" y="-143" font-family="Helvetica,sans-Serif" font-size="10.00">LogFileReady()</text>
<text text-anchor="start" x="165.62" y="-127.75" font-family="Helvetica,sans-Serif" font-size="10.00">&#45;</text>
<text text-anchor="start" x="174.12" y="-127.75" font-family="Helvetica,sans-Serif" font-size="10.00">ParseLoggerConfigFile()</text>
<text text-anchor="start" x="165.62" y="-112.5" font-family="Helvetica,sans-Serif" font-size="10.00">&#45;</text>
<text text-anchor="start" x="174.12" y="-112.5" font-family="Helvetica,sans-Serif" font-size="10.00">ReadConfigFile()</text>
<text text-anchor="start" x="165.62" y="-97.25" font-family="Helvetica,sans-Serif" font-size="10.00">&#45;</text>
<text text-anchor="start" x="174.12" y="-97.25" font-family="Helvetica,sans-Serif" font-size="10.00">SetupLogFile()</text>
<text text-anchor="start" x="165.62" y="-82" font-family="Helvetica,sans-Serif" font-size="10.00">&#45;</text>
<text text-anchor="start" x="174.12" y="-82" font-family="Helvetica,sans-Serif" font-size="10.00">ManageLoggingEnvVars()</text>
<text text-anchor="start" x="165.62" y="-66.75" font-family="Helvetica,sans-Serif" font-size="10.00">&#45;</text>
<text text-anchor="start" x="174.12" y="-66.75" font-family="Helvetica,sans-Serif" font-size="10.00">ConvertLogLevelToString()</text>
<text text-anchor="start" x="165.62" y="-51.5" font-family="Helvetica,sans-Serif" font-size="10.00">&#45;</text>
<text text-anchor="start" x="174.12" y="-51.5" font-family="Helvetica,sans-Serif" font-size="10.00">ConvertStringToLogLevel()</text>
<text text-anchor="start" x="165.62" y="-36.25" font-family="Helvetica,sans-Serif" font-size="10.00">&#45;</text>
<text text-anchor="start" x="174.12" y="-36.25" font-family="Helvetica,sans-Serif" font-size="10.00">CreateTimestamp()</text>
<text text-anchor="start" x="165.62" y="-21" font-family="Helvetica,sans-Serif" font-size="10.00">&#45;</text>
<text text-anchor="start" x="174.12" y="-21" font-family="Helvetica,sans-Serif" font-size="10.00">ToUpper()</text>
<text text-anchor="start" x="165.62" y="-5.75" font-family="Helvetica,sans-Serif" font-size="10.00">&#45;</text>
<text text-anchor="start" x="174.12" y="-5.75" font-family="Helvetica,sans-Serif" font-size="10.00">TrimString()</text>
<polygon fill="#666666" stroke="#666666" points="160.12,-505.25 160.12,-505.25 302.62,-505.25 302.62,-505.25 160.12,-505.25"/>
<polygon fill="#666666" stroke="#666666" points="160.12,-444.25 160.12,-444.25 172.12,-444.25 172.12,-444.25 160.12,-444.25"/>
<polygon fill="#666666" stroke="#666666" points="172.12,-444.25 172.12,-444.25 302.62,-444.25 302.62,-444.25 172.12,-444.25"/>
<polygon fill="none" stroke="#666666" points="160.12,0 160.12,-522.5 302.62,-522.5 302.62,0 160.12,0"/>
</a>
</g>
</g>
<!-- Node2 -->
<g id="Node000002" class="node">
<title>Node2</title>
<g id="a_Node000002"><a xlink:title=" ">
<polygon fill="white" stroke="none" points="146.88,-625.12 87.88,-625.12 87.88,-575.38 146.88,-575.38 146.88,-625.12"/>
<text text-anchor="start" x="91.88" y="-611.62" font-family="Helvetica,sans-Serif" font-size="10.00">std::fstream</text>
<text text-anchor="start" x="115.88" y="-596.38" font-family="Helvetica,sans-Serif" font-size="10.00"> </text>
<text text-anchor="start" x="115.88" y="-581.12" font-family="Helvetica,sans-Serif" font-size="10.00"> </text>
<polygon fill="#666666" stroke="#666666" points="87.88,-607.88 87.88,-607.88 146.88,-607.88 146.88,-607.88 87.88,-607.88"/>
<polygon fill="#666666" stroke="#666666" points="87.88,-592.62 87.88,-592.62 146.88,-592.62 146.88,-592.62 87.88,-592.62"/>
<polygon fill="none" stroke="#666666" points="87.88,-575.38 87.88,-625.12 146.88,-625.12 146.88,-575.38 87.88,-575.38"/>
</a>
</g>
</g>
<!-- Node2&#45;&gt;Node1 -->
<g id="edge1_Node000001_Node000002" class="edge">
<title>Node2&#45;&gt;Node1</title>
<g id="a_edge1_Node000001_Node000002"><a xlink:title=" ">
<path fill="none" stroke="#63b8ff" d="M125.39,-575.55C132.5,-554.53 143.68,-521.5 156.15,-484.62"/>
<polygon fill="none" stroke="#63b8ff" points="156.11,-484.75 154.24,-477.78 159.95,-473.38 161.82,-480.34 156.11,-484.75"/>
</a>
</g>
<text text-anchor="middle" x="153.36" y="-542.25" font-family="Helvetica,sans-Serif" font-size="10.00" fill="grey"> &#45;logFile</text>
</g>
<!-- Node3 -->
<g id="Node000003" class="node">
<title>Node3</title>
<g id="a_Node000003"><a xlink:title=" ">
<polygon fill="white" stroke="none" points="139.12,-739 51.62,-739 51.62,-678 139.12,-678 139.12,-739"/>
<text text-anchor="start" x="55.62" y="-725.5" font-family="Helvetica,sans-Serif" font-size="10.00">std::basic_fstream</text>
<text text-anchor="start" x="77" y="-714.25" font-family="Helvetica,sans-Serif" font-size="10.00">&lt; Char &gt;</text>
<text text-anchor="start" x="93.88" y="-699" font-family="Helvetica,sans-Serif" font-size="10.00"> </text>
<text text-anchor="start" x="93.88" y="-683.75" font-family="Helvetica,sans-Serif" font-size="10.00"> </text>
<polygon fill="#666666" stroke="#666666" points="51.62,-710.5 51.62,-710.5 139.12,-710.5 139.12,-710.5 51.62,-710.5"/>
<polygon fill="#666666" stroke="#666666" points="51.62,-695.25 51.62,-695.25 139.12,-695.25 139.12,-695.25 51.62,-695.25"/>
<polygon fill="none" stroke="#666666" points="51.62,-678 51.62,-739 139.12,-739 139.12,-678 51.62,-678"/>
</a>
</g>
</g>
<!-- Node3&#45;&gt;Node2 -->
<g id="edge2_Node000002_Node000003" class="edge">
<title>Node3&#45;&gt;Node2</title>
<g id="a_edge2_Node000002_Node000003"><a xlink:title=" ">
<path fill="none" stroke="#63b8ff" d="M103.73,-667.17C106.66,-652.98 109.87,-637.5 112.44,-625.1"/>
<polygon fill="none" stroke="#63b8ff" points="100.35,-666.2 101.75,-676.7 107.21,-667.62 100.35,-666.2"/>
</a>
</g>
</g>
<!-- Node4 -->
<g id="Node000004" class="node">
<title>Node4</title>
<g id="a_Node000004"><a xlink:title=" ">
<polygon fill="white" stroke="none" points="141.38,-847.25 49.38,-847.25 49.38,-786.25 141.38,-786.25 141.38,-847.25"/>
<text text-anchor="start" x="53.38" y="-833.75" font-family="Helvetica,sans-Serif" font-size="10.00">std::basic_iostream</text>
<text text-anchor="start" x="77" y="-822.5" font-family="Helvetica,sans-Serif" font-size="10.00">&lt; Char &gt;</text>
<text text-anchor="start" x="93.88" y="-807.25" font-family="Helvetica,sans-Serif" font-size="10.00"> </text>
<text text-anchor="start" x="93.88" y="-792" font-family="Helvetica,sans-Serif" font-size="10.00"> </text>
<polygon fill="#666666" stroke="#666666" points="49.38,-818.75 49.38,-818.75 141.38,-818.75 141.38,-818.75 49.38,-818.75"/>
<polygon fill="#666666" stroke="#666666" points="49.38,-803.5 49.38,-803.5 141.38,-803.5 141.38,-803.5 49.38,-803.5"/>
<polygon fill="none" stroke="#666666" points="49.38,-786.25 49.38,-847.25 141.38,-847.25 141.38,-786.25 49.38,-786.25"/>
</a>
</g>
</g>
<!-- Node4&#45;&gt;Node3 -->
<g id="edge3_Node000003_Node000004" class="edge">
<title>Node4&#45;&gt;Node3</title>
<g id="a_edge3_Node000003_Node000004"><a xlink:title=" ">
<path fill="none" stroke="#63b8ff" d="M95.38,-775.17C95.38,-763.04 95.38,-749.97 95.38,-738.72"/>
<polygon fill="none" stroke="#63b8ff" points="91.88,-774.92 95.38,-784.92 98.88,-774.92 91.88,-774.92"/>
</a>
</g>
</g>
<!-- Node5 -->
<g id="Node000005" class="node">
<title>Node5</title>
<g id="a_Node000005"><a xlink:title=" ">
<polygon fill="white" stroke="none" points="86.75,-945.25 0,-945.25 0,-884.25 86.75,-884.25 86.75,-945.25"/>
<text text-anchor="start" x="4" y="-931.75" font-family="Helvetica,sans-Serif" font-size="10.00">std::basic_istream</text>
<text text-anchor="start" x="25" y="-920.5" font-family="Helvetica,sans-Serif" font-size="10.00">&lt; Char &gt;</text>
<text text-anchor="start" x="41.88" y="-905.25" font-family="Helvetica,sans-Serif" font-size="10.00"> </text>
<text text-anchor="start" x="41.88" y="-890" font-family="Helvetica,sans-Serif" font-size="10.00"> </text>
<polygon fill="#666666" stroke="#666666" points="0,-916.75 0,-916.75 86.75,-916.75 86.75,-916.75 0,-916.75"/>
<polygon fill="#666666" stroke="#666666" points="0,-901.5 0,-901.5 86.75,-901.5 86.75,-901.5 0,-901.5"/>
<polygon fill="none" stroke="#666666" points="0,-884.25 0,-945.25 86.75,-945.25 86.75,-884.25 0,-884.25"/>
</a>
</g>
</g>
<!-- Node5&#45;&gt;Node4 -->
<g id="edge4_Node000004_Node000005" class="edge">
<title>Node5&#45;&gt;Node4</title>
<g id="a_edge4_Node000004_Node000005"><a xlink:title=" ">
<path fill="none" stroke="#63b8ff" d="M64.68,-874.42C69.6,-865.33 74.76,-855.81 79.41,-847.23"/>
<polygon fill="none" stroke="#63b8ff" points="61.67,-872.63 59.98,-883.09 67.82,-875.97 61.67,-872.63"/>
</a>
</g>
</g>
<!-- Node6 -->
<g id="Node000006" class="node">
<title>Node6</title>
<g id="a_Node000006"><a xlink:title=" ">
<polygon fill="white" stroke="none" points="147.38,-1032 43.38,-1032 43.38,-982.25 147.38,-982.25 147.38,-1032"/>
<text text-anchor="start" x="47.38" y="-1018.5" font-family="Helvetica,sans-Serif" font-size="10.00">std::basic_ios&lt; Char &gt;</text>
<text text-anchor="start" x="93.88" y="-1003.25" font-family="Helvetica,sans-Serif" font-size="10.00"> </text>
<text text-anchor="start" x="93.88" y="-988" font-family="Helvetica,sans-Serif" font-size="10.00"> </text>
<polygon fill="#666666" stroke="#666666" points="43.38,-1014.75 43.38,-1014.75 147.38,-1014.75 147.38,-1014.75 43.38,-1014.75"/>
<polygon fill="#666666" stroke="#666666" points="43.38,-999.5 43.38,-999.5 147.38,-999.5 147.38,-999.5 43.38,-999.5"/>
<polygon fill="none" stroke="#666666" points="43.38,-982.25 43.38,-1032 147.38,-1032 147.38,-982.25 43.38,-982.25"/>
</a>
</g>
</g>
<!-- Node6&#45;&gt;Node5 -->
<g id="edge5_Node000005_Node000006" class="edge">
<title>Node6&#45;&gt;Node5</title>
<g id="a_edge5_Node000005_Node000006"><a xlink:title=" ">
<path fill="none" stroke="#63b8ff" d="M76.07,-972.58C70.89,-963.58 65.33,-953.91 60.29,-945.15"/>
<polygon fill="none" stroke="#63b8ff" points="72.94,-974.15 80.96,-981.07 79,-970.65 72.94,-974.15"/>
</a>
</g>
</g>
<!-- Node8 -->
<g id="Node000008" class="node">
<title>Node8</title>
<g id="a_Node000008"><a xlink:title=" ">
<polygon fill="white" stroke="none" points="194.25,-945.25 104.5,-945.25 104.5,-884.25 194.25,-884.25 194.25,-945.25"/>
<text text-anchor="start" x="108.5" y="-931.75" font-family="Helvetica,sans-Serif" font-size="10.00">std::basic_ostream</text>
<text text-anchor="start" x="131" y="-920.5" font-family="Helvetica,sans-Serif" font-size="10.00">&lt; Char &gt;</text>
<text text-anchor="start" x="147.88" y="-905.25" font-family="Helvetica,sans-Serif" font-size="10.00"> </text>
<text text-anchor="start" x="147.88" y="-890" font-family="Helvetica,sans-Serif" font-size="10.00"> </text>
<polygon fill="#666666" stroke="#666666" points="104.5,-916.75 104.5,-916.75 194.25,-916.75 194.25,-916.75 104.5,-916.75"/>
<polygon fill="#666666" stroke="#666666" points="104.5,-901.5 104.5,-901.5 194.25,-901.5 194.25,-901.5 104.5,-901.5"/>
<polygon fill="none" stroke="#666666" points="104.5,-884.25 104.5,-945.25 194.25,-945.25 194.25,-884.25 104.5,-884.25"/>
</a>
</g>
</g>
<!-- Node6&#45;&gt;Node8 -->
<g id="edge8_Node000008_Node000006" class="edge">
<title>Node6&#45;&gt;Node8</title>
<g id="a_edge8_Node000008_Node000006"><a xlink:title=" ">
<path fill="none" stroke="#63b8ff" d="M115.42,-972.58C120.8,-963.58 126.57,-953.91 131.81,-945.15"/>
<polygon fill="none" stroke="#63b8ff" points="112.46,-970.7 110.34,-981.08 118.47,-974.29 112.46,-970.7"/>
</a>
</g>
</g>
<!-- Node7 -->
<g id="Node000007" class="node">
<title>Node7</title>
<g id="a_Node000007"><a xlink:title=" ">
<polygon fill="white" stroke="none" points="127.88,-1118.75 62.88,-1118.75 62.88,-1069 127.88,-1069 127.88,-1118.75"/>
<text text-anchor="start" x="66.88" y="-1105.25" font-family="Helvetica,sans-Serif" font-size="10.00">std::ios_base</text>
<text text-anchor="start" x="93.88" y="-1090" font-family="Helvetica,sans-Serif" font-size="10.00"> </text>
<text text-anchor="start" x="93.88" y="-1074.75" font-family="Helvetica,sans-Serif" font-size="10.00"> </text>
<polygon fill="#666666" stroke="#666666" points="62.88,-1101.5 62.88,-1101.5 127.88,-1101.5 127.88,-1101.5 62.88,-1101.5"/>
<polygon fill="#666666" stroke="#666666" points="62.88,-1086.25 62.88,-1086.25 127.88,-1086.25 127.88,-1086.25 62.88,-1086.25"/>
<polygon fill="none" stroke="#666666" points="62.88,-1069 62.88,-1118.75 127.88,-1118.75 127.88,-1069 62.88,-1069"/>
</a>
</g>
</g>
<!-- Node7&#45;&gt;Node6 -->
<g id="edge6_Node000006_Node000007" class="edge">
<title>Node7&#45;&gt;Node6</title>
<g id="a_edge6_Node000006_Node000007"><a xlink:title=" ">
<path fill="none" stroke="#63b8ff" d="M95.38,-1057.79C95.38,-1049.07 95.38,-1039.93 95.38,-1031.9"/>
<polygon fill="none" stroke="#63b8ff" points="91.88,-1057.75 95.38,-1067.75 98.88,-1057.75 91.88,-1057.75"/>
</a>
</g>
</g>
<!-- Node8&#45;&gt;Node4 -->
<g id="edge7_Node000004_Node000008" class="edge">
<title>Node8&#45;&gt;Node4</title>
<g id="a_edge7_Node000004_Node000008"><a xlink:title=" ">
<path fill="none" stroke="#63b8ff" d="M127.25,-874.42C122.14,-865.33 116.78,-855.81 111.96,-847.23"/>
<polygon fill="none" stroke="#63b8ff" points="124.18,-876.11 132.14,-883.11 130.29,-872.67 124.18,-876.11"/>
</a>
</g>
</g>
<!-- Node9 -->
<g id="Node000009" class="node">
<title>Node9</title>
<g id="a_Node000009"><a xlink:title=" ">
<polygon fill="white" stroke="none" points="330.38,-733.38 280.38,-733.38 280.38,-683.62 330.38,-683.62 330.38,-733.38"/>
<text text-anchor="start" x="284.38" y="-719.88" font-family="Helvetica,sans-Serif" font-size="10.00">std::string</text>
<text text-anchor="start" x="303.88" y="-704.62" font-family="Helvetica,sans-Serif" font-size="10.00"> </text>
<text text-anchor="start" x="303.88" y="-689.38" font-family="Helvetica,sans-Serif" font-size="10.00"> </text>
<polygon fill="#666666" stroke="#666666" points="280.38,-716.12 280.38,-716.12 330.38,-716.12 330.38,-716.12 280.38,-716.12"/>
<polygon fill="#666666" stroke="#666666" points="280.38,-700.88 280.38,-700.88 330.38,-700.88 330.38,-700.88 280.38,-700.88"/>
<polygon fill="none" stroke="#666666" points="280.38,-683.62 280.38,-733.38 330.38,-733.38 330.38,-683.62 280.38,-683.62"/>
</a>
</g>
</g>
<!-- Node9&#45;&gt;Node1 -->
<g id="edge9_Node000001_Node000009" class="edge">
<title>Node9&#45;&gt;Node1</title>
<g id="a_edge9_Node000001_Node000009"><a xlink:title=" ">
<path fill="none" stroke="#63b8ff" d="M307.97,-683.79C311.17,-653.29 316.42,-598.65 318.38,-551.75 319.85,-516.34 314.49,-479.46 305.8,-444.36"/>
<polygon fill="none" stroke="#63b8ff" points="305.84,-444.5 300.46,-439.7 302.82,-432.89 308.2,-437.69 305.84,-444.5"/>
</a>
</g>
<text text-anchor="middle" x="351.95" y="-613.25" font-family="Helvetica,sans-Serif" font-size="10.00" fill="grey"> &#45;logFileDir</text>
<text text-anchor="middle" x="351.95" y="-602" font-family="Helvetica,sans-Serif" font-size="10.00" fill="grey">&#45;logFilePath</text>
<text text-anchor="middle" x="351.95" y="-590.75" font-family="Helvetica,sans-Serif" font-size="10.00" fill="grey">&#45;moduleName</text>
<text text-anchor="middle" x="351.95" y="-579.5" font-family="Helvetica,sans-Serif" font-size="10.00" fill="grey">&#45;ngenResultsDir</text>
</g>
<!-- Node11 -->
<g id="Node000011" class="node">
<title>Node11</title>
<g id="a_Node000011"><a xlink:title=" ">
<polygon fill="white" stroke="none" points="287.5,-630.75 175.25,-630.75 175.25,-569.75 287.5,-569.75 287.5,-630.75"/>
<text text-anchor="start" x="179.25" y="-617.25" font-family="Helvetica,sans-Serif" font-size="10.00">std::unordered_map</text>
<text text-anchor="start" x="179.25" y="-606" font-family="Helvetica,sans-Serif" font-size="10.00">&lt; std::string, LogLevel &gt;</text>
<text text-anchor="start" x="192.88" y="-590.75" font-family="Helvetica,sans-Serif" font-size="10.00">+</text>
<text text-anchor="start" x="216.5" y="-590.75" font-family="Helvetica,sans-Serif" font-size="10.00">elements</text>
<text text-anchor="start" x="229.88" y="-575.5" font-family="Helvetica,sans-Serif" font-size="10.00"> </text>
<polygon fill="#666666" stroke="#666666" points="175.25,-602.25 175.25,-602.25 287.5,-602.25 287.5,-602.25 175.25,-602.25"/>
<polygon fill="#666666" stroke="#666666" points="175.25,-587 175.25,-587 214.5,-587 214.5,-587 175.25,-587"/>
<polygon fill="#666666" stroke="#666666" points="214.5,-587 214.5,-587 287.5,-587 287.5,-587 214.5,-587"/>
<polygon fill="none" stroke="#666666" points="175.25,-569.75 175.25,-630.75 287.5,-630.75 287.5,-569.75 175.25,-569.75"/>
</a>
</g>
</g>
<!-- Node9&#45;&gt;Node11 -->
<g id="edge12_Node000011_Node000009" class="edge">
<title>Node9&#45;&gt;Node11</title>
<g id="a_edge12_Node000011_Node000009"><a xlink:title=" ">
<path fill="none" stroke="#63b8ff" d="M291.14,-683.71C284.47,-672.88 276.27,-660 268.38,-648.75 266.54,-646.13 264.61,-643.46 262.64,-640.78"/>
<polygon fill="none" stroke="#63b8ff" points="262.7,-640.86 255.89,-638.47 255.47,-631.27 262.28,-633.66 262.7,-640.86"/>
</a>
</g>
<text text-anchor="middle" x="290.1" y="-650.5" font-family="Helvetica,sans-Serif" font-size="10.00" fill="grey"> +keys</text>
</g>
<!-- Node10 -->
<g id="Node000010" class="node">
<title>Node10</title>
<g id="a_Node000010"><a xlink:title=" ">
<polygon fill="white" stroke="none" points="347.62,-847.25 263.12,-847.25 263.12,-786.25 347.62,-786.25 347.62,-847.25"/>
<text text-anchor="start" x="267.12" y="-833.75" font-family="Helvetica,sans-Serif" font-size="10.00">std::basic_string&lt;</text>
<text text-anchor="start" x="290" y="-822.5" font-family="Helvetica,sans-Serif" font-size="10.00"> Char &gt;</text>
<text text-anchor="start" x="303.88" y="-807.25" font-family="Helvetica,sans-Serif" font-size="10.00"> </text>
<text text-anchor="start" x="303.88" y="-792" font-family="Helvetica,sans-Serif" font-size="10.00"> </text>
<polygon fill="#666666" stroke="#666666" points="263.12,-818.75 263.12,-818.75 347.62,-818.75 347.62,-818.75 263.12,-818.75"/>
<polygon fill="#666666" stroke="#666666" points="263.12,-803.5 263.12,-803.5 347.62,-803.5 347.62,-803.5 263.12,-803.5"/>
<polygon fill="none" stroke="#666666" points="263.12,-786.25 263.12,-847.25 347.62,-847.25 347.62,-786.25 263.12,-786.25"/>
</a>
</g>
</g>
<!-- Node10&#45;&gt;Node9 -->
<g id="edge10_Node000009_Node000010" class="edge">
<title>Node10&#45;&gt;Node9</title>
<g id="a_edge10_Node000009_Node000010"><a xlink:title=" ">
<path fill="none" stroke="#63b8ff" d="M305.38,-775C305.38,-760.92 305.38,-745.62 305.38,-733.35"/>
<polygon fill="none" stroke="#63b8ff" points="301.88,-774.92 305.38,-784.92 308.88,-774.92 301.88,-774.92"/>
</a>
</g>
</g>
<!-- Node11&#45;&gt;Node1 -->
<g id="edge11_Node000001_Node000011" class="edge">
<title>Node11&#45;&gt;Node1</title>
<g id="a_edge11_Node000001_Node000011"><a xlink:title=" ">
<path fill="none" stroke="#63b8ff" d="M231.38,-569.93C231.38,-560.22 231.38,-548.5 231.38,-535.38"/>
<polygon fill="none" stroke="#63b8ff" points="231.38,-535.29 227.38,-529.29 231.38,-523.29 235.38,-529.29 231.38,-535.29"/>
</a>
</g>
<text text-anchor="middle" x="272.62" y="-542.25" font-family="Helvetica,sans-Serif" font-size="10.00" fill="grey"> &#45;moduleLogLevels</text>
</g>
<!-- Node12 -->
<g id="Node000012" class="node">
<title>Node12</title>
<g id="a_Node000012"><a xlink:title=" ">
<polygon fill="white" stroke="none" points="249.75,-739 157,-739 157,-678 249.75,-678 249.75,-739"/>
<text text-anchor="start" x="161" y="-725.5" font-family="Helvetica,sans-Serif" font-size="10.00">std::unordered_map</text>
<text text-anchor="start" x="186.12" y="-714.25" font-family="Helvetica,sans-Serif" font-size="10.00">&lt; K, T &gt;</text>
<text text-anchor="start" x="201.88" y="-699" font-family="Helvetica,sans-Serif" font-size="10.00"> </text>
<text text-anchor="start" x="201.88" y="-683.75" font-family="Helvetica,sans-Serif" font-size="10.00"> </text>
<polygon fill="#666666" stroke="#666666" points="157,-710.5 157,-710.5 249.75,-710.5 249.75,-710.5 157,-710.5"/>
<polygon fill="#666666" stroke="#666666" points="157,-695.25 157,-695.25 249.75,-695.25 249.75,-695.25 157,-695.25"/>
<polygon fill="none" stroke="#666666" points="157,-678 157,-739 249.75,-739 249.75,-678 157,-678"/>
</a>
</g>
</g>
<!-- Node12&#45;&gt;Node11 -->
<g id="edge13_Node000011_Node000012" class="edge">
<title>Node12&#45;&gt;Node11</title>
<g id="a_edge13_Node000011_Node000012"><a xlink:title=" ">
<path fill="none" stroke="orange" d="M161.46,-668.48C158.8,-662.06 158.39,-655.35 161.88,-648.75 165.49,-641.9 170.59,-635.85 176.4,-630.56"/>
<polygon fill="orange" stroke="orange" points="158.38,-670.15 166.5,-676.97 164.4,-666.58 158.38,-670.15"/>
</a>
</g>
<text text-anchor="middle" x="215.12" y="-650.5" font-family="Helvetica,sans-Serif" font-size="10.00" fill="grey"> &lt; std::string, LogLevel &gt;</text>
</g>
<!-- Node13 -->
<g id="Node000013" class="node">
<title>Node13</title>
<g id="a_Node000013"><a xlink:title=" ">
<polygon fill="white" stroke="none" points="190.75,-841.62 176,-841.62 176,-791.88 190.75,-791.88 190.75,-841.62"/>
<text text-anchor="start" x="180" y="-828.12" font-family="Helvetica,sans-Serif" font-size="10.00">K</text>
<text text-anchor="start" x="181.88" y="-812.88" font-family="Helvetica,sans-Serif" font-size="10.00"> </text>
<text text-anchor="start" x="181.88" y="-797.62" font-family="Helvetica,sans-Serif" font-size="10.00"> </text>
<polygon fill="#666666" stroke="#666666" points="176,-824.38 176,-824.38 190.75,-824.38 190.75,-824.38 176,-824.38"/>
<polygon fill="#666666" stroke="#666666" points="176,-809.12 176,-809.12 190.75,-809.12 190.75,-809.12 176,-809.12"/>
<polygon fill="none" stroke="#666666" points="176,-791.88 176,-841.62 190.75,-841.62 190.75,-791.88 176,-791.88"/>
</a>
</g>
</g>
<!-- Node13&#45;&gt;Node12 -->
<g id="edge14_Node000012_Node000013" class="edge">
<title>Node13&#45;&gt;Node12</title>
<g id="a_edge14_Node000012_Node000013"><a xlink:title=" ">
<path fill="none" stroke="#63b8ff" d="M182.13,-792.1C182.03,-781.3 182.58,-768.4 184.88,-757 185.25,-755.13 185.7,-753.24 186.19,-751.34"/>
<polygon fill="none" stroke="#63b8ff" points="186.23,-751.23 184.22,-744.3 189.84,-739.78 191.85,-746.71 186.23,-751.23"/>
</a>
</g>
<text text-anchor="middle" x="199.12" y="-758.75" font-family="Helvetica,sans-Serif" font-size="10.00" fill="grey"> +keys</text>
</g>
<!-- Node14 -->
<g id="Node000014" class="node">
<title>Node14</title>
<g id="a_Node000014"><a xlink:title=" ">
<polygon fill="white" stroke="none" points="242.38,-841.62 228.38,-841.62 228.38,-791.88 242.38,-791.88 242.38,-841.62"/>
<text text-anchor="start" x="232.38" y="-828.12" font-family="Helvetica,sans-Serif" font-size="10.00">T</text>
<text text-anchor="start" x="233.88" y="-812.88" font-family="Helvetica,sans-Serif" font-size="10.00"> </text>
<text text-anchor="start" x="233.88" y="-797.62" font-family="Helvetica,sans-Serif" font-size="10.00"> </text>
<polygon fill="#666666" stroke="#666666" points="228.38,-824.38 228.38,-824.38 242.38,-824.38 242.38,-824.38 228.38,-824.38"/>
<polygon fill="#666666" stroke="#666666" points="228.38,-809.12 228.38,-809.12 242.38,-809.12 242.38,-809.12 228.38,-809.12"/>
<polygon fill="none" stroke="#666666" points="228.38,-791.88 228.38,-841.62 242.38,-841.62 242.38,-791.88 228.38,-791.88"/>
</a>
</g>
</g>
<!-- Node14&#45;&gt;Node12 -->
<g id="edge15_Node000012_Node000014" class="edge">
<title>Node14&#45;&gt;Node12</title>
<g id="a_edge15_Node000012_Node000014"><a xlink:title=" ">
<path fill="none" stroke="#63b8ff" d="M228.43,-792.7C224.8,-780.64 220.24,-765.5 216.01,-751.46"/>
<polygon fill="none" stroke="#63b8ff" points="215.98,-751.34 210.42,-746.75 212.51,-739.85 218.08,-744.44 215.98,-751.34"/>
</a>
</g>
<text text-anchor="middle" x="244.33" y="-758.75" font-family="Helvetica,sans-Serif" font-size="10.00" fill="grey"> +elements</text>
</g>
</g>
</svg>
