<?xml version="1.0" encoding="UTF-8" standalone="no"?>
<!DOCTYPE svg PUBLIC "-//W3C//DTD SVG 1.1//EN"
 "http://www.w3.org/Graphics/SVG/1.1/DTD/svg11.dtd">
<!-- Generated by graphviz version 12.2.0 (20241103.1931)
 -->
<!-- Title: data_access::unit_conversion_exception Pages: 1 -->
<svg width="147pt" height="286pt"
 viewBox="0.00 0.00 146.75 286.25" xmlns="http://www.w3.org/2000/svg" xmlns:xlink="http://www.w3.org/1999/xlink">

<svg id="main" version="1.1" xmlns="http://www.w3.org/2000/svg" xmlns:xlink="http://www.w3.org/1999/xlink" xml:space="preserve">

<style type="text/css"><![CDATA[
.node, .edge {opacity: 0.7;}
.node.selected, .edge.selected {opacity: 1;}
.edge:hover path { stroke: red; }
.edge:hover polygon { stroke: red; fill: red; }
]]></style>
<script type="application/ecmascript" xlink:href="svg.min.js"/>
<svg id="graph" class="graph">
<g id="graph0" class="graph" transform="scale(1 1) rotate(0) translate(4 282.25)">
<title>data_access::unit_conversion_exception</title>
<!-- Node1 -->
<g id="Node000001" class="node">
<title>Node1</title>
<g id="a_Node000001"><a xlink:title=" ">
<polygon fill="#999999" stroke="none" points="138.75,-106.75 0,-106.75 0,0 138.75,0 138.75,-106.75"/>
<text text-anchor="start" x="5.25" y="-93.25" font-family="Helvetica,sans-Serif" font-size="10.00">data_access::unit_conversion</text>
<text text-anchor="start" x="46.12" y="-82" font-family="Helvetica,sans-Serif" font-size="10.00">_exception</text>
<text text-anchor="start" x="4" y="-66.75" font-family="Helvetica,sans-Serif" font-size="10.00">+</text>
<text text-anchor="start" x="14" y="-66.75" font-family="Helvetica,sans-Serif" font-size="10.00">provider_model_name</text>
<text text-anchor="start" x="4" y="-51.5" font-family="Helvetica,sans-Serif" font-size="10.00">+</text>
<text text-anchor="start" x="14" y="-51.5" font-family="Helvetica,sans-Serif" font-size="10.00">provider_bmi_var_name</text>
<text text-anchor="start" x="4" y="-36.25" font-family="Helvetica,sans-Serif" font-size="10.00">+</text>
<text text-anchor="start" x="14" y="-36.25" font-family="Helvetica,sans-Serif" font-size="10.00">provider_units</text>
<text text-anchor="start" x="4" y="-21" font-family="Helvetica,sans-Serif" font-size="10.00">+</text>
<text text-anchor="start" x="14" y="-21" font-family="Helvetica,sans-Serif" font-size="10.00">unconverted_values</text>
<text text-anchor="start" x="4" y="-5.75" font-family="Helvetica,sans-Serif" font-size="10.00">+</text>
<text text-anchor="start" x="14" y="-5.75" font-family="Helvetica,sans-Serif" font-size="10.00">unit_conversion_exception()</text>
<polygon fill="#666666" stroke="#666666" points="0,-78.25 0,-78.25 138.75,-78.25 138.75,-78.25 0,-78.25"/>
<polygon fill="#666666" stroke="#666666" points="0,-17.25 0,-17.25 12,-17.25 12,-17.25 0,-17.25"/>
<polygon fill="#666666" stroke="#666666" points="12,-17.25 12,-17.25 138.75,-17.25 138.75,-17.25 12,-17.25"/>
<polygon fill="none" stroke="#666666" points="0,0 0,-106.75 138.75,-106.75 138.75,0 0,0"/>
</a>
</g>
</g>
<!-- Node2 -->
<g id="Node000002" class="node">
<title>Node2</title>
<g id="a_Node000002"><a xlink:title=" ">
<polygon fill="white" stroke="none" points="110.88,-192.5 27.88,-192.5 27.88,-142.75 110.88,-142.75 110.88,-192.5"/>
<text text-anchor="start" x="31.88" y="-179" font-family="Helvetica,sans-Serif" font-size="10.00">std::runtime_error</text>
<text text-anchor="start" x="67.88" y="-163.75" font-family="Helvetica,sans-Serif" font-size="10.00"> </text>
<text text-anchor="start" x="67.88" y="-148.5" font-family="Helvetica,sans-Serif" font-size="10.00"> </text>
<polygon fill="#666666" stroke="#666666" points="27.88,-175.25 27.88,-175.25 110.88,-175.25 110.88,-175.25 27.88,-175.25"/>
<polygon fill="#666666" stroke="#666666" points="27.88,-160 27.88,-160 110.88,-160 110.88,-160 27.88,-160"/>
<polygon fill="none" stroke="#666666" points="27.88,-142.75 27.88,-192.5 110.88,-192.5 110.88,-142.75 27.88,-142.75"/>
</a>
</g>
</g>
<!-- Node2&#45;&gt;Node1 -->
<g id="edge1_Node000001_Node000002" class="edge">
<title>Node2&#45;&gt;Node1</title>
<g id="a_edge1_Node000001_Node000002"><a xlink:title=" ">
<path fill="none" stroke="#63b8ff" d="M69.38,-131.35C69.38,-123.4 69.38,-114.8 69.38,-106.32"/>
<polygon fill="none" stroke="#63b8ff" points="65.88,-131.31 69.38,-141.31 72.88,-131.31 65.88,-131.31"/>
</a>
</g>
</g>
<!-- Node3 -->
<g id="Node000003" class="node">
<title>Node3</title>
<g id="a_Node000003"><a xlink:title=" ">
<polygon fill="white" stroke="none" points="103,-278.25 35.75,-278.25 35.75,-228.5 103,-228.5 103,-278.25"/>
<text text-anchor="start" x="39.75" y="-264.75" font-family="Helvetica,sans-Serif" font-size="10.00">std::exception</text>
<text text-anchor="start" x="67.88" y="-249.5" font-family="Helvetica,sans-Serif" font-size="10.00"> </text>
<text text-anchor="start" x="67.88" y="-234.25" font-family="Helvetica,sans-Serif" font-size="10.00"> </text>
<polygon fill="#666666" stroke="#666666" points="35.75,-261 35.75,-261 103,-261 103,-261 35.75,-261"/>
<polygon fill="#666666" stroke="#666666" points="35.75,-245.75 35.75,-245.75 103,-245.75 103,-245.75 35.75,-245.75"/>
<polygon fill="none" stroke="#666666" points="35.75,-228.5 35.75,-278.25 103,-278.25 103,-228.5 35.75,-228.5"/>
</a>
</g>
</g>
<!-- Node3&#45;&gt;Node2 -->
<g id="edge2_Node000002_Node000003" class="edge">
<title>Node3&#45;&gt;Node2</title>
<g id="a_edge2_Node000002_Node000003"><a xlink:title=" ">
<path fill="none" stroke="#63b8ff" d="M69.38,-217.2C69.38,-208.86 69.38,-200.16 69.38,-192.46"/>
<polygon fill="none" stroke="#63b8ff" points="65.88,-217.09 69.38,-227.09 72.88,-217.09 65.88,-217.09"/>
</a>
</g>
</g>
</g>
</svg>
</svg>

<style type='text/css'>
<![CDATA[
[data-mouse-over-selected='false'] { opacity: 0.7; }
[data-mouse-over-selected='true']  { opacity: 1.0; }
]]>
</style>
<script type="application/ecmascript"><![CDATA[
document.addEventListener('DOMContentLoaded', (event) => {
  highlightEdges();
  highlightAdjacentNodes();
});
]]></script>
</svg>
