<?xml version="1.0" encoding="UTF-8" standalone="no"?>
<!DOCTYPE svg PUBLIC "-//W3C//DTD SVG 1.1//EN"
 "http://www.w3.org/Graphics/SVG/1.1/DTD/svg11.dtd">
<!-- Generated by graphviz version 12.2.0 (20241103.1931)
 -->
<!-- Title: data_access::unit_conversion_exception Pages: 1 -->
<svg width="344pt" height="394pt"
 viewBox="0.00 0.00 344.00 393.75" xmlns="http://www.w3.org/2000/svg" xmlns:xlink="http://www.w3.org/1999/xlink">
<g id="graph0" class="graph" transform="scale(1 1) rotate(0) translate(4 389.75)">
<title>data_access::unit_conversion_exception</title>
<!-- Node1 -->
<g id="Node000001" class="node">
<title>Node1</title>
<g id="a_Node000001"><a xlink:title=" ">
<polygon fill="#999999" stroke="none" points="180.88,-61 42.12,-61 42.12,0 180.88,0 180.88,-61"/>
<text text-anchor="start" x="47.38" y="-47.5" font-family="Helvetica,sans-Serif" font-size="10.00">data_access::unit_conversion</text>
<text text-anchor="start" x="88.25" y="-36.25" font-family="Helvetica,sans-Serif" font-size="10.00">_exception</text>
<text text-anchor="start" x="110" y="-21" font-family="Helvetica,sans-Serif" font-size="10.00"> </text>
<text text-anchor="start" x="46.12" y="-5.75" font-family="Helvetica,sans-Serif" font-size="10.00">+</text>
<text text-anchor="start" x="56.12" y="-5.75" font-family="Helvetica,sans-Serif" font-size="10.00">unit_conversion_exception()</text>
<polygon fill="#666666" stroke="#666666" points="42.12,-32.5 42.12,-32.5 180.88,-32.5 180.88,-32.5 42.12,-32.5"/>
<polygon fill="#666666" stroke="#666666" points="42.12,-17.25 42.12,-17.25 180.88,-17.25 180.88,-17.25 42.12,-17.25"/>
<polygon fill="none" stroke="#666666" points="42.12,0 42.12,-61 180.88,-61 180.88,0 42.12,0"/>
</a>
</g>
</g>
<!-- Node2 -->
<g id="Node000002" class="node">
<title>Node2</title>
<g id="a_Node000002"><a xlink:title=" ">
<polygon fill="white" stroke="none" points="83,-180.5 0,-180.5 0,-130.75 83,-130.75 83,-180.5"/>
<text text-anchor="start" x="4" y="-167" font-family="Helvetica,sans-Serif" font-size="10.00">std::runtime_error</text>
<text text-anchor="start" x="40" y="-151.75" font-family="Helvetica,sans-Serif" font-size="10.00"> </text>
<text text-anchor="start" x="40" y="-136.5" font-family="Helvetica,sans-Serif" font-size="10.00"> </text>
<polygon fill="#666666" stroke="#666666" points="0,-163.25 0,-163.25 83,-163.25 83,-163.25 0,-163.25"/>
<polygon fill="#666666" stroke="#666666" points="0,-148 0,-148 83,-148 83,-148 0,-148"/>
<polygon fill="none" stroke="#666666" points="0,-130.75 0,-180.5 83,-180.5 83,-130.75 0,-130.75"/>
</a>
</g>
</g>
<!-- Node2&#45;&gt;Node1 -->
<g id="edge1_Node000001_Node000002" class="edge">
<title>Node2&#45;&gt;Node1</title>
<g id="a_edge1_Node000001_Node000002"><a xlink:title=" ">
<path fill="none" stroke="#63b8ff" d="M60.65,-120.94C71.35,-102.12 84.56,-78.88 94.83,-60.82"/>
<polygon fill="none" stroke="#63b8ff" points="57.64,-119.15 55.74,-129.57 63.73,-122.61 57.64,-119.15"/>
</a>
</g>
</g>
<!-- Node3 -->
<g id="Node000003" class="node">
<title>Node3</title>
<g id="a_Node000003"><a xlink:title=" ">
<polygon fill="white" stroke="none" points="72.12,-283.12 4.88,-283.12 4.88,-233.38 72.12,-233.38 72.12,-283.12"/>
<text text-anchor="start" x="8.88" y="-269.62" font-family="Helvetica,sans-Serif" font-size="10.00">std::exception</text>
<text text-anchor="start" x="37" y="-254.38" font-family="Helvetica,sans-Serif" font-size="10.00"> </text>
<text text-anchor="start" x="37" y="-239.12" font-family="Helvetica,sans-Serif" font-size="10.00"> </text>
<polygon fill="#666666" stroke="#666666" points="4.88,-265.88 4.88,-265.88 72.12,-265.88 72.12,-265.88 4.88,-265.88"/>
<polygon fill="#666666" stroke="#666666" points="4.88,-250.62 4.88,-250.62 72.12,-250.62 72.12,-250.62 4.88,-250.62"/>
<polygon fill="none" stroke="#666666" points="4.88,-233.38 4.88,-283.12 72.12,-283.12 72.12,-233.38 4.88,-233.38"/>
</a>
</g>
</g>
<!-- Node3&#45;&gt;Node2 -->
<g id="edge2_Node000002_Node000003" class="edge">
<title>Node3&#45;&gt;Node2</title>
<g id="a_edge2_Node000002_Node000003"><a xlink:title=" ">
<path fill="none" stroke="#63b8ff" d="M39.54,-222.26C39.96,-208.39 40.42,-192.8 40.79,-180.3"/>
<polygon fill="none" stroke="#63b8ff" points="36.06,-221.79 39.26,-231.89 43.05,-222 36.06,-221.79"/>
</a>
</g>
</g>
<!-- Node4 -->
<g id="Node000004" class="node">
<title>Node4</title>
<g id="a_Node000004"><a xlink:title=" ">
<polygon fill="white" stroke="none" points="153.5,-180.5 103.5,-180.5 103.5,-130.75 153.5,-130.75 153.5,-180.5"/>
<text text-anchor="start" x="107.5" y="-167" font-family="Helvetica,sans-Serif" font-size="10.00">std::string</text>
<text text-anchor="start" x="127" y="-151.75" font-family="Helvetica,sans-Serif" font-size="10.00"> </text>
<text text-anchor="start" x="127" y="-136.5" font-family="Helvetica,sans-Serif" font-size="10.00"> </text>
<polygon fill="#666666" stroke="#666666" points="103.5,-163.25 103.5,-163.25 153.5,-163.25 153.5,-163.25 103.5,-163.25"/>
<polygon fill="#666666" stroke="#666666" points="103.5,-148 103.5,-148 153.5,-148 153.5,-148 103.5,-148"/>
<polygon fill="none" stroke="#666666" points="103.5,-130.75 103.5,-180.5 153.5,-180.5 153.5,-130.75 103.5,-130.75"/>
</a>
</g>
</g>
<!-- Node4&#45;&gt;Node1 -->
<g id="edge3_Node000001_Node000004" class="edge">
<title>Node4&#45;&gt;Node1</title>
<g id="a_edge3_Node000001_Node000004"><a xlink:title=" ">
<path fill="none" stroke="#63b8ff" d="M118.05,-131.12C115.88,-125.23 113.91,-118.85 112.75,-112.75 110.35,-100.1 109.5,-86.14 109.4,-73.41"/>
<polygon fill="none" stroke="#63b8ff" points="109.4,-73.6 105.47,-67.56 109.53,-61.6 113.47,-67.64 109.4,-73.6"/>
</a>
</g>
<text text-anchor="middle" x="168.62" y="-103.25" font-family="Helvetica,sans-Serif" font-size="10.00" fill="grey"> +provider_bmi_var_name</text>
<text text-anchor="middle" x="168.62" y="-92" font-family="Helvetica,sans-Serif" font-size="10.00" fill="grey">+provider_model_name</text>
<text text-anchor="middle" x="168.62" y="-80.75" font-family="Helvetica,sans-Serif" font-size="10.00" fill="grey">+provider_units</text>
</g>
<!-- Node5 -->
<g id="Node000005" class="node">
<title>Node5</title>
<g id="a_Node000005"><a xlink:title=" ">
<polygon fill="white" stroke="none" points="174.75,-288.75 90.25,-288.75 90.25,-227.75 174.75,-227.75 174.75,-288.75"/>
<text text-anchor="start" x="94.25" y="-275.25" font-family="Helvetica,sans-Serif" font-size="10.00">std::basic_string&lt;</text>
<text text-anchor="start" x="117.12" y="-264" font-family="Helvetica,sans-Serif" font-size="10.00"> Char &gt;</text>
<text text-anchor="start" x="131" y="-248.75" font-family="Helvetica,sans-Serif" font-size="10.00"> </text>
<text text-anchor="start" x="131" y="-233.5" font-family="Helvetica,sans-Serif" font-size="10.00"> </text>
<polygon fill="#666666" stroke="#666666" points="90.25,-260.25 90.25,-260.25 174.75,-260.25 174.75,-260.25 90.25,-260.25"/>
<polygon fill="#666666" stroke="#666666" points="90.25,-245 90.25,-245 174.75,-245 174.75,-245 90.25,-245"/>
<polygon fill="none" stroke="#666666" points="90.25,-227.75 90.25,-288.75 174.75,-288.75 174.75,-227.75 90.25,-227.75"/>
</a>
</g>
</g>
<!-- Node5&#45;&gt;Node4 -->
<g id="edge4_Node000004_Node000005" class="edge">
<title>Node5&#45;&gt;Node4</title>
<g id="a_edge4_Node000004_Node000005"><a xlink:title=" ">
<path fill="none" stroke="#63b8ff" d="M130.88,-216.48C130.39,-204.24 129.88,-191.22 129.45,-180.45"/>
<polygon fill="none" stroke="#63b8ff" points="127.38,-216.51 131.27,-226.36 134.37,-216.23 127.38,-216.51"/>
</a>
</g>
</g>
<!-- Node6 -->
<g id="Node000006" class="node">
<title>Node6</title>
<g id="a_Node000006"><a xlink:title=" ">
<polygon fill="white" stroke="none" points="295.5,-180.5 197.5,-180.5 197.5,-130.75 295.5,-130.75 295.5,-180.5"/>
<text text-anchor="start" x="201.5" y="-167" font-family="Helvetica,sans-Serif" font-size="10.00">std::vector&lt; double &gt;</text>
<text text-anchor="start" x="211.56" y="-151.75" font-family="Helvetica,sans-Serif" font-size="10.00">+</text>
<text text-anchor="start" x="231.62" y="-151.75" font-family="Helvetica,sans-Serif" font-size="10.00">elements</text>
<text text-anchor="start" x="245" y="-136.5" font-family="Helvetica,sans-Serif" font-size="10.00"> </text>
<polygon fill="#666666" stroke="#666666" points="197.5,-163.25 197.5,-163.25 295.5,-163.25 295.5,-163.25 197.5,-163.25"/>
<polygon fill="#666666" stroke="#666666" points="197.5,-148 197.5,-148 229.62,-148 229.62,-148 197.5,-148"/>
<polygon fill="#666666" stroke="#666666" points="229.62,-148 229.62,-148 295.5,-148 295.5,-148 229.62,-148"/>
<polygon fill="none" stroke="#666666" points="197.5,-130.75 197.5,-180.5 295.5,-180.5 295.5,-130.75 197.5,-130.75"/>
</a>
</g>
</g>
<!-- Node6&#45;&gt;Node1 -->
<g id="edge5_Node000001_Node000006" class="edge">
<title>Node6&#45;&gt;Node1</title>
<g id="a_edge5_Node000001_Node000006"><a xlink:title=" ">
<path fill="none" stroke="#63b8ff" d="M244.89,-130.92C242.62,-114.57 237.24,-93.29 224.5,-79 215.65,-69.07 204.38,-61.15 192.4,-54.86"/>
<polygon fill="none" stroke="#63b8ff" points="192.41,-54.87 185.27,-55.9 181.57,-49.71 188.71,-48.68 192.41,-54.87"/>
</a>
</g>
<text text-anchor="middle" x="288.37" y="-92" font-family="Helvetica,sans-Serif" font-size="10.00" fill="grey"> +unconverted_values</text>
</g>
<!-- Node7 -->
<g id="Node000007" class="node">
<title>Node7</title>
<g id="a_Node000007"><a xlink:title=" ">
<polygon fill="white" stroke="none" points="284.25,-283.12 208.75,-283.12 208.75,-233.38 284.25,-233.38 284.25,-283.12"/>
<text text-anchor="start" x="212.75" y="-269.62" font-family="Helvetica,sans-Serif" font-size="10.00">std::vector&lt; T &gt;</text>
<text text-anchor="start" x="245" y="-254.38" font-family="Helvetica,sans-Serif" font-size="10.00"> </text>
<text text-anchor="start" x="245" y="-239.12" font-family="Helvetica,sans-Serif" font-size="10.00"> </text>
<polygon fill="#666666" stroke="#666666" points="208.75,-265.88 208.75,-265.88 284.25,-265.88 284.25,-265.88 208.75,-265.88"/>
<polygon fill="#666666" stroke="#666666" points="208.75,-250.62 208.75,-250.62 284.25,-250.62 284.25,-250.62 208.75,-250.62"/>
<polygon fill="none" stroke="#666666" points="208.75,-233.38 208.75,-283.12 284.25,-283.12 284.25,-233.38 208.75,-233.38"/>
</a>
</g>
</g>
<!-- Node7&#45;&gt;Node6 -->
<g id="edge6_Node000006_Node000007" class="edge">
<title>Node7&#45;&gt;Node6</title>
<g id="a_edge6_Node000006_Node000007"><a xlink:title=" ">
<path fill="none" stroke="orange" d="M246.5,-222.26C246.5,-208.39 246.5,-192.8 246.5,-180.3"/>
<polygon fill="orange" stroke="orange" points="243,-221.89 246.5,-231.89 250,-221.89 243,-221.89"/>
</a>
</g>
<text text-anchor="middle" x="270.12" y="-200.25" font-family="Helvetica,sans-Serif" font-size="10.00" fill="grey"> &lt; double &gt;</text>
</g>
<!-- Node8 -->
<g id="Node000008" class="node">
<title>Node8</title>
<g id="a_Node000008"><a xlink:title=" ">
<polygon fill="white" stroke="none" points="253.5,-385.75 239.5,-385.75 239.5,-336 253.5,-336 253.5,-385.75"/>
<text text-anchor="start" x="243.5" y="-372.25" font-family="Helvetica,sans-Serif" font-size="10.00">T</text>
<text text-anchor="start" x="245" y="-357" font-family="Helvetica,sans-Serif" font-size="10.00"> </text>
<text text-anchor="start" x="245" y="-341.75" font-family="Helvetica,sans-Serif" font-size="10.00"> </text>
<polygon fill="#666666" stroke="#666666" points="239.5,-368.5 239.5,-368.5 253.5,-368.5 253.5,-368.5 239.5,-368.5"/>
<polygon fill="#666666" stroke="#666666" points="239.5,-353.25 239.5,-353.25 253.5,-353.25 253.5,-353.25 239.5,-353.25"/>
<polygon fill="none" stroke="#666666" points="239.5,-336 239.5,-385.75 253.5,-385.75 253.5,-336 239.5,-336"/>
</a>
</g>
</g>
<!-- Node8&#45;&gt;Node7 -->
<g id="edge7_Node000007_Node000008" class="edge">
<title>Node8&#45;&gt;Node7</title>
<g id="a_edge7_Node000007_Node000008"><a xlink:title=" ">
<path fill="none" stroke="#63b8ff" d="M246.5,-336.03C246.5,-324 246.5,-309.15 246.5,-295.72"/>
<polygon fill="none" stroke="#63b8ff" points="246.5,-295.83 242.5,-289.83 246.5,-283.83 250.5,-289.83 246.5,-295.83"/>
</a>
</g>
<text text-anchor="middle" x="270.5" y="-308.5" font-family="Helvetica,sans-Serif" font-size="10.00" fill="grey"> +elements</text>
</g>
</g>
</svg>
