<?xml version="1.0" encoding="UTF-8" standalone="no"?>
<!DOCTYPE svg PUBLIC "-//W3C//DTD SVG 1.1//EN"
 "http://www.w3.org/Graphics/SVG/1.1/DTD/svg11.dtd">
<!-- Generated by graphviz version 12.2.0 (20241103.1931)
 -->
<!-- Title: realization::config::Formulation Pages: 1 -->
<!--zoomable 1028 -->

<svg id="main" version="1.1" xmlns="http://www.w3.org/2000/svg" xmlns:xlink="http://www.w3.org/1999/xlink" xml:space="preserve" onload="init(evt)">

<style type="text/css"><![CDATA[
.node, .edge {opacity: 0.7;}
.node.selected, .edge.selected {opacity: 1;}
.edge:hover path { stroke: red; }
.edge:hover polygon { stroke: red; fill: red; }
]]></style>

<defs>
  <circle id="rim" cx="0" cy="0" r="7"/>
  <circle id="rim2" cx="0" cy="0" r="3.5"/>
  <g id="zoomPlus">
    <use xlink:href="#rim" fill="#404040"><set attributeName="fill" to="#808080" begin="zoomplus.mouseover" end="zoomplus.mouseout"/></use>
    <path d="M-4,0h8M0,-4v8" fill="none" stroke="white" stroke-width="1.5" pointer-events="none"/>
  </g>
  <g id="zoomMin">
    <use xlink:href="#rim" fill="#404040"><set attributeName="fill" to="#808080" begin="zoomminus.mouseover" end="zoomminus.mouseout"/></use>
    <path d="M-4,0h8" fill="none" stroke="white" stroke-width="1.5" pointer-events="none"/>
  </g>
  <g id="arrowUp" transform="translate(30 24)">
    <use xlink:href="#rim"/>
    <path pointer-events="none" fill="none" stroke="white" stroke-width="1.5" d="M0,-3.0v7 M-2.5,-0.5L0,-3.0L2.5,-0.5"/>
  </g>
  <g id="arrowRight" transform="rotate(90) translate(36 -43)">
    <use xlink:href="#rim"/>
    <path pointer-events="none" fill="none" stroke="white" stroke-width="1.5" d="M0,-3.0v7 M-2.5,-0.5L0,-3.0L2.5,-0.5"/>
  </g>
  <g id="arrowDown" transform="rotate(180) translate(-30 -48)">
    <use xlink:href="#rim"/>
    <path pointer-events="none" fill="none" stroke="white" stroke-width="1.5" d="M0,-3.0v7 M-2.5,-0.5L0,-3.0L2.5,-0.5"/>
  </g>
  <g id="arrowLeft" transform="rotate(270) translate(-36 17)">
    <use xlink:href="#rim"/>
    <path pointer-events="none" fill="none" stroke="white" stroke-width="1.5" d="M0,-3.0v7 M-2.5,-0.5L0,-3.0L2.5,-0.5"/>
  </g>
  <g id="resetDef">
    <use xlink:href="#rim2" fill="#404040"><set attributeName="fill" to="#808080" begin="reset.mouseover" end="reset.mouseout"/></use>
  </g>
</defs>
<script type="application/ecmascript">
var viewWidth = 513;
var viewHeight = 1028;
var sectionId = 'dynsection-0';
</script>
<script type="application/ecmascript" xlink:href="svg.min.js"/>
<svg id="graph" class="graph">
<g id="viewport">
<title>realization::config::Formulation</title>
<!-- Node1 -->
<g id="Node000001" class="node">
<title>Node1</title>
<g id="a_Node000001"><a xlink:title=" ">
<polygon fill="#999999" stroke="none" points="364.69,-230.25 283.19,-230.25 283.19,-108.25 364.69,-108.25 364.69,-230.25"/>
<text text-anchor="start" x="287.19" y="-216.75" font-family="Helvetica,sans-Serif" font-size="10.00">realization::config</text>
<text text-anchor="start" x="296.19" y="-205.5" font-family="Helvetica,sans-Serif" font-size="10.00">::Formulation</text>
<text text-anchor="start" x="322.44" y="-190.25" font-family="Helvetica,sans-Serif" font-size="10.00"> </text>
<text text-anchor="start" x="288.07" y="-175" font-family="Helvetica,sans-Serif" font-size="10.00">+</text>
<text text-anchor="start" x="298.94" y="-175" font-family="Helvetica,sans-Serif" font-size="10.00">Formulation()</text>
<text text-anchor="start" x="288.07" y="-159.75" font-family="Helvetica,sans-Serif" font-size="10.00">+</text>
<text text-anchor="start" x="298.94" y="-159.75" font-family="Helvetica,sans-Serif" font-size="10.00">Formulation()</text>
<text text-anchor="start" x="288.07" y="-144.5" font-family="Helvetica,sans-Serif" font-size="10.00">+</text>
<text text-anchor="start" x="298.94" y="-144.5" font-family="Helvetica,sans-Serif" font-size="10.00">Formulation()</text>
<text text-anchor="start" x="288.07" y="-129.25" font-family="Helvetica,sans-Serif" font-size="10.00">+</text>
<text text-anchor="start" x="298.94" y="-129.25" font-family="Helvetica,sans-Serif" font-size="10.00">clone()</text>
<text text-anchor="start" x="288.07" y="-114" font-family="Helvetica,sans-Serif" font-size="10.00">+</text>
<text text-anchor="start" x="298.94" y="-114" font-family="Helvetica,sans-Serif" font-size="10.00">link_external()</text>
<polygon fill="#666666" stroke="#666666" points="283.19,-201.75 283.19,-201.75 364.69,-201.75 364.69,-201.75 283.19,-201.75"/>
<polygon fill="#666666" stroke="#666666" points="283.19,-186.5 283.19,-186.5 364.69,-186.5 364.69,-186.5 283.19,-186.5"/>
<polygon fill="none" stroke="#666666" points="283.19,-108.25 283.19,-230.25 364.69,-230.25 364.69,-108.25 283.19,-108.25"/>
</a>
</g>
</g>
<!-- Node11 -->
<g id="Node000011" class="node">
<title>Node11</title>
<g id="a_Node000011"><a xlink:title=" ">
<polygon fill="white" stroke="none" points="410.32,-61 305.57,-61 305.57,0 410.32,0 410.32,-61"/>
<text text-anchor="start" x="309.57" y="-47.5" font-family="Helvetica,sans-Serif" font-size="10.00">std::vector&lt; realization</text>
<text text-anchor="start" x="311.07" y="-36.25" font-family="Helvetica,sans-Serif" font-size="10.00">::config::Formulation &gt;</text>
<text text-anchor="start" x="356.44" y="-21" font-family="Helvetica,sans-Serif" font-size="10.00"> </text>
<text text-anchor="start" x="356.44" y="-5.75" font-family="Helvetica,sans-Serif" font-size="10.00"> </text>
<polygon fill="#666666" stroke="#666666" points="305.57,-32.5 305.57,-32.5 410.32,-32.5 410.32,-32.5 305.57,-32.5"/>
<polygon fill="#666666" stroke="#666666" points="305.57,-17.25 305.57,-17.25 410.32,-17.25 410.32,-17.25 305.57,-17.25"/>
<polygon fill="none" stroke="#666666" points="305.57,0 305.57,-61 410.32,-61 410.32,0 305.57,0"/>
</a>
</g>
</g>
<!-- Node1&#45;&gt;Node11 -->
<g id="edge16_Node000011_Node000001" class="edge">
<title>Node1&#45;&gt;Node11</title>
<g id="a_edge16_Node000011_Node000001"><a xlink:title=" ">
<path fill="none" stroke="#63b8ff" d="M338.86,-108.27C341.81,-96.41 344.84,-84.2 347.6,-73.11"/>
<polygon fill="none" stroke="#63b8ff" points="347.57,-73.21 345.14,-66.42 350.47,-61.57 352.9,-68.35 347.57,-73.21"/>
</a>
</g>
<text text-anchor="middle" x="369.98" y="-80.75" font-family="Helvetica,sans-Serif" font-size="10.00" fill="grey"> +elements</text>
</g>
<!-- Node2 -->
<g id="Node000002" class="node">
<title>Node2</title>
<g id="a_Node000002"><a xlink:title=" ">
<polygon fill="white" stroke="none" points="339.94,-808.62 289.94,-808.62 289.94,-758.88 339.94,-758.88 339.94,-808.62"/>
<text text-anchor="start" x="293.94" y="-795.12" font-family="Helvetica,sans-Serif" font-size="10.00">std::string</text>
<text text-anchor="start" x="313.44" y="-779.88" font-family="Helvetica,sans-Serif" font-size="10.00"> </text>
<text text-anchor="start" x="313.44" y="-764.62" font-family="Helvetica,sans-Serif" font-size="10.00"> </text>
<polygon fill="#666666" stroke="#666666" points="289.94,-791.38 289.94,-791.38 339.94,-791.38 339.94,-791.38 289.94,-791.38"/>
<polygon fill="#666666" stroke="#666666" points="289.94,-776.12 289.94,-776.12 339.94,-776.12 339.94,-776.12 289.94,-776.12"/>
<polygon fill="none" stroke="#666666" points="289.94,-758.88 289.94,-808.62 339.94,-808.62 339.94,-758.88 289.94,-758.88"/>
</a>
</g>
</g>
<!-- Node2&#45;&gt;Node1 -->
<g id="edge1_Node000001_Node000002" class="edge">
<title>Node2&#45;&gt;Node1</title>
<g id="a_edge1_Node000001_Node000002"><a xlink:title=" ">
<path fill="none" stroke="#63b8ff" d="M329.31,-759.18C337.42,-744.47 346.75,-724.82 350.94,-706 395.21,-507.4 372.61,-449.55 342.94,-248.25 342.67,-246.4 342.37,-244.52 342.06,-242.64"/>
<polygon fill="none" stroke="#63b8ff" points="342.08,-242.75 337.04,-237.59 339.87,-230.96 344.91,-236.12 342.08,-242.75"/>
</a>
</g>
<text text-anchor="middle" x="376.32" y="-363.88" font-family="Helvetica,sans-Serif" font-size="10.00" fill="grey"> +type</text>
</g>
<!-- Node4 -->
<g id="Node000004" class="node">
<title>Node4</title>
<g id="a_Node000004"><a xlink:title=" ">
<polygon fill="white" stroke="none" points="300.94,-338.5 202.94,-338.5 202.94,-277.5 300.94,-277.5 300.94,-338.5"/>
<text text-anchor="start" x="206.94" y="-325" font-family="Helvetica,sans-Serif" font-size="10.00">std::map&lt; std::string,</text>
<text text-anchor="start" x="215.19" y="-313.75" font-family="Helvetica,sans-Serif" font-size="10.00"> JSONProperty &gt;</text>
<text text-anchor="start" x="250.44" y="-298.5" font-family="Helvetica,sans-Serif" font-size="10.00"> </text>
<text text-anchor="start" x="250.44" y="-283.25" font-family="Helvetica,sans-Serif" font-size="10.00"> </text>
<polygon fill="#666666" stroke="#666666" points="202.94,-310 202.94,-310 300.94,-310 300.94,-310 202.94,-310"/>
<polygon fill="#666666" stroke="#666666" points="202.94,-294.75 202.94,-294.75 300.94,-294.75 300.94,-294.75 202.94,-294.75"/>
<polygon fill="none" stroke="#666666" points="202.94,-277.5 202.94,-338.5 300.94,-338.5 300.94,-277.5 202.94,-277.5"/>
</a>
</g>
</g>
<!-- Node2&#45;&gt;Node4 -->
<g id="edge4_Node000004_Node000002" class="edge">
<title>Node2&#45;&gt;Node4</title>
<g id="a_edge4_Node000004_Node000002"><a xlink:title=" ">
<path fill="none" stroke="#63b8ff" d="M315.91,-759.12C318.78,-680.73 325.32,-430.12 294.94,-356.5 293.86,-353.87 292.56,-351.29 291.1,-348.78"/>
<polygon fill="none" stroke="#63b8ff" points="291.17,-348.87 284.47,-346.19 284.37,-338.98 291.06,-341.66 291.17,-348.87"/>
</a>
</g>
<text text-anchor="middle" x="332.8" y="-547.62" font-family="Helvetica,sans-Serif" font-size="10.00" fill="grey"> +keys</text>
</g>
<!-- Node5 -->
<g id="Node000005" class="node">
<title>Node5</title>
<g id="a_Node000005"><a xlink:href="classgeojson_1_1_j_s_o_n_property.html" target="_top" xlink:title="@TODO: Convert JSONProperty into a variant of the supported types">
<polygon fill="white" stroke="none" points="264.57,-706 155.32,-706 155.32,-397 264.57,-397 264.57,-706"/>
<text text-anchor="start" x="159.32" y="-692.5" font-family="Helvetica,sans-Serif" font-size="10.00">geojson::JSONProperty</text>
<text text-anchor="start" x="165.07" y="-677.25" font-family="Helvetica,sans-Serif" font-size="10.00">&#45;</text>
<text text-anchor="start" x="177.82" y="-677.25" font-family="Helvetica,sans-Serif" font-size="10.00">type</text>
<text text-anchor="start" x="165.07" y="-662" font-family="Helvetica,sans-Serif" font-size="10.00">&#45;</text>
<text text-anchor="start" x="177.82" y="-662" font-family="Helvetica,sans-Serif" font-size="10.00">data</text>
<text text-anchor="start" x="163.57" y="-646.75" font-family="Helvetica,sans-Serif" font-size="10.00">+</text>
<text text-anchor="start" x="177.82" y="-646.75" font-family="Helvetica,sans-Serif" font-size="10.00">JSONProperty()</text>
<text text-anchor="start" x="163.57" y="-631.5" font-family="Helvetica,sans-Serif" font-size="10.00">+</text>
<text text-anchor="start" x="177.82" y="-631.5" font-family="Helvetica,sans-Serif" font-size="10.00">JSONProperty()</text>
<text text-anchor="start" x="163.57" y="-616.25" font-family="Helvetica,sans-Serif" font-size="10.00">+</text>
<text text-anchor="start" x="177.82" y="-616.25" font-family="Helvetica,sans-Serif" font-size="10.00">JSONProperty()</text>
<text text-anchor="start" x="163.57" y="-601" font-family="Helvetica,sans-Serif" font-size="10.00">+</text>
<text text-anchor="start" x="177.82" y="-601" font-family="Helvetica,sans-Serif" font-size="10.00">JSONProperty()</text>
<text text-anchor="start" x="163.57" y="-585.75" font-family="Helvetica,sans-Serif" font-size="10.00">+</text>
<text text-anchor="start" x="177.82" y="-585.75" font-family="Helvetica,sans-Serif" font-size="10.00">JSONProperty()</text>
<text text-anchor="start" x="163.57" y="-570.5" font-family="Helvetica,sans-Serif" font-size="10.00">+</text>
<text text-anchor="start" x="177.82" y="-570.5" font-family="Helvetica,sans-Serif" font-size="10.00">JSONProperty()</text>
<text text-anchor="start" x="163.57" y="-555.25" font-family="Helvetica,sans-Serif" font-size="10.00">+</text>
<text text-anchor="start" x="177.82" y="-555.25" font-family="Helvetica,sans-Serif" font-size="10.00">JSONProperty()</text>
<text text-anchor="start" x="163.57" y="-540" font-family="Helvetica,sans-Serif" font-size="10.00">+</text>
<text text-anchor="start" x="177.82" y="-540" font-family="Helvetica,sans-Serif" font-size="10.00">JSONProperty()</text>
<text text-anchor="start" x="163.57" y="-524.75" font-family="Helvetica,sans-Serif" font-size="10.00">+</text>
<text text-anchor="start" x="177.82" y="-524.75" font-family="Helvetica,sans-Serif" font-size="10.00">JSONProperty()</text>
<text text-anchor="start" x="163.57" y="-509.5" font-family="Helvetica,sans-Serif" font-size="10.00">+</text>
<text text-anchor="start" x="177.82" y="-509.5" font-family="Helvetica,sans-Serif" font-size="10.00">JSONProperty()</text>
<text text-anchor="start" x="163.57" y="-494.25" font-family="Helvetica,sans-Serif" font-size="10.00">+</text>
<text text-anchor="start" x="177.82" y="-494.25" font-family="Helvetica,sans-Serif" font-size="10.00">JSONProperty()</text>
<text text-anchor="start" x="163.57" y="-479" font-family="Helvetica,sans-Serif" font-size="10.00">+</text>
<text text-anchor="start" x="177.82" y="-479" font-family="Helvetica,sans-Serif" font-size="10.00">JSONProperty()</text>
<text text-anchor="start" x="163.57" y="-463.75" font-family="Helvetica,sans-Serif" font-size="10.00">+</text>
<text text-anchor="start" x="177.82" y="-463.75" font-family="Helvetica,sans-Serif" font-size="10.00">~JSONProperty()</text>
<text text-anchor="start" x="163.57" y="-448.5" font-family="Helvetica,sans-Serif" font-size="10.00">+</text>
<text text-anchor="start" x="177.82" y="-448.5" font-family="Helvetica,sans-Serif" font-size="10.00">JSONProperty()</text>
<text text-anchor="start" x="163.57" y="-433.25" font-family="Helvetica,sans-Serif" font-size="10.00">+</text>
<text text-anchor="start" x="177.82" y="-433.25" font-family="Helvetica,sans-Serif" font-size="10.00">JSONProperty()</text>
<text text-anchor="start" x="177.82" y="-418" font-family="Helvetica,sans-Serif" font-size="10.00">and 18 more...</text>
<text text-anchor="start" x="163.57" y="-402.75" font-family="Helvetica,sans-Serif" font-size="10.00">+</text>
<text text-anchor="start" x="177.82" y="-402.75" font-family="Helvetica,sans-Serif" font-size="10.00">print_property()</text>
<polygon fill="#666666" stroke="#666666" points="155.32,-688.75 155.32,-688.75 264.57,-688.75 264.57,-688.75 155.32,-688.75"/>
<polygon fill="#666666" stroke="#666666" points="155.32,-658.25 155.32,-658.25 175.82,-658.25 175.82,-658.25 155.32,-658.25"/>
<polygon fill="#666666" stroke="#666666" points="175.82,-658.25 175.82,-658.25 264.57,-658.25 264.57,-658.25 175.82,-658.25"/>
<polygon fill="none" stroke="#666666" points="155.32,-397 155.32,-706 264.57,-706 264.57,-397 155.32,-397"/>
</a>
</g>
</g>
<!-- Node2&#45;&gt;Node5 -->
<g id="edge6_Node000005_Node000002" class="edge">
<title>Node2&#45;&gt;Node5</title>
<g id="a_edge6_Node000005_Node000002"><a xlink:title=" ">
<path fill="none" stroke="#63b8ff" d="M295.92,-758.88C290.59,-751.55 285.06,-743.29 280.69,-735.25 277.01,-728.46 273.43,-721.44 269.95,-714.28"/>
<polygon fill="none" stroke="#63b8ff" points="269.91,-714.2 263.73,-710.48 264.78,-703.35 270.96,-707.06 269.91,-714.2"/>
</a>
</g>
<text text-anchor="middle" x="290.82" y="-725.75" font-family="Helvetica,sans-Serif" font-size="10.00" fill="grey"> &#45;key</text>
</g>
<!-- Node3 -->
<g id="Node000003" class="node">
<title>Node3</title>
<g id="a_Node000003"><a xlink:title=" ">
<polygon fill="white" stroke="none" points="357.19,-922.5 272.69,-922.5 272.69,-861.5 357.19,-861.5 357.19,-922.5"/>
<text text-anchor="start" x="276.69" y="-909" font-family="Helvetica,sans-Serif" font-size="10.00">std::basic_string&lt;</text>
<text text-anchor="start" x="299.57" y="-897.75" font-family="Helvetica,sans-Serif" font-size="10.00"> Char &gt;</text>
<text text-anchor="start" x="313.44" y="-882.5" font-family="Helvetica,sans-Serif" font-size="10.00"> </text>
<text text-anchor="start" x="313.44" y="-867.25" font-family="Helvetica,sans-Serif" font-size="10.00"> </text>
<polygon fill="#666666" stroke="#666666" points="272.69,-894 272.69,-894 357.19,-894 357.19,-894 272.69,-894"/>
<polygon fill="#666666" stroke="#666666" points="272.69,-878.75 272.69,-878.75 357.19,-878.75 357.19,-878.75 272.69,-878.75"/>
<polygon fill="none" stroke="#666666" points="272.69,-861.5 272.69,-922.5 357.19,-922.5 357.19,-861.5 272.69,-861.5"/>
</a>
</g>
</g>
<!-- Node3&#45;&gt;Node2 -->
<g id="edge2_Node000002_Node000003" class="edge">
<title>Node3&#45;&gt;Node2</title>
<g id="a_edge2_Node000002_Node000003"><a xlink:title=" ">
<path fill="none" stroke="#63b8ff" d="M314.94,-850.25C314.94,-836.17 314.94,-820.87 314.94,-808.6"/>
<polygon fill="none" stroke="#63b8ff" points="311.44,-850.17 314.94,-860.17 318.44,-850.17 311.44,-850.17"/>
</a>
</g>
</g>
<!-- Node4&#45;&gt;Node1 -->
<g id="edge3_Node000001_Node000004" class="edge">
<title>Node4&#45;&gt;Node1</title>
<g id="a_edge3_Node000001_Node000004"><a xlink:title=" ">
<path fill="none" stroke="#63b8ff" d="M267.39,-277.66C273.05,-266.92 279.72,-254.24 286.47,-241.43"/>
<polygon fill="none" stroke="#63b8ff" points="286.38,-241.6 285.63,-234.43 291.97,-230.99 292.71,-238.16 286.38,-241.6"/>
</a>
</g>
<text text-anchor="middle" x="310" y="-250" font-family="Helvetica,sans-Serif" font-size="10.00" fill="grey"> +parameters</text>
</g>
<!-- Node4&#45;&gt;Node5 -->
<g id="edge7_Node000005_Node000004" class="edge">
<title>Node4&#45;&gt;Node5</title>
<g id="a_edge7_Node000005_Node000004"><a xlink:title=" ">
<path fill="none" stroke="#63b8ff" d="M214.82,-338.41C210.09,-343.89 205.95,-349.97 203.19,-356.5 199.44,-365.41 196.61,-374.75 194.54,-384.33"/>
<polygon fill="none" stroke="#63b8ff" points="194.54,-384.33 197.42,-390.94 192.42,-396.14 189.54,-389.53 194.54,-384.33"/>
</a>
</g>
<text text-anchor="middle" x="220.07" y="-363.88" font-family="Helvetica,sans-Serif" font-size="10.00" fill="grey"> &#45;values</text>
</g>
<!-- Node5&#45;&gt;Node4 -->
<g id="edge5_Node000004_Node000005" class="edge">
<title>Node5&#45;&gt;Node4</title>
<g id="a_edge5_Node000004_Node000005"><a xlink:title=" ">
<path fill="none" stroke="#63b8ff" d="M236.6,-397.21C239.52,-380.42 242.29,-364.53 244.64,-350.98"/>
<polygon fill="none" stroke="#63b8ff" points="244.64,-350.98 241.73,-344.39 246.7,-339.16 249.61,-345.76 244.64,-350.98"/>
</a>
</g>
<text text-anchor="middle" x="266.87" y="-363.88" font-family="Helvetica,sans-Serif" font-size="10.00" fill="grey"> +elements</text>
</g>
<!-- Node6 -->
<g id="Node000006" class="node">
<title>Node6</title>
<g id="a_Node000006"><a xlink:title=" ">
<polygon fill="white" stroke="none" points="227.44,-814.25 132.44,-814.25 132.44,-753.25 227.44,-753.25 227.44,-814.25"/>
<text text-anchor="start" x="136.44" y="-800.75" font-family="Helvetica,sans-Serif" font-size="10.00">std::vector&lt; geojson</text>
<text text-anchor="start" x="142.07" y="-789.5" font-family="Helvetica,sans-Serif" font-size="10.00">::JSONProperty &gt;</text>
<text text-anchor="start" x="178.44" y="-774.25" font-family="Helvetica,sans-Serif" font-size="10.00"> </text>
<text text-anchor="start" x="178.44" y="-759" font-family="Helvetica,sans-Serif" font-size="10.00"> </text>
<polygon fill="#666666" stroke="#666666" points="132.44,-785.75 132.44,-785.75 227.44,-785.75 227.44,-785.75 132.44,-785.75"/>
<polygon fill="#666666" stroke="#666666" points="132.44,-770.5 132.44,-770.5 227.44,-770.5 227.44,-770.5 132.44,-770.5"/>
<polygon fill="none" stroke="#666666" points="132.44,-753.25 132.44,-814.25 227.44,-814.25 227.44,-753.25 132.44,-753.25"/>
</a>
</g>
</g>
<!-- Node5&#45;&gt;Node6 -->
<g id="edge9_Node000006_Node000005" class="edge">
<title>Node5&#45;&gt;Node6</title>
<g id="a_edge9_Node000006_Node000005"><a xlink:title=" ">
<path fill="none" stroke="#63b8ff" d="M155.5,-660.58C147.4,-681.16 140.31,-702.88 135.94,-724 134.64,-730.3 135.57,-736.4 137.89,-742.13"/>
<polygon fill="none" stroke="#63b8ff" points="137.9,-742.15 144.36,-745.35 143.89,-752.55 137.43,-749.35 137.9,-742.15"/>
</a>
</g>
<text text-anchor="middle" x="159.94" y="-725.75" font-family="Helvetica,sans-Serif" font-size="10.00" fill="grey"> +elements</text>
</g>
<!-- Node6&#45;&gt;Node5 -->
<g id="edge8_Node000005_Node000006" class="edge">
<title>Node6&#45;&gt;Node5</title>
<g id="a_edge8_Node000005_Node000006"><a xlink:title=" ">
<path fill="none" stroke="#63b8ff" d="M185.11,-753.39C186.1,-747.4 187.1,-741.13 187.94,-735.25 188.75,-729.67 189.55,-724 190.34,-718.26"/>
<polygon fill="none" stroke="#63b8ff" points="190.32,-718.42 187.16,-711.93 191.93,-706.52 195.09,-713.01 190.32,-718.42"/>
</a>
</g>
<text text-anchor="middle" x="212.59" y="-725.75" font-family="Helvetica,sans-Serif" font-size="10.00" fill="grey"> &#45;value_list</text>
</g>
<!-- Node7 -->
<g id="Node000007" class="node">
<title>Node7</title>
<g id="a_Node000007"><a xlink:title=" ">
<polygon fill="white" stroke="none" points="450.69,-916.88 375.19,-916.88 375.19,-867.12 450.69,-867.12 450.69,-916.88"/>
<text text-anchor="start" x="379.19" y="-903.38" font-family="Helvetica,sans-Serif" font-size="10.00">std::vector&lt; T &gt;</text>
<text text-anchor="start" x="411.44" y="-888.12" font-family="Helvetica,sans-Serif" font-size="10.00"> </text>
<text text-anchor="start" x="411.44" y="-872.88" font-family="Helvetica,sans-Serif" font-size="10.00"> </text>
<polygon fill="#666666" stroke="#666666" points="375.19,-899.62 375.19,-899.62 450.69,-899.62 450.69,-899.62 375.19,-899.62"/>
<polygon fill="#666666" stroke="#666666" points="375.19,-884.38 375.19,-884.38 450.69,-884.38 450.69,-884.38 375.19,-884.38"/>
<polygon fill="none" stroke="#666666" points="375.19,-867.12 375.19,-916.88 450.69,-916.88 450.69,-867.12 375.19,-867.12"/>
</a>
</g>
</g>
<!-- Node7&#45;&gt;Node6 -->
<g id="edge10_Node000006_Node000007" class="edge">
<title>Node7&#45;&gt;Node6</title>
<g id="a_edge10_Node000006_Node000007"><a xlink:title=" ">
<path fill="none" stroke="orange" d="M367.42,-862.12C366.92,-861.91 366.43,-861.7 365.94,-861.5 332.67,-847.73 320.61,-856.29 286.94,-843.5 266.44,-835.71 245.03,-824.62 226.79,-814.16"/>
<polygon fill="orange" stroke="orange" points="365.81,-865.23 376.33,-866.48 368.89,-858.95 365.81,-865.23"/>
</a>
</g>
<text text-anchor="middle" x="346.94" y="-834" font-family="Helvetica,sans-Serif" font-size="10.00" fill="grey"> &lt; geojson::JSONProperty &gt;</text>
</g>
<!-- Node7&#45;&gt;Node11 -->
<g id="edge17_Node000011_Node000007" class="edge">
<title>Node7&#45;&gt;Node11</title>
<g id="a_edge17_Node000011_Node000007"><a xlink:title=" ">
<path fill="none" stroke="orange" d="M416.91,-855.99C418.92,-835.3 420.94,-808.56 420.94,-784.75 420.94,-784.75 420.94,-784.75 420.94,-168.25 420.94,-127.29 416.72,-115.41 397.94,-79 394.73,-72.77 390.57,-66.64 386.16,-60.97"/>
<polygon fill="orange" stroke="orange" points="413.43,-855.6 415.9,-865.9 420.4,-856.31 413.43,-855.6"/>
</a>
</g>
<text text-anchor="start" x="420.94" y="-369.5" font-family="Helvetica,sans-Serif" font-size="10.00" fill="grey"> &lt; realization::config</text>
<text text-anchor="middle" x="462.94" y="-358.25" font-family="Helvetica,sans-Serif" font-size="10.00" fill="grey">::Formulation &gt;</text>
</g>
<!-- Node8 -->
<g id="Node000008" class="node">
<title>Node8</title>
<g id="a_Node000008"><a xlink:title=" ">
<polygon fill="white" stroke="none" points="241.94,-1019.5 227.94,-1019.5 227.94,-969.75 241.94,-969.75 241.94,-1019.5"/>
<text text-anchor="start" x="231.94" y="-1006" font-family="Helvetica,sans-Serif" font-size="10.00">T</text>
<text text-anchor="start" x="233.44" y="-990.75" font-family="Helvetica,sans-Serif" font-size="10.00"> </text>
<text text-anchor="start" x="233.44" y="-975.5" font-family="Helvetica,sans-Serif" font-size="10.00"> </text>
<polygon fill="#666666" stroke="#666666" points="227.94,-1002.25 227.94,-1002.25 241.94,-1002.25 241.94,-1002.25 227.94,-1002.25"/>
<polygon fill="#666666" stroke="#666666" points="227.94,-987 227.94,-987 241.94,-987 241.94,-987 227.94,-987"/>
<polygon fill="none" stroke="#666666" points="227.94,-969.75 227.94,-1019.5 241.94,-1019.5 241.94,-969.75 227.94,-969.75"/>
</a>
</g>
</g>
<!-- Node8&#45;&gt;Node7 -->
<g id="edge11_Node000007_Node000008" class="edge">
<title>Node8&#45;&gt;Node7</title>
<g id="a_edge11_Node000007_Node000008"><a xlink:title=" ">
<path fill="none" stroke="#63b8ff" d="M241.85,-990.07C260.18,-980.6 311.75,-953.71 364.38,-923.27"/>
<polygon fill="none" stroke="#63b8ff" points="364.47,-923.22 367.64,-916.74 374.84,-917.18 371.67,-923.65 364.47,-923.22"/>
</a>
</g>
<text text-anchor="middle" x="357.97" y="-942.25" font-family="Helvetica,sans-Serif" font-size="10.00" fill="grey"> +elements</text>
</g>
<!-- Node9 -->
<g id="Node000009" class="node">
<title>Node9</title>
<g id="a_Node000009"><a xlink:title=" ">
<polygon fill="white" stroke="none" points="140.57,-916.88 61.32,-916.88 61.32,-867.12 140.57,-867.12 140.57,-916.88"/>
<text text-anchor="start" x="65.32" y="-903.38" font-family="Helvetica,sans-Serif" font-size="10.00">std::map&lt; K, T &gt;</text>
<text text-anchor="start" x="99.44" y="-888.12" font-family="Helvetica,sans-Serif" font-size="10.00"> </text>
<text text-anchor="start" x="99.44" y="-872.88" font-family="Helvetica,sans-Serif" font-size="10.00"> </text>
<polygon fill="#666666" stroke="#666666" points="61.32,-899.62 61.32,-899.62 140.57,-899.62 140.57,-899.62 61.32,-899.62"/>
<polygon fill="#666666" stroke="#666666" points="61.32,-884.38 61.32,-884.38 140.57,-884.38 140.57,-884.38 61.32,-884.38"/>
<polygon fill="none" stroke="#666666" points="61.32,-867.12 61.32,-916.88 140.57,-916.88 140.57,-867.12 61.32,-867.12"/>
</a>
</g>
</g>
<!-- Node8&#45;&gt;Node9 -->
<g id="edge14_Node000009_Node000008" class="edge">
<title>Node8&#45;&gt;Node9</title>
<g id="a_edge14_Node000009_Node000008"><a xlink:title=" ">
<path fill="none" stroke="#63b8ff" d="M228.12,-988.5C212.54,-976.8 173.37,-947.39 142.58,-924.27"/>
<polygon fill="none" stroke="#63b8ff" points="142.83,-924.45 135.63,-924.05 133.23,-917.24 140.43,-917.65 142.83,-924.45"/>
</a>
</g>
<text text-anchor="middle" x="199.97" y="-942.25" font-family="Helvetica,sans-Serif" font-size="10.00" fill="grey"> +elements</text>
</g>
<!-- Node9&#45;&gt;Node4 -->
<g id="edge12_Node000004_Node000009" class="edge">
<title>Node9&#45;&gt;Node4</title>
<g id="a_edge12_Node000004_Node000009"><a xlink:title=" ">
<path fill="none" stroke="orange" d="M64.05,-859.57C31.55,-827.88 -9.06,-776.3 1.94,-724 34.65,-568.6 51.47,-524.64 145.94,-397 162.74,-374.31 186.57,-353.85 207.38,-338.37"/>
<polygon fill="orange" stroke="orange" points="61.34,-861.81 71.01,-866.14 66.15,-856.73 61.34,-861.81"/>
</a>
</g>
<text text-anchor="middle" x="66.44" y="-725.75" font-family="Helvetica,sans-Serif" font-size="10.00" fill="grey"> &lt; std::string, JSONProperty &gt;</text>
</g>
<!-- Node10 -->
<g id="Node000010" class="node">
<title>Node10</title>
<g id="a_Node000010"><a xlink:title=" ">
<polygon fill="white" stroke="none" points="108.32,-1019.5 93.57,-1019.5 93.57,-969.75 108.32,-969.75 108.32,-1019.5"/>
<text text-anchor="start" x="97.57" y="-1006" font-family="Helvetica,sans-Serif" font-size="10.00">K</text>
<text text-anchor="start" x="99.44" y="-990.75" font-family="Helvetica,sans-Serif" font-size="10.00"> </text>
<text text-anchor="start" x="99.44" y="-975.5" font-family="Helvetica,sans-Serif" font-size="10.00"> </text>
<polygon fill="#666666" stroke="#666666" points="93.57,-1002.25 93.57,-1002.25 108.32,-1002.25 108.32,-1002.25 93.57,-1002.25"/>
<polygon fill="#666666" stroke="#666666" points="93.57,-987 93.57,-987 108.32,-987 108.32,-987 93.57,-987"/>
<polygon fill="none" stroke="#666666" points="93.57,-969.75 93.57,-1019.5 108.32,-1019.5 108.32,-969.75 93.57,-969.75"/>
</a>
</g>
</g>
<!-- Node10&#45;&gt;Node9 -->
<g id="edge13_Node000009_Node000010" class="edge">
<title>Node10&#45;&gt;Node9</title>
<g id="a_edge13_Node000009_Node000010"><a xlink:title=" ">
<path fill="none" stroke="#63b8ff" d="M100.94,-969.78C100.94,-957.75 100.94,-942.9 100.94,-929.47"/>
<polygon fill="none" stroke="#63b8ff" points="100.94,-929.58 96.94,-923.58 100.94,-917.58 104.94,-923.58 100.94,-929.58"/>
</a>
</g>
<text text-anchor="middle" x="115.19" y="-942.25" font-family="Helvetica,sans-Serif" font-size="10.00" fill="grey"> +keys</text>
</g>
<!-- Node11&#45;&gt;Node1 -->
<g id="edge15_Node000001_Node000011" class="edge">
<title>Node11&#45;&gt;Node1</title>
<g id="a_edge15_Node000001_Node000011"><a xlink:title=" ">
<path fill="none" stroke="#63b8ff" d="M311.62,-60.96C306.31,-66.31 301.65,-72.33 298.44,-79 295.86,-84.37 294.55,-90.06 294.21,-95.85"/>
<polygon fill="none" stroke="#63b8ff" points="294.21,-95.74 298.52,-101.53 294.83,-107.73 290.53,-101.95 294.21,-95.74"/>
</a>
</g>
<text text-anchor="middle" x="317.19" y="-80.75" font-family="Helvetica,sans-Serif" font-size="10.00" fill="grey"> +nested</text>
</g>
</g>
</svg>

<g id="navigator" transform="translate(0 0)" fill="#404254">
  <rect fill="#f2f5e9" fill-opacity="0.5" stroke="#606060" stroke-width=".5" x="0" y="0" width="60" height="60"/>
  <use id="zoomplus" xlink:href="#zoomPlus" x="17" y="9" onmousedown="handleZoom(evt,'in')"/>
  <use id="zoomminus" xlink:href="#zoomMin" x="42" y="9" onmousedown="handleZoom(evt,'out')"/>
  <use id="reset" xlink:href="#resetDef" x="30" y="36" onmousedown="handleReset()"/>
   <use id="arrowup" xlink:href="#arrowUp" x="0" y="0" onmousedown="handlePan(0,-1)"/>
  <use id="arrowright" xlink:href="#arrowRight" x="0" y="0" onmousedown="handlePan(1,0)"/>
  <use id="arrowdown" xlink:href="#arrowDown" x="0" y="0" onmousedown="handlePan(0,1)"/>
  <use id="arrowleft" xlink:href="#arrowLeft" x="0" y="0" onmousedown="handlePan(-1,0)"/>
</g>
<svg viewBox="0 0 15 15" width="100%" height="30px" preserveAspectRatio="xMaxYMin meet">
 <g id="arrow_out" transform="scale(0.3 0.3)">
  <a xlink:href="structrealization_1_1config_1_1_formulation__coll__graph_org.svg" target="_base">
   <rect id="button" ry="5" rx="5" y="6" x="6" height="38" width="38"
        fill="#f2f5e9" fill-opacity="0.5" stroke="#606060" stroke-width="1.0"/>
   <path id="arrow"
     d="M 11.500037,31.436501 C 11.940474,20.09759 22.043105,11.32322 32.158766,21.979434 L 37.068811,17.246167 C 37.068811,17.246167 37.088388,32 37.088388,32 L 22.160133,31.978069 C 22.160133,31.978069 26.997745,27.140456 26.997745,27.140456 C 18.528582,18.264221 13.291696,25.230495 11.500037,31.436501 z"
     style="fill:#404040;"/>
  </a>
 </g>
</svg>

<style type='text/css'>
<![CDATA[
[data-mouse-over-selected='false'] { opacity: 0.7; }
[data-mouse-over-selected='true']  { opacity: 1.0; }
]]>
</style>
<script type="application/ecmascript"><![CDATA[
document.addEventListener('DOMContentLoaded', (event) => {
  highlightEdges();
  highlightAdjacentNodes();
});
]]></script>
</svg>
