<?xml version="1.0" encoding="UTF-8" standalone="no"?>
<!DOCTYPE svg PUBLIC "-//W3C//DTD SVG 1.1//EN"
 "http://www.w3.org/Graphics/SVG/1.1/DTD/svg11.dtd">
<!-- Generated by graphviz version 12.2.0 (20241103.1931)
 -->
<!-- Title: realization::config::Config Pages: 1 -->
<!--zoomable 1073 -->

<svg id="main" version="1.1" xmlns="http://www.w3.org/2000/svg" xmlns:xlink="http://www.w3.org/1999/xlink" xml:space="preserve" onload="init(evt)">

<style type="text/css"><![CDATA[
.node, .edge {opacity: 0.7;}
.node.selected, .edge.selected {opacity: 1;}
.edge:hover path { stroke: red; }
.edge:hover polygon { stroke: red; fill: red; }
]]></style>

<defs>
  <circle id="rim" cx="0" cy="0" r="7"/>
  <circle id="rim2" cx="0" cy="0" r="3.5"/>
  <g id="zoomPlus">
    <use xlink:href="#rim" fill="#404040"><set attributeName="fill" to="#808080" begin="zoomplus.mouseover" end="zoomplus.mouseout"/></use>
    <path d="M-4,0h8M0,-4v8" fill="none" stroke="white" stroke-width="1.5" pointer-events="none"/>
  </g>
  <g id="zoomMin">
    <use xlink:href="#rim" fill="#404040"><set attributeName="fill" to="#808080" begin="zoomminus.mouseover" end="zoomminus.mouseout"/></use>
    <path d="M-4,0h8" fill="none" stroke="white" stroke-width="1.5" pointer-events="none"/>
  </g>
  <g id="arrowUp" transform="translate(30 24)">
    <use xlink:href="#rim"/>
    <path pointer-events="none" fill="none" stroke="white" stroke-width="1.5" d="M0,-3.0v7 M-2.5,-0.5L0,-3.0L2.5,-0.5"/>
  </g>
  <g id="arrowRight" transform="rotate(90) translate(36 -43)">
    <use xlink:href="#rim"/>
    <path pointer-events="none" fill="none" stroke="white" stroke-width="1.5" d="M0,-3.0v7 M-2.5,-0.5L0,-3.0L2.5,-0.5"/>
  </g>
  <g id="arrowDown" transform="rotate(180) translate(-30 -48)">
    <use xlink:href="#rim"/>
    <path pointer-events="none" fill="none" stroke="white" stroke-width="1.5" d="M0,-3.0v7 M-2.5,-0.5L0,-3.0L2.5,-0.5"/>
  </g>
  <g id="arrowLeft" transform="rotate(270) translate(-36 17)">
    <use xlink:href="#rim"/>
    <path pointer-events="none" fill="none" stroke="white" stroke-width="1.5" d="M0,-3.0v7 M-2.5,-0.5L0,-3.0L2.5,-0.5"/>
  </g>
  <g id="resetDef">
    <use xlink:href="#rim2" fill="#404040"><set attributeName="fill" to="#808080" begin="reset.mouseover" end="reset.mouseout"/></use>
  </g>
</defs>
<script type="application/ecmascript">
var viewWidth = 508;
var viewHeight = 1073;
var sectionId = 'dynsection-0';
</script>
<script type="application/ecmascript" xlink:href="svg.min.js"/>
<svg id="graph" class="graph">
<g id="viewport">
<title>realization::config::Config</title>
<!-- Node1 -->
<g id="Node000001" class="node">
<title>Node1</title>
<g id="a_Node000001"><a xlink:title="Structure representing the configuration for a general Formulation.">
<polygon fill="#999999" stroke="none" points="269.88,-106.75 176.88,-106.75 176.88,0 269.88,0 269.88,-106.75"/>
<text text-anchor="start" x="186.62" y="-93.25" font-family="Helvetica,sans-Serif" font-size="10.00">realization::config</text>
<text text-anchor="start" x="207.62" y="-82" font-family="Helvetica,sans-Serif" font-size="10.00">::Config</text>
<text text-anchor="start" x="221.88" y="-66.75" font-family="Helvetica,sans-Serif" font-size="10.00"> </text>
<text text-anchor="start" x="180.88" y="-51.5" font-family="Helvetica,sans-Serif" font-size="10.00">+</text>
<text text-anchor="start" x="190.88" y="-51.5" font-family="Helvetica,sans-Serif" font-size="10.00">Config()</text>
<text text-anchor="start" x="180.88" y="-36.25" font-family="Helvetica,sans-Serif" font-size="10.00">+</text>
<text text-anchor="start" x="190.88" y="-36.25" font-family="Helvetica,sans-Serif" font-size="10.00">Config()</text>
<text text-anchor="start" x="180.88" y="-21" font-family="Helvetica,sans-Serif" font-size="10.00">+</text>
<text text-anchor="start" x="190.88" y="-21" font-family="Helvetica,sans-Serif" font-size="10.00">Config()</text>
<text text-anchor="start" x="180.88" y="-5.75" font-family="Helvetica,sans-Serif" font-size="10.00">+</text>
<text text-anchor="start" x="190.88" y="-5.75" font-family="Helvetica,sans-Serif" font-size="10.00">has_formulation()</text>
<polygon fill="#666666" stroke="#666666" points="176.88,-78.25 176.88,-78.25 269.88,-78.25 269.88,-78.25 176.88,-78.25"/>
<polygon fill="#666666" stroke="#666666" points="176.88,-63 176.88,-63 269.88,-63 269.88,-63 176.88,-63"/>
<polygon fill="none" stroke="#666666" points="176.88,0 176.88,-106.75 269.88,-106.75 269.88,0 176.88,0"/>
</a>
</g>
</g>
<!-- Node2 -->
<g id="Node000002" class="node">
<title>Node2</title>
<g id="a_Node000002"><a xlink:href="structrealization_1_1config_1_1_formulation.html" target="_top" xlink:title=" ">
<polygon fill="white" stroke="none" points="179.12,-276 97.62,-276 97.62,-154 179.12,-154 179.12,-276"/>
<text text-anchor="start" x="101.62" y="-262.5" font-family="Helvetica,sans-Serif" font-size="10.00">realization::config</text>
<text text-anchor="start" x="110.62" y="-251.25" font-family="Helvetica,sans-Serif" font-size="10.00">::Formulation</text>
<text text-anchor="start" x="136.88" y="-236" font-family="Helvetica,sans-Serif" font-size="10.00"> </text>
<text text-anchor="start" x="102.5" y="-220.75" font-family="Helvetica,sans-Serif" font-size="10.00">+</text>
<text text-anchor="start" x="113.38" y="-220.75" font-family="Helvetica,sans-Serif" font-size="10.00">Formulation()</text>
<text text-anchor="start" x="102.5" y="-205.5" font-family="Helvetica,sans-Serif" font-size="10.00">+</text>
<text text-anchor="start" x="113.38" y="-205.5" font-family="Helvetica,sans-Serif" font-size="10.00">Formulation()</text>
<text text-anchor="start" x="102.5" y="-190.25" font-family="Helvetica,sans-Serif" font-size="10.00">+</text>
<text text-anchor="start" x="113.38" y="-190.25" font-family="Helvetica,sans-Serif" font-size="10.00">Formulation()</text>
<text text-anchor="start" x="102.5" y="-175" font-family="Helvetica,sans-Serif" font-size="10.00">+</text>
<text text-anchor="start" x="113.38" y="-175" font-family="Helvetica,sans-Serif" font-size="10.00">clone()</text>
<text text-anchor="start" x="102.5" y="-159.75" font-family="Helvetica,sans-Serif" font-size="10.00">+</text>
<text text-anchor="start" x="113.38" y="-159.75" font-family="Helvetica,sans-Serif" font-size="10.00">link_external()</text>
<polygon fill="#666666" stroke="#666666" points="97.62,-247.5 97.62,-247.5 179.12,-247.5 179.12,-247.5 97.62,-247.5"/>
<polygon fill="#666666" stroke="#666666" points="97.62,-232.25 97.62,-232.25 179.12,-232.25 179.12,-232.25 97.62,-232.25"/>
<polygon fill="none" stroke="#666666" points="97.62,-154 97.62,-276 179.12,-276 179.12,-154 97.62,-154"/>
</a>
</g>
</g>
<!-- Node2&#45;&gt;Node1 -->
<g id="edge1_Node000001_Node000002" class="edge">
<title>Node2&#45;&gt;Node1</title>
<g id="a_edge1_Node000001_Node000002"><a xlink:title=" ">
<path fill="none" stroke="#63b8ff" d="M166.12,-154.08C170.97,-144.2 176.08,-134.13 181.12,-124.75 182.32,-122.54 183.54,-120.3 184.79,-118.04"/>
<polygon fill="none" stroke="#63b8ff" points="184.86,-117.93 184.34,-110.74 190.78,-107.5 191.3,-114.69 184.86,-117.93"/>
</a>
</g>
<text text-anchor="middle" x="209.25" y="-126.5" font-family="Helvetica,sans-Serif" font-size="10.00" fill="grey"> +formulation</text>
</g>
<!-- Node12 -->
<g id="Node000012" class="node">
<title>Node12</title>
<g id="a_Node000012"><a xlink:title=" ">
<polygon fill="white" stroke="none" points="104.75,-83.88 0,-83.88 0,-22.87 104.75,-22.87 104.75,-83.88"/>
<text text-anchor="start" x="4" y="-70.38" font-family="Helvetica,sans-Serif" font-size="10.00">std::vector&lt; realization</text>
<text text-anchor="start" x="5.5" y="-59.12" font-family="Helvetica,sans-Serif" font-size="10.00">::config::Formulation &gt;</text>
<text text-anchor="start" x="50.88" y="-43.88" font-family="Helvetica,sans-Serif" font-size="10.00"> </text>
<text text-anchor="start" x="50.88" y="-28.62" font-family="Helvetica,sans-Serif" font-size="10.00"> </text>
<polygon fill="#666666" stroke="#666666" points="0,-55.38 0,-55.38 104.75,-55.38 104.75,-55.38 0,-55.38"/>
<polygon fill="#666666" stroke="#666666" points="0,-40.12 0,-40.12 104.75,-40.12 104.75,-40.12 0,-40.12"/>
<polygon fill="none" stroke="#666666" points="0,-22.88 0,-83.88 104.75,-83.88 104.75,-22.88 0,-22.88"/>
</a>
</g>
</g>
<!-- Node2&#45;&gt;Node12 -->
<g id="edge17_Node000012_Node000002" class="edge">
<title>Node2&#45;&gt;Node12</title>
<g id="a_edge17_Node000012_Node000002"><a xlink:title=" ">
<path fill="none" stroke="#63b8ff" d="M97.86,-190.03C79.41,-176.69 59.47,-158.27 49.38,-136 43.84,-123.79 42.8,-109.48 43.69,-96.27"/>
<polygon fill="none" stroke="#63b8ff" points="43.68,-96.37 40.38,-89.96 45.03,-84.45 48.33,-90.86 43.68,-96.37"/>
</a>
</g>
<text text-anchor="middle" x="73.38" y="-126.5" font-family="Helvetica,sans-Serif" font-size="10.00" fill="grey"> +elements</text>
</g>
<!-- Node3 -->
<g id="Node000003" class="node">
<title>Node3</title>
<g id="a_Node000003"><a xlink:title=" ">
<polygon fill="white" stroke="none" points="249.38,-854.38 199.38,-854.38 199.38,-804.62 249.38,-804.62 249.38,-854.38"/>
<text text-anchor="start" x="203.38" y="-840.88" font-family="Helvetica,sans-Serif" font-size="10.00">std::string</text>
<text text-anchor="start" x="222.88" y="-825.62" font-family="Helvetica,sans-Serif" font-size="10.00"> </text>
<text text-anchor="start" x="222.88" y="-810.38" font-family="Helvetica,sans-Serif" font-size="10.00"> </text>
<polygon fill="#666666" stroke="#666666" points="199.38,-837.12 199.38,-837.12 249.38,-837.12 249.38,-837.12 199.38,-837.12"/>
<polygon fill="#666666" stroke="#666666" points="199.38,-821.88 199.38,-821.88 249.38,-821.88 249.38,-821.88 199.38,-821.88"/>
<polygon fill="none" stroke="#666666" points="199.38,-804.62 199.38,-854.38 249.38,-854.38 249.38,-804.62 199.38,-804.62"/>
</a>
</g>
</g>
<!-- Node3&#45;&gt;Node2 -->
<g id="edge2_Node000002_Node000003" class="edge">
<title>Node3&#45;&gt;Node2</title>
<g id="a_edge2_Node000002_Node000003"><a xlink:title=" ">
<path fill="none" stroke="#63b8ff" d="M202.13,-804.67C183.62,-784.57 159.88,-758.08 157.38,-751.75 95.77,-595.97 111.4,-394.4 126.11,-288.44"/>
<polygon fill="none" stroke="#63b8ff" points="126.11,-288.46 123,-281.95 127.82,-276.58 130.92,-283.09 126.11,-288.46"/>
</a>
</g>
<text text-anchor="middle" x="127.87" y="-409.62" font-family="Helvetica,sans-Serif" font-size="10.00" fill="grey"> +type</text>
</g>
<!-- Node5 -->
<g id="Node000005" class="node">
<title>Node5</title>
<g id="a_Node000005"><a xlink:title=" ">
<polygon fill="white" stroke="none" points="312.38,-384.25 214.38,-384.25 214.38,-323.25 312.38,-323.25 312.38,-384.25"/>
<text text-anchor="start" x="218.38" y="-370.75" font-family="Helvetica,sans-Serif" font-size="10.00">std::map&lt; std::string,</text>
<text text-anchor="start" x="226.62" y="-359.5" font-family="Helvetica,sans-Serif" font-size="10.00"> JSONProperty &gt;</text>
<text text-anchor="start" x="261.88" y="-344.25" font-family="Helvetica,sans-Serif" font-size="10.00"> </text>
<text text-anchor="start" x="261.88" y="-329" font-family="Helvetica,sans-Serif" font-size="10.00"> </text>
<polygon fill="#666666" stroke="#666666" points="214.38,-355.75 214.38,-355.75 312.38,-355.75 312.38,-355.75 214.38,-355.75"/>
<polygon fill="#666666" stroke="#666666" points="214.38,-340.5 214.38,-340.5 312.38,-340.5 312.38,-340.5 214.38,-340.5"/>
<polygon fill="none" stroke="#666666" points="214.38,-323.25 214.38,-384.25 312.38,-384.25 312.38,-323.25 214.38,-323.25"/>
</a>
</g>
</g>
<!-- Node3&#45;&gt;Node5 -->
<g id="edge5_Node000005_Node000003" class="edge">
<title>Node3&#45;&gt;Node5</title>
<g id="a_edge5_Node000005_Node000003"><a xlink:title=" ">
<path fill="none" stroke="#63b8ff" d="M249.33,-805.49C262.73,-791.43 277.98,-772.24 285.38,-751.75 334.74,-615.02 290.82,-570.11 292.38,-424.75 292.48,-414.75 295.08,-411.88 292.38,-402.25 291.75,-400.01 290.98,-397.77 290.1,-395.55"/>
<polygon fill="none" stroke="#63b8ff" points="290.15,-395.65 283.95,-391.95 284.98,-384.82 291.17,-388.51 290.15,-395.65"/>
</a>
</g>
<text text-anchor="middle" x="323.14" y="-593.38" font-family="Helvetica,sans-Serif" font-size="10.00" fill="grey"> +keys</text>
</g>
<!-- Node6 -->
<g id="Node000006" class="node">
<title>Node6</title>
<g id="a_Node000006"><a xlink:href="classgeojson_1_1_j_s_o_n_property.html" target="_top" xlink:title="@TODO: Convert JSONProperty into a variant of the supported types">
<polygon fill="white" stroke="none" points="276,-751.75 166.75,-751.75 166.75,-442.75 276,-442.75 276,-751.75"/>
<text text-anchor="start" x="170.75" y="-738.25" font-family="Helvetica,sans-Serif" font-size="10.00">geojson::JSONProperty</text>
<text text-anchor="start" x="176.5" y="-723" font-family="Helvetica,sans-Serif" font-size="10.00">&#45;</text>
<text text-anchor="start" x="189.25" y="-723" font-family="Helvetica,sans-Serif" font-size="10.00">type</text>
<text text-anchor="start" x="176.5" y="-707.75" font-family="Helvetica,sans-Serif" font-size="10.00">&#45;</text>
<text text-anchor="start" x="189.25" y="-707.75" font-family="Helvetica,sans-Serif" font-size="10.00">data</text>
<text text-anchor="start" x="175" y="-692.5" font-family="Helvetica,sans-Serif" font-size="10.00">+</text>
<text text-anchor="start" x="189.25" y="-692.5" font-family="Helvetica,sans-Serif" font-size="10.00">JSONProperty()</text>
<text text-anchor="start" x="175" y="-677.25" font-family="Helvetica,sans-Serif" font-size="10.00">+</text>
<text text-anchor="start" x="189.25" y="-677.25" font-family="Helvetica,sans-Serif" font-size="10.00">JSONProperty()</text>
<text text-anchor="start" x="175" y="-662" font-family="Helvetica,sans-Serif" font-size="10.00">+</text>
<text text-anchor="start" x="189.25" y="-662" font-family="Helvetica,sans-Serif" font-size="10.00">JSONProperty()</text>
<text text-anchor="start" x="175" y="-646.75" font-family="Helvetica,sans-Serif" font-size="10.00">+</text>
<text text-anchor="start" x="189.25" y="-646.75" font-family="Helvetica,sans-Serif" font-size="10.00">JSONProperty()</text>
<text text-anchor="start" x="175" y="-631.5" font-family="Helvetica,sans-Serif" font-size="10.00">+</text>
<text text-anchor="start" x="189.25" y="-631.5" font-family="Helvetica,sans-Serif" font-size="10.00">JSONProperty()</text>
<text text-anchor="start" x="175" y="-616.25" font-family="Helvetica,sans-Serif" font-size="10.00">+</text>
<text text-anchor="start" x="189.25" y="-616.25" font-family="Helvetica,sans-Serif" font-size="10.00">JSONProperty()</text>
<text text-anchor="start" x="175" y="-601" font-family="Helvetica,sans-Serif" font-size="10.00">+</text>
<text text-anchor="start" x="189.25" y="-601" font-family="Helvetica,sans-Serif" font-size="10.00">JSONProperty()</text>
<text text-anchor="start" x="175" y="-585.75" font-family="Helvetica,sans-Serif" font-size="10.00">+</text>
<text text-anchor="start" x="189.25" y="-585.75" font-family="Helvetica,sans-Serif" font-size="10.00">JSONProperty()</text>
<text text-anchor="start" x="175" y="-570.5" font-family="Helvetica,sans-Serif" font-size="10.00">+</text>
<text text-anchor="start" x="189.25" y="-570.5" font-family="Helvetica,sans-Serif" font-size="10.00">JSONProperty()</text>
<text text-anchor="start" x="175" y="-555.25" font-family="Helvetica,sans-Serif" font-size="10.00">+</text>
<text text-anchor="start" x="189.25" y="-555.25" font-family="Helvetica,sans-Serif" font-size="10.00">JSONProperty()</text>
<text text-anchor="start" x="175" y="-540" font-family="Helvetica,sans-Serif" font-size="10.00">+</text>
<text text-anchor="start" x="189.25" y="-540" font-family="Helvetica,sans-Serif" font-size="10.00">JSONProperty()</text>
<text text-anchor="start" x="175" y="-524.75" font-family="Helvetica,sans-Serif" font-size="10.00">+</text>
<text text-anchor="start" x="189.25" y="-524.75" font-family="Helvetica,sans-Serif" font-size="10.00">JSONProperty()</text>
<text text-anchor="start" x="175" y="-509.5" font-family="Helvetica,sans-Serif" font-size="10.00">+</text>
<text text-anchor="start" x="189.25" y="-509.5" font-family="Helvetica,sans-Serif" font-size="10.00">~JSONProperty()</text>
<text text-anchor="start" x="175" y="-494.25" font-family="Helvetica,sans-Serif" font-size="10.00">+</text>
<text text-anchor="start" x="189.25" y="-494.25" font-family="Helvetica,sans-Serif" font-size="10.00">JSONProperty()</text>
<text text-anchor="start" x="175" y="-479" font-family="Helvetica,sans-Serif" font-size="10.00">+</text>
<text text-anchor="start" x="189.25" y="-479" font-family="Helvetica,sans-Serif" font-size="10.00">JSONProperty()</text>
<text text-anchor="start" x="189.25" y="-463.75" font-family="Helvetica,sans-Serif" font-size="10.00">and 18 more...</text>
<text text-anchor="start" x="175" y="-448.5" font-family="Helvetica,sans-Serif" font-size="10.00">+</text>
<text text-anchor="start" x="189.25" y="-448.5" font-family="Helvetica,sans-Serif" font-size="10.00">print_property()</text>
<polygon fill="#666666" stroke="#666666" points="166.75,-734.5 166.75,-734.5 276,-734.5 276,-734.5 166.75,-734.5"/>
<polygon fill="#666666" stroke="#666666" points="166.75,-704 166.75,-704 187.25,-704 187.25,-704 166.75,-704"/>
<polygon fill="#666666" stroke="#666666" points="187.25,-704 187.25,-704 276,-704 276,-704 187.25,-704"/>
<polygon fill="none" stroke="#666666" points="166.75,-442.75 166.75,-751.75 276,-751.75 276,-442.75 166.75,-442.75"/>
</a>
</g>
</g>
<!-- Node3&#45;&gt;Node6 -->
<g id="edge7_Node000006_Node000003" class="edge">
<title>Node3&#45;&gt;Node6</title>
<g id="a_edge7_Node000006_Node000003"><a xlink:title=" ">
<path fill="none" stroke="#63b8ff" d="M224.07,-804.73C223.92,-793.8 223.74,-779.81 223.54,-764.28"/>
<polygon fill="none" stroke="#63b8ff" points="223.54,-764.41 219.46,-758.47 223.38,-752.42 227.46,-758.36 223.54,-764.41"/>
</a>
</g>
<text text-anchor="middle" x="233.85" y="-771.5" font-family="Helvetica,sans-Serif" font-size="10.00" fill="grey"> &#45;key</text>
</g>
<!-- Node4 -->
<g id="Node000004" class="node">
<title>Node4</title>
<g id="a_Node000004"><a xlink:title=" ">
<polygon fill="white" stroke="none" points="267.62,-968.25 183.12,-968.25 183.12,-907.25 267.62,-907.25 267.62,-968.25"/>
<text text-anchor="start" x="187.12" y="-954.75" font-family="Helvetica,sans-Serif" font-size="10.00">std::basic_string&lt;</text>
<text text-anchor="start" x="210" y="-943.5" font-family="Helvetica,sans-Serif" font-size="10.00"> Char &gt;</text>
<text text-anchor="start" x="223.88" y="-928.25" font-family="Helvetica,sans-Serif" font-size="10.00"> </text>
<text text-anchor="start" x="223.88" y="-913" font-family="Helvetica,sans-Serif" font-size="10.00"> </text>
<polygon fill="#666666" stroke="#666666" points="183.12,-939.75 183.12,-939.75 267.62,-939.75 267.62,-939.75 183.12,-939.75"/>
<polygon fill="#666666" stroke="#666666" points="183.12,-924.5 183.12,-924.5 267.62,-924.5 267.62,-924.5 183.12,-924.5"/>
<polygon fill="none" stroke="#666666" points="183.12,-907.25 183.12,-968.25 267.62,-968.25 267.62,-907.25 183.12,-907.25"/>
</a>
</g>
</g>
<!-- Node4&#45;&gt;Node3 -->
<g id="edge3_Node000003_Node000004" class="edge">
<title>Node4&#45;&gt;Node3</title>
<g id="a_edge3_Node000003_Node000004"><a xlink:title=" ">
<path fill="none" stroke="#63b8ff" d="M224.99,-896C224.86,-881.92 224.71,-866.62 224.6,-854.35"/>
<polygon fill="none" stroke="#63b8ff" points="221.49,-895.96 225.08,-905.92 228.49,-895.89 221.49,-895.96"/>
</a>
</g>
</g>
<!-- Node5&#45;&gt;Node2 -->
<g id="edge4_Node000002_Node000005" class="edge">
<title>Node5&#45;&gt;Node2</title>
<g id="a_edge4_Node000002_Node000005"><a xlink:title=" ">
<path fill="none" stroke="#63b8ff" d="M222.27,-323.39C215.33,-317.7 208.42,-311.54 202.38,-305.25 196.6,-299.25 190.94,-292.69 185.51,-285.96"/>
<polygon fill="none" stroke="#63b8ff" points="185.68,-286.17 178.84,-283.89 178.3,-276.7 185.15,-278.98 185.68,-286.17"/>
</a>
</g>
<text text-anchor="middle" x="230.88" y="-295.75" font-family="Helvetica,sans-Serif" font-size="10.00" fill="grey"> +parameters</text>
</g>
<!-- Node5&#45;&gt;Node6 -->
<g id="edge8_Node000006_Node000005" class="edge">
<title>Node5&#45;&gt;Node6</title>
<g id="a_edge8_Node000006_Node000005"><a xlink:title=" ">
<path fill="none" stroke="#63b8ff" d="M258.28,-384.02C256.07,-396.77 253.28,-412.79 250.24,-430.3"/>
<polygon fill="none" stroke="#63b8ff" points="250.24,-430.25 253.16,-436.85 248.19,-442.07 245.28,-435.48 250.24,-430.25"/>
</a>
</g>
<text text-anchor="middle" x="271.18" y="-409.62" font-family="Helvetica,sans-Serif" font-size="10.00" fill="grey"> &#45;values</text>
</g>
<!-- Node13 -->
<g id="Node000013" class="node">
<title>Node13</title>
<g id="a_Node000013"><a xlink:href="structrealization_1_1config_1_1_forcing.html" target="_top" xlink:title="Structure for holding forcing configuration information.">
<polygon fill="white" stroke="none" points="304.12,-268.38 222.62,-268.38 222.62,-161.62 304.12,-161.62 304.12,-268.38"/>
<text text-anchor="start" x="226.62" y="-254.88" font-family="Helvetica,sans-Serif" font-size="10.00">realization::config</text>
<text text-anchor="start" x="245" y="-243.62" font-family="Helvetica,sans-Serif" font-size="10.00">::Forcing</text>
<text text-anchor="start" x="261.88" y="-228.38" font-family="Helvetica,sans-Serif" font-size="10.00"> </text>
<text text-anchor="start" x="232" y="-213.12" font-family="Helvetica,sans-Serif" font-size="10.00">+</text>
<text text-anchor="start" x="247.38" y="-213.12" font-family="Helvetica,sans-Serif" font-size="10.00">Forcing()</text>
<text text-anchor="start" x="232" y="-197.88" font-family="Helvetica,sans-Serif" font-size="10.00">+</text>
<text text-anchor="start" x="247.38" y="-197.88" font-family="Helvetica,sans-Serif" font-size="10.00">Forcing()</text>
<text text-anchor="start" x="232" y="-182.62" font-family="Helvetica,sans-Serif" font-size="10.00">+</text>
<text text-anchor="start" x="247.38" y="-182.62" font-family="Helvetica,sans-Serif" font-size="10.00">has_key()</text>
<text text-anchor="start" x="232" y="-167.38" font-family="Helvetica,sans-Serif" font-size="10.00">+</text>
<text text-anchor="start" x="247.38" y="-167.38" font-family="Helvetica,sans-Serif" font-size="10.00">clone()</text>
<polygon fill="#666666" stroke="#666666" points="222.62,-239.88 222.62,-239.88 304.12,-239.88 304.12,-239.88 222.62,-239.88"/>
<polygon fill="#666666" stroke="#666666" points="222.62,-224.62 222.62,-224.62 304.12,-224.62 304.12,-224.62 222.62,-224.62"/>
<polygon fill="none" stroke="#666666" points="222.62,-161.62 222.62,-268.38 304.12,-268.38 304.12,-161.62 222.62,-161.62"/>
</a>
</g>
</g>
<!-- Node5&#45;&gt;Node13 -->
<g id="edge20_Node000013_Node000005" class="edge">
<title>Node5&#45;&gt;Node13</title>
<g id="a_edge20_Node000013_Node000005"><a xlink:title=" ">
<path fill="none" stroke="#63b8ff" d="M263.38,-323.41C263.38,-310.97 263.38,-295.93 263.38,-281.1"/>
<polygon fill="none" stroke="#63b8ff" points="263.38,-281.09 259.38,-275.09 263.38,-269.09 267.38,-275.09 263.38,-281.09"/>
</a>
</g>
<text text-anchor="middle" x="291.88" y="-295.75" font-family="Helvetica,sans-Serif" font-size="10.00" fill="grey"> +parameters</text>
</g>
<!-- Node6&#45;&gt;Node5 -->
<g id="edge6_Node000005_Node000006" class="edge">
<title>Node6&#45;&gt;Node5</title>
<g id="a_edge6_Node000005_Node000006"><a xlink:title=" ">
<path fill="none" stroke="#63b8ff" d="M181.33,-442.93C182.9,-428.75 186.64,-414.95 193.38,-402.25 196.31,-396.7 200.22,-391.68 204.7,-387.17"/>
<polygon fill="none" stroke="#63b8ff" points="204.81,-387.07 206.71,-380.12 213.87,-379.2 211.96,-386.16 204.81,-387.07"/>
</a>
</g>
<text text-anchor="middle" x="217.38" y="-409.62" font-family="Helvetica,sans-Serif" font-size="10.00" fill="grey"> +elements</text>
</g>
<!-- Node7 -->
<g id="Node000007" class="node">
<title>Node7</title>
<g id="a_Node000007"><a xlink:title=" ">
<polygon fill="white" stroke="none" points="141.88,-860 46.88,-860 46.88,-799 141.88,-799 141.88,-860"/>
<text text-anchor="start" x="50.88" y="-846.5" font-family="Helvetica,sans-Serif" font-size="10.00">std::vector&lt; geojson</text>
<text text-anchor="start" x="56.5" y="-835.25" font-family="Helvetica,sans-Serif" font-size="10.00">::JSONProperty &gt;</text>
<text text-anchor="start" x="92.88" y="-820" font-family="Helvetica,sans-Serif" font-size="10.00"> </text>
<text text-anchor="start" x="92.88" y="-804.75" font-family="Helvetica,sans-Serif" font-size="10.00"> </text>
<polygon fill="#666666" stroke="#666666" points="46.88,-831.5 46.88,-831.5 141.88,-831.5 141.88,-831.5 46.88,-831.5"/>
<polygon fill="#666666" stroke="#666666" points="46.88,-816.25 46.88,-816.25 141.88,-816.25 141.88,-816.25 46.88,-816.25"/>
<polygon fill="none" stroke="#666666" points="46.88,-799 46.88,-860 141.88,-860 141.88,-799 46.88,-799"/>
</a>
</g>
</g>
<!-- Node6&#45;&gt;Node7 -->
<g id="edge10_Node000007_Node000006" class="edge">
<title>Node6&#45;&gt;Node7</title>
<g id="a_edge10_Node000007_Node000006"><a xlink:title=" ">
<path fill="none" stroke="#63b8ff" d="M166.76,-697.26C149.15,-729.19 130.61,-762.81 116.7,-788.03"/>
<polygon fill="none" stroke="#63b8ff" points="116.69,-788.04 117.3,-795.23 110.89,-798.55 110.29,-791.36 116.69,-788.04"/>
</a>
</g>
<text text-anchor="middle" x="149.07" y="-771.5" font-family="Helvetica,sans-Serif" font-size="10.00" fill="grey"> +elements</text>
</g>
<!-- Node7&#45;&gt;Node6 -->
<g id="edge9_Node000006_Node000007" class="edge">
<title>Node7&#45;&gt;Node6</title>
<g id="a_edge9_Node000006_Node000007"><a xlink:title=" ">
<path fill="none" stroke="#63b8ff" d="M59.06,-799.25C52.4,-790.27 48.67,-780.04 52.88,-769.75 73.98,-718.15 118.93,-673.71 157.1,-643"/>
<polygon fill="none" stroke="#63b8ff" points="157,-643.08 159.25,-636.23 166.44,-635.66 164.19,-642.51 157,-643.08"/>
</a>
</g>
<text text-anchor="middle" x="76.12" y="-771.5" font-family="Helvetica,sans-Serif" font-size="10.00" fill="grey"> &#45;value_list</text>
</g>
<!-- Node8 -->
<g id="Node000008" class="node">
<title>Node8</title>
<g id="a_Node000008"><a xlink:title=" ">
<polygon fill="white" stroke="none" points="128.12,-962.62 52.62,-962.62 52.62,-912.88 128.12,-912.88 128.12,-962.62"/>
<text text-anchor="start" x="56.62" y="-949.12" font-family="Helvetica,sans-Serif" font-size="10.00">std::vector&lt; T &gt;</text>
<text text-anchor="start" x="88.88" y="-933.88" font-family="Helvetica,sans-Serif" font-size="10.00"> </text>
<text text-anchor="start" x="88.88" y="-918.62" font-family="Helvetica,sans-Serif" font-size="10.00"> </text>
<polygon fill="#666666" stroke="#666666" points="52.62,-945.38 52.62,-945.38 128.12,-945.38 128.12,-945.38 52.62,-945.38"/>
<polygon fill="#666666" stroke="#666666" points="52.62,-930.12 52.62,-930.12 128.12,-930.12 128.12,-930.12 52.62,-930.12"/>
<polygon fill="none" stroke="#666666" points="52.62,-912.88 52.62,-962.62 128.12,-962.62 128.12,-912.88 52.62,-912.88"/>
</a>
</g>
</g>
<!-- Node8&#45;&gt;Node7 -->
<g id="edge11_Node000007_Node000008" class="edge">
<title>Node8&#45;&gt;Node7</title>
<g id="a_edge11_Node000007_Node000008"><a xlink:title=" ">
<path fill="none" stroke="orange" d="M91.7,-901.6C92.21,-888.11 92.78,-872.86 93.27,-859.96"/>
<polygon fill="orange" stroke="orange" points="88.21,-901.27 91.33,-911.39 95.2,-901.53 88.21,-901.27"/>
</a>
</g>
<text text-anchor="middle" x="152.49" y="-879.75" font-family="Helvetica,sans-Serif" font-size="10.00" fill="grey"> &lt; geojson::JSONProperty &gt;</text>
</g>
<!-- Node8&#45;&gt;Node12 -->
<g id="edge18_Node000012_Node000008" class="edge">
<title>Node8&#45;&gt;Node12</title>
<g id="a_edge18_Node000012_Node000008"><a xlink:title=" ">
<path fill="none" stroke="orange" d="M54.4,-905.04C36.39,-885.61 18.38,-859.03 18.38,-830.5 18.38,-830.5 18.38,-830.5 18.38,-214 18.38,-167.67 32.24,-115.41 42.27,-83.69"/>
<polygon fill="orange" stroke="orange" points="51.79,-907.38 61.28,-912.1 56.8,-902.49 51.79,-907.38"/>
</a>
</g>
<text text-anchor="start" x="18.38" y="-415.25" font-family="Helvetica,sans-Serif" font-size="10.00" fill="grey"> &lt; realization::config</text>
<text text-anchor="middle" x="60.38" y="-404" font-family="Helvetica,sans-Serif" font-size="10.00" fill="grey">::Formulation &gt;</text>
</g>
<!-- Node9 -->
<g id="Node000009" class="node">
<title>Node9</title>
<g id="a_Node000009"><a xlink:title=" ">
<polygon fill="white" stroke="none" points="222.38,-1065.25 208.38,-1065.25 208.38,-1015.5 222.38,-1015.5 222.38,-1065.25"/>
<text text-anchor="start" x="212.38" y="-1051.75" font-family="Helvetica,sans-Serif" font-size="10.00">T</text>
<text text-anchor="start" x="213.88" y="-1036.5" font-family="Helvetica,sans-Serif" font-size="10.00"> </text>
<text text-anchor="start" x="213.88" y="-1021.25" font-family="Helvetica,sans-Serif" font-size="10.00"> </text>
<polygon fill="#666666" stroke="#666666" points="208.38,-1048 208.38,-1048 222.38,-1048 222.38,-1048 208.38,-1048"/>
<polygon fill="#666666" stroke="#666666" points="208.38,-1032.75 208.38,-1032.75 222.38,-1032.75 222.38,-1032.75 208.38,-1032.75"/>
<polygon fill="none" stroke="#666666" points="208.38,-1015.5 208.38,-1065.25 222.38,-1065.25 222.38,-1015.5 208.38,-1015.5"/>
</a>
</g>
</g>
<!-- Node9&#45;&gt;Node8 -->
<g id="edge12_Node000008_Node000009" class="edge">
<title>Node9&#45;&gt;Node8</title>
<g id="a_edge12_Node000008_Node000009"><a xlink:title=" ">
<path fill="none" stroke="#63b8ff" d="M208.65,-1033.96C194.02,-1022.19 158.31,-993.44 129.93,-970.59"/>
<polygon fill="none" stroke="#63b8ff" points="129.91,-970.58 122.73,-969.93 120.56,-963.05 127.74,-963.7 129.91,-970.58"/>
</a>
</g>
<text text-anchor="middle" x="184.36" y="-988" font-family="Helvetica,sans-Serif" font-size="10.00" fill="grey"> +elements</text>
</g>
<!-- Node10 -->
<g id="Node000010" class="node">
<title>Node10</title>
<g id="a_Node000010"><a xlink:title=" ">
<polygon fill="white" stroke="none" points="384,-962.62 304.75,-962.62 304.75,-912.88 384,-912.88 384,-962.62"/>
<text text-anchor="start" x="308.75" y="-949.12" font-family="Helvetica,sans-Serif" font-size="10.00">std::map&lt; K, T &gt;</text>
<text text-anchor="start" x="342.88" y="-933.88" font-family="Helvetica,sans-Serif" font-size="10.00"> </text>
<text text-anchor="start" x="342.88" y="-918.62" font-family="Helvetica,sans-Serif" font-size="10.00"> </text>
<polygon fill="#666666" stroke="#666666" points="304.75,-945.38 304.75,-945.38 384,-945.38 384,-945.38 304.75,-945.38"/>
<polygon fill="#666666" stroke="#666666" points="304.75,-930.12 304.75,-930.12 384,-930.12 384,-930.12 304.75,-930.12"/>
<polygon fill="none" stroke="#666666" points="304.75,-912.88 304.75,-962.62 384,-962.62 384,-912.88 304.75,-912.88"/>
</a>
</g>
</g>
<!-- Node9&#45;&gt;Node10 -->
<g id="edge15_Node000010_Node000009" class="edge">
<title>Node9&#45;&gt;Node10</title>
<g id="a_edge15_Node000010_Node000009"><a xlink:title=" ">
<path fill="none" stroke="#63b8ff" d="M222.31,-1033.96C237.48,-1022.13 274.59,-993.19 303.94,-970.29"/>
<polygon fill="none" stroke="#63b8ff" points="303.77,-970.42 306.04,-963.58 313.24,-963.04 310.97,-969.88 303.77,-970.42"/>
</a>
</g>
<text text-anchor="middle" x="303.88" y="-988" font-family="Helvetica,sans-Serif" font-size="10.00" fill="grey"> +elements</text>
</g>
<!-- Node10&#45;&gt;Node5 -->
<g id="edge13_Node000005_Node000010" class="edge">
<title>Node10&#45;&gt;Node5</title>
<g id="a_edge13_Node000005_Node000010"><a xlink:title=" ">
<path fill="none" stroke="orange" d="M351.99,-901.86C368.44,-819.06 401.16,-605.41 341.38,-442.75 333.06,-420.14 315.84,-399.68 299.69,-384.18"/>
<polygon fill="orange" stroke="orange" points="348.57,-901.13 350,-911.63 355.43,-902.53 348.57,-901.13"/>
</a>
</g>
<text text-anchor="middle" x="435.37" y="-771.5" font-family="Helvetica,sans-Serif" font-size="10.00" fill="grey"> &lt; std::string, JSONProperty &gt;</text>
</g>
<!-- Node11 -->
<g id="Node000011" class="node">
<title>Node11</title>
<g id="a_Node000011"><a xlink:title=" ">
<polygon fill="white" stroke="none" points="351.75,-1065.25 337,-1065.25 337,-1015.5 351.75,-1015.5 351.75,-1065.25"/>
<text text-anchor="start" x="341" y="-1051.75" font-family="Helvetica,sans-Serif" font-size="10.00">K</text>
<text text-anchor="start" x="342.88" y="-1036.5" font-family="Helvetica,sans-Serif" font-size="10.00"> </text>
<text text-anchor="start" x="342.88" y="-1021.25" font-family="Helvetica,sans-Serif" font-size="10.00"> </text>
<polygon fill="#666666" stroke="#666666" points="337,-1048 337,-1048 351.75,-1048 351.75,-1048 337,-1048"/>
<polygon fill="#666666" stroke="#666666" points="337,-1032.75 337,-1032.75 351.75,-1032.75 351.75,-1032.75 337,-1032.75"/>
<polygon fill="none" stroke="#666666" points="337,-1015.5 337,-1065.25 351.75,-1065.25 351.75,-1015.5 337,-1015.5"/>
</a>
</g>
</g>
<!-- Node11&#45;&gt;Node10 -->
<g id="edge14_Node000010_Node000011" class="edge">
<title>Node11&#45;&gt;Node10</title>
<g id="a_edge14_Node000010_Node000011"><a xlink:title=" ">
<path fill="none" stroke="#63b8ff" d="M344.38,-1015.53C344.38,-1003.5 344.38,-988.65 344.38,-975.22"/>
<polygon fill="none" stroke="#63b8ff" points="344.38,-975.33 340.38,-969.33 344.38,-963.33 348.38,-969.33 344.38,-975.33"/>
</a>
</g>
<text text-anchor="middle" x="358.62" y="-988" font-family="Helvetica,sans-Serif" font-size="10.00" fill="grey"> +keys</text>
</g>
<!-- Node12&#45;&gt;Node2 -->
<g id="edge16_Node000002_Node000012" class="edge">
<title>Node12&#45;&gt;Node2</title>
<g id="a_edge16_Node000002_Node000012"><a xlink:title=" ">
<path fill="none" stroke="#63b8ff" d="M74.83,-83.6C83.73,-95.92 93.66,-110.64 101.38,-124.75 104.47,-130.4 107.46,-136.36 110.32,-142.42"/>
<polygon fill="none" stroke="#63b8ff" points="110.3,-142.37 116.43,-146.17 115.27,-153.29 109.14,-149.49 110.3,-142.37"/>
</a>
</g>
<text text-anchor="middle" x="124.98" y="-126.5" font-family="Helvetica,sans-Serif" font-size="10.00" fill="grey"> +nested</text>
</g>
<!-- Node13&#45;&gt;Node1 -->
<g id="edge19_Node000001_Node000013" class="edge">
<title>Node13&#45;&gt;Node1</title>
<g id="a_edge19_Node000001_Node000013"><a xlink:title=" ">
<path fill="none" stroke="#63b8ff" d="M250.65,-162.07C247.63,-149.82 244.41,-136.82 241.38,-124.75 240.91,-122.92 240.45,-121.05 239.97,-119.18"/>
<polygon fill="none" stroke="#63b8ff" points="239.96,-119.13 234.61,-114.3 237.02,-107.5 242.37,-112.34 239.96,-119.13"/>
</a>
</g>
<text text-anchor="middle" x="262.55" y="-126.5" font-family="Helvetica,sans-Serif" font-size="10.00" fill="grey"> +forcing</text>
</g>
</g>
</svg>

<g id="navigator" transform="translate(0 0)" fill="#404254">
  <rect fill="#f2f5e9" fill-opacity="0.5" stroke="#606060" stroke-width=".5" x="0" y="0" width="60" height="60"/>
  <use id="zoomplus" xlink:href="#zoomPlus" x="17" y="9" onmousedown="handleZoom(evt,'in')"/>
  <use id="zoomminus" xlink:href="#zoomMin" x="42" y="9" onmousedown="handleZoom(evt,'out')"/>
  <use id="reset" xlink:href="#resetDef" x="30" y="36" onmousedown="handleReset()"/>
   <use id="arrowup" xlink:href="#arrowUp" x="0" y="0" onmousedown="handlePan(0,-1)"/>
  <use id="arrowright" xlink:href="#arrowRight" x="0" y="0" onmousedown="handlePan(1,0)"/>
  <use id="arrowdown" xlink:href="#arrowDown" x="0" y="0" onmousedown="handlePan(0,1)"/>
  <use id="arrowleft" xlink:href="#arrowLeft" x="0" y="0" onmousedown="handlePan(-1,0)"/>
</g>
<svg viewBox="0 0 15 15" width="100%" height="30px" preserveAspectRatio="xMaxYMin meet">
 <g id="arrow_out" transform="scale(0.3 0.3)">
  <a xlink:href="structrealization_1_1config_1_1_config__coll__graph_org.svg" target="_base">
   <rect id="button" ry="5" rx="5" y="6" x="6" height="38" width="38"
        fill="#f2f5e9" fill-opacity="0.5" stroke="#606060" stroke-width="1.0"/>
   <path id="arrow"
     d="M 11.500037,31.436501 C 11.940474,20.09759 22.043105,11.32322 32.158766,21.979434 L 37.068811,17.246167 C 37.068811,17.246167 37.088388,32 37.088388,32 L 22.160133,31.978069 C 22.160133,31.978069 26.997745,27.140456 26.997745,27.140456 C 18.528582,18.264221 13.291696,25.230495 11.500037,31.436501 z"
     style="fill:#404040;"/>
  </a>
 </g>
</svg>

<style type='text/css'>
<![CDATA[
[data-mouse-over-selected='false'] { opacity: 0.7; }
[data-mouse-over-selected='true']  { opacity: 1.0; }
]]>
</style>
<script type="application/ecmascript"><![CDATA[
document.addEventListener('DOMContentLoaded', (event) => {
  highlightEdges();
  highlightAdjacentNodes();
});
]]></script>
</svg>
