<?xml version="1.0" encoding="UTF-8" standalone="no"?>
<!DOCTYPE svg PUBLIC "-//W3C//DTD SVG 1.1//EN"
 "http://www.w3.org/Graphics/SVG/1.1/DTD/svg11.dtd">
<!-- Generated by graphviz version 12.2.0 (20241103.1931)
 -->
<!-- Title: realization::config::Layer Pages: 1 -->
<svg width="689pt" height="1296pt"
 viewBox="0.00 0.00 689.37 1296.25" xmlns="http://www.w3.org/2000/svg" xmlns:xlink="http://www.w3.org/1999/xlink">
<g id="graph0" class="graph" transform="scale(1 1) rotate(0) translate(4 1292.25)">
<title>realization::config::Layer</title>
<!-- Node1 -->
<g id="Node000001" class="node">
<title>Node1</title>
<g id="a_Node000001"><a xlink:title="Layer configuration information.">
<polygon fill="#999999" stroke="none" points="106.29,-122 13.29,-122 13.29,0 106.29,0 106.29,-122"/>
<text text-anchor="start" x="23.04" y="-108.5" font-family="Helvetica,sans-Serif" font-size="10.00">realization::config</text>
<text text-anchor="start" x="45.54" y="-97.25" font-family="Helvetica,sans-Serif" font-size="10.00">::Layer</text>
<text text-anchor="start" x="58.29" y="-82" font-family="Helvetica,sans-Serif" font-size="10.00"> </text>
<text text-anchor="start" x="17.29" y="-66.75" font-family="Helvetica,sans-Serif" font-size="10.00">+</text>
<text text-anchor="start" x="27.29" y="-66.75" font-family="Helvetica,sans-Serif" font-size="10.00">Layer()</text>
<text text-anchor="start" x="17.29" y="-51.5" font-family="Helvetica,sans-Serif" font-size="10.00">+</text>
<text text-anchor="start" x="27.29" y="-51.5" font-family="Helvetica,sans-Serif" font-size="10.00">Layer()</text>
<text text-anchor="start" x="17.29" y="-36.25" font-family="Helvetica,sans-Serif" font-size="10.00">+</text>
<text text-anchor="start" x="27.29" y="-36.25" font-family="Helvetica,sans-Serif" font-size="10.00">get_descriptor()</text>
<text text-anchor="start" x="17.29" y="-21" font-family="Helvetica,sans-Serif" font-size="10.00">+</text>
<text text-anchor="start" x="27.29" y="-21" font-family="Helvetica,sans-Serif" font-size="10.00">has_formulation()</text>
<text text-anchor="start" x="17.29" y="-5.75" font-family="Helvetica,sans-Serif" font-size="10.00">+</text>
<text text-anchor="start" x="27.29" y="-5.75" font-family="Helvetica,sans-Serif" font-size="10.00">get_domain()</text>
<polygon fill="#666666" stroke="#666666" points="13.29,-93.5 13.29,-93.5 106.29,-93.5 106.29,-93.5 13.29,-93.5"/>
<polygon fill="#666666" stroke="#666666" points="13.29,-78.25 13.29,-78.25 106.29,-78.25 106.29,-78.25 13.29,-78.25"/>
<polygon fill="none" stroke="#666666" points="13.29,0 13.29,-122 106.29,-122 106.29,0 13.29,0"/>
</a>
</g>
</g>
<!-- Node2 -->
<g id="Node000002" class="node">
<title>Node2</title>
<g id="a_Node000002"><a xlink:href="structrealization_1_1config_1_1_config.html" target="_top" xlink:title="Structure representing the configuration for a general Formulation.">
<polygon fill="white" stroke="none" points="183.29,-276 90.29,-276 90.29,-169.25 183.29,-169.25 183.29,-276"/>
<text text-anchor="start" x="100.04" y="-262.5" font-family="Helvetica,sans-Serif" font-size="10.00">realization::config</text>
<text text-anchor="start" x="121.04" y="-251.25" font-family="Helvetica,sans-Serif" font-size="10.00">::Config</text>
<text text-anchor="start" x="135.29" y="-236" font-family="Helvetica,sans-Serif" font-size="10.00"> </text>
<text text-anchor="start" x="94.29" y="-220.75" font-family="Helvetica,sans-Serif" font-size="10.00">+</text>
<text text-anchor="start" x="104.29" y="-220.75" font-family="Helvetica,sans-Serif" font-size="10.00">Config()</text>
<text text-anchor="start" x="94.29" y="-205.5" font-family="Helvetica,sans-Serif" font-size="10.00">+</text>
<text text-anchor="start" x="104.29" y="-205.5" font-family="Helvetica,sans-Serif" font-size="10.00">Config()</text>
<text text-anchor="start" x="94.29" y="-190.25" font-family="Helvetica,sans-Serif" font-size="10.00">+</text>
<text text-anchor="start" x="104.29" y="-190.25" font-family="Helvetica,sans-Serif" font-size="10.00">Config()</text>
<text text-anchor="start" x="94.29" y="-175" font-family="Helvetica,sans-Serif" font-size="10.00">+</text>
<text text-anchor="start" x="104.29" y="-175" font-family="Helvetica,sans-Serif" font-size="10.00">has_formulation()</text>
<polygon fill="#666666" stroke="#666666" points="90.29,-247.5 90.29,-247.5 183.29,-247.5 183.29,-247.5 90.29,-247.5"/>
<polygon fill="#666666" stroke="#666666" points="90.29,-232.25 90.29,-232.25 183.29,-232.25 183.29,-232.25 90.29,-232.25"/>
<polygon fill="none" stroke="#666666" points="90.29,-169.25 90.29,-276 183.29,-276 183.29,-169.25 90.29,-169.25"/>
</a>
</g>
</g>
<!-- Node2&#45;&gt;Node1 -->
<g id="edge1_Node000001_Node000002" class="edge">
<title>Node2&#45;&gt;Node1</title>
<g id="a_edge1_Node000001_Node000002"><a xlink:title=" ">
<path fill="none" stroke="#63b8ff" d="M111.57,-169.36C106.02,-157.85 100.05,-145.47 94.21,-133.36"/>
<polygon fill="none" stroke="#63b8ff" points="94.27,-133.48 88.06,-129.81 89.05,-122.67 95.26,-126.34 94.27,-133.48"/>
</a>
</g>
<text text-anchor="middle" x="128.72" y="-141.75" font-family="Helvetica,sans-Serif" font-size="10.00" fill="grey"> +formulation</text>
</g>
<!-- Node3 -->
<g id="Node000003" class="node">
<title>Node3</title>
<g id="a_Node000003"><a xlink:href="structrealization_1_1config_1_1_formulation.html" target="_top" xlink:title=" ">
<polygon fill="white" stroke="none" points="307.54,-445.25 226.04,-445.25 226.04,-323.25 307.54,-323.25 307.54,-445.25"/>
<text text-anchor="start" x="230.04" y="-431.75" font-family="Helvetica,sans-Serif" font-size="10.00">realization::config</text>
<text text-anchor="start" x="239.04" y="-420.5" font-family="Helvetica,sans-Serif" font-size="10.00">::Formulation</text>
<text text-anchor="start" x="265.29" y="-405.25" font-family="Helvetica,sans-Serif" font-size="10.00"> </text>
<text text-anchor="start" x="230.91" y="-390" font-family="Helvetica,sans-Serif" font-size="10.00">+</text>
<text text-anchor="start" x="241.79" y="-390" font-family="Helvetica,sans-Serif" font-size="10.00">Formulation()</text>
<text text-anchor="start" x="230.91" y="-374.75" font-family="Helvetica,sans-Serif" font-size="10.00">+</text>
<text text-anchor="start" x="241.79" y="-374.75" font-family="Helvetica,sans-Serif" font-size="10.00">Formulation()</text>
<text text-anchor="start" x="230.91" y="-359.5" font-family="Helvetica,sans-Serif" font-size="10.00">+</text>
<text text-anchor="start" x="241.79" y="-359.5" font-family="Helvetica,sans-Serif" font-size="10.00">Formulation()</text>
<text text-anchor="start" x="230.91" y="-344.25" font-family="Helvetica,sans-Serif" font-size="10.00">+</text>
<text text-anchor="start" x="241.79" y="-344.25" font-family="Helvetica,sans-Serif" font-size="10.00">clone()</text>
<text text-anchor="start" x="230.91" y="-329" font-family="Helvetica,sans-Serif" font-size="10.00">+</text>
<text text-anchor="start" x="241.79" y="-329" font-family="Helvetica,sans-Serif" font-size="10.00">link_external()</text>
<polygon fill="#666666" stroke="#666666" points="226.04,-416.75 226.04,-416.75 307.54,-416.75 307.54,-416.75 226.04,-416.75"/>
<polygon fill="#666666" stroke="#666666" points="226.04,-401.5 226.04,-401.5 307.54,-401.5 307.54,-401.5 226.04,-401.5"/>
<polygon fill="none" stroke="#666666" points="226.04,-323.25 226.04,-445.25 307.54,-445.25 307.54,-323.25 226.04,-323.25"/>
</a>
</g>
</g>
<!-- Node3&#45;&gt;Node2 -->
<g id="edge2_Node000002_Node000003" class="edge">
<title>Node3&#45;&gt;Node2</title>
<g id="a_edge2_Node000002_Node000003"><a xlink:title=" ">
<path fill="none" stroke="#63b8ff" d="M226.37,-333.62C214.02,-318.46 200.29,-301.6 187.36,-285.72"/>
<polygon fill="none" stroke="#63b8ff" points="187.58,-285.99 180.69,-283.87 180,-276.69 186.89,-278.81 187.58,-285.99"/>
</a>
</g>
<text text-anchor="middle" x="229.91" y="-295.75" font-family="Helvetica,sans-Serif" font-size="10.00" fill="grey"> +formulation</text>
</g>
<!-- Node13 -->
<g id="Node000013" class="node">
<title>Node13</title>
<g id="a_Node000013"><a xlink:title=" ">
<polygon fill="white" stroke="none" points="390.16,-253.12 285.41,-253.12 285.41,-192.12 390.16,-192.12 390.16,-253.12"/>
<text text-anchor="start" x="289.41" y="-239.62" font-family="Helvetica,sans-Serif" font-size="10.00">std::vector&lt; realization</text>
<text text-anchor="start" x="290.91" y="-228.38" font-family="Helvetica,sans-Serif" font-size="10.00">::config::Formulation &gt;</text>
<text text-anchor="start" x="336.29" y="-213.12" font-family="Helvetica,sans-Serif" font-size="10.00"> </text>
<text text-anchor="start" x="336.29" y="-197.88" font-family="Helvetica,sans-Serif" font-size="10.00"> </text>
<polygon fill="#666666" stroke="#666666" points="285.41,-224.62 285.41,-224.62 390.16,-224.62 390.16,-224.62 285.41,-224.62"/>
<polygon fill="#666666" stroke="#666666" points="285.41,-209.38 285.41,-209.38 390.16,-209.38 390.16,-209.38 285.41,-209.38"/>
<polygon fill="none" stroke="#666666" points="285.41,-192.12 285.41,-253.12 390.16,-253.12 390.16,-192.12 285.41,-192.12"/>
</a>
</g>
</g>
<!-- Node3&#45;&gt;Node13 -->
<g id="edge18_Node000013_Node000003" class="edge">
<title>Node3&#45;&gt;Node13</title>
<g id="a_edge18_Node000013_Node000003"><a xlink:title=" ">
<path fill="none" stroke="#63b8ff" d="M306.86,-323.32C310.12,-317.34 313.16,-311.26 315.79,-305.25 321.25,-292.74 325.65,-278.55 329.04,-265.55"/>
<polygon fill="none" stroke="#63b8ff" points="329.03,-265.58 326.56,-258.81 331.87,-253.93 334.34,-260.7 329.03,-265.58"/>
</a>
</g>
<text text-anchor="middle" x="344.06" y="-295.75" font-family="Helvetica,sans-Serif" font-size="10.00" fill="grey"> +elements</text>
</g>
<!-- Node4 -->
<g id="Node000004" class="node">
<title>Node4</title>
<g id="a_Node000004"><a xlink:title=" ">
<polygon fill="white" stroke="none" points="174.79,-1077.38 124.79,-1077.38 124.79,-1027.62 174.79,-1027.62 174.79,-1077.38"/>
<text text-anchor="start" x="128.79" y="-1063.88" font-family="Helvetica,sans-Serif" font-size="10.00">std::string</text>
<text text-anchor="start" x="148.29" y="-1048.62" font-family="Helvetica,sans-Serif" font-size="10.00"> </text>
<text text-anchor="start" x="148.29" y="-1033.38" font-family="Helvetica,sans-Serif" font-size="10.00"> </text>
<polygon fill="#666666" stroke="#666666" points="124.79,-1060.12 124.79,-1060.12 174.79,-1060.12 174.79,-1060.12 124.79,-1060.12"/>
<polygon fill="#666666" stroke="#666666" points="124.79,-1044.88 124.79,-1044.88 174.79,-1044.88 174.79,-1044.88 124.79,-1044.88"/>
<polygon fill="none" stroke="#666666" points="124.79,-1027.62 124.79,-1077.38 174.79,-1077.38 174.79,-1027.62 124.79,-1027.62"/>
</a>
</g>
</g>
<!-- Node4&#45;&gt;Node1 -->
<g id="edge22_Node000001_Node000004" class="edge">
<title>Node4&#45;&gt;Node1</title>
<g id="a_edge22_Node000001_Node000004"><a xlink:title=" ">
<path fill="none" stroke="#63b8ff" d="M124.85,-1044.56C102.26,-1037.32 69.03,-1024.15 45.79,-1004 -20.73,-946.33 5.79,-898.04 5.79,-810 5.79,-810 5.79,-810 5.79,-221.62 5.79,-191.94 14.27,-160.71 24.51,-133.83"/>
<polygon fill="none" stroke="#63b8ff" points="24.53,-133.78 23.04,-126.73 28.98,-122.64 30.47,-129.69 24.53,-133.78"/>
</a>
</g>
<text text-anchor="middle" x="24.16" y="-465" font-family="Helvetica,sans-Serif" font-size="10.00" fill="grey"> &#45;domain</text>
</g>
<!-- Node4&#45;&gt;Node3 -->
<g id="edge3_Node000003_Node000004" class="edge">
<title>Node4&#45;&gt;Node3</title>
<g id="a_edge3_Node000003_Node000004"><a xlink:title=" ">
<path fill="none" stroke="#63b8ff" d="M148.56,-1027.93C143.94,-930.54 130.59,-560.09 189.79,-463.25 195.96,-453.16 202.95,-454 216.31,-444.37"/>
<polygon fill="none" stroke="#63b8ff" points="216.11,-444.53 218.19,-437.63 225.36,-436.89 223.28,-443.79 216.11,-444.53"/>
</a>
</g>
<text text-anchor="middle" x="171.72" y="-600.12" font-family="Helvetica,sans-Serif" font-size="10.00" fill="grey"> +type</text>
</g>
<!-- Node6 -->
<g id="Node000006" class="node">
<title>Node6</title>
<g id="a_Node000006"><a xlink:title=" ">
<polygon fill="white" stroke="none" points="307.79,-553.5 209.79,-553.5 209.79,-492.5 307.79,-492.5 307.79,-553.5"/>
<text text-anchor="start" x="213.79" y="-540" font-family="Helvetica,sans-Serif" font-size="10.00">std::map&lt; std::string,</text>
<text text-anchor="start" x="222.04" y="-528.75" font-family="Helvetica,sans-Serif" font-size="10.00"> JSONProperty &gt;</text>
<text text-anchor="start" x="257.29" y="-513.5" font-family="Helvetica,sans-Serif" font-size="10.00"> </text>
<text text-anchor="start" x="257.29" y="-498.25" font-family="Helvetica,sans-Serif" font-size="10.00"> </text>
<polygon fill="#666666" stroke="#666666" points="209.79,-525 209.79,-525 307.79,-525 307.79,-525 209.79,-525"/>
<polygon fill="#666666" stroke="#666666" points="209.79,-509.75 209.79,-509.75 307.79,-509.75 307.79,-509.75 209.79,-509.75"/>
<polygon fill="none" stroke="#666666" points="209.79,-492.5 209.79,-553.5 307.79,-553.5 307.79,-492.5 209.79,-492.5"/>
</a>
</g>
</g>
<!-- Node4&#45;&gt;Node6 -->
<g id="edge6_Node000006_Node000004" class="edge">
<title>Node4&#45;&gt;Node6</title>
<g id="a_edge6_Node000006_Node000004"><a xlink:title=" ">
<path fill="none" stroke="#63b8ff" d="M157.57,-1028.02C159.86,-1020.43 162.17,-1011.92 163.79,-1004 195.01,-850.78 164.77,-805.8 204.29,-654.5 212.37,-623.57 226.32,-590.35 238.09,-565.16"/>
<polygon fill="none" stroke="#63b8ff" points="238.1,-565.14 237.08,-558 243.27,-554.31 244.3,-561.44 238.1,-565.14"/>
</a>
</g>
<text text-anchor="middle" x="218.54" y="-805.12" font-family="Helvetica,sans-Serif" font-size="10.00" fill="grey"> +keys</text>
</g>
<!-- Node7 -->
<g id="Node000007" class="node">
<title>Node7</title>
<g id="a_Node000007"><a xlink:href="classgeojson_1_1_j_s_o_n_property.html" target="_top" xlink:title="@TODO: Convert JSONProperty into a variant of the supported types">
<polygon fill="white" stroke="none" points="351.41,-963.5 242.16,-963.5 242.16,-654.5 351.41,-654.5 351.41,-963.5"/>
<text text-anchor="start" x="246.16" y="-950" font-family="Helvetica,sans-Serif" font-size="10.00">geojson::JSONProperty</text>
<text text-anchor="start" x="251.91" y="-934.75" font-family="Helvetica,sans-Serif" font-size="10.00">&#45;</text>
<text text-anchor="start" x="264.66" y="-934.75" font-family="Helvetica,sans-Serif" font-size="10.00">type</text>
<text text-anchor="start" x="251.91" y="-919.5" font-family="Helvetica,sans-Serif" font-size="10.00">&#45;</text>
<text text-anchor="start" x="264.66" y="-919.5" font-family="Helvetica,sans-Serif" font-size="10.00">data</text>
<text text-anchor="start" x="250.41" y="-904.25" font-family="Helvetica,sans-Serif" font-size="10.00">+</text>
<text text-anchor="start" x="264.66" y="-904.25" font-family="Helvetica,sans-Serif" font-size="10.00">JSONProperty()</text>
<text text-anchor="start" x="250.41" y="-889" font-family="Helvetica,sans-Serif" font-size="10.00">+</text>
<text text-anchor="start" x="264.66" y="-889" font-family="Helvetica,sans-Serif" font-size="10.00">JSONProperty()</text>
<text text-anchor="start" x="250.41" y="-873.75" font-family="Helvetica,sans-Serif" font-size="10.00">+</text>
<text text-anchor="start" x="264.66" y="-873.75" font-family="Helvetica,sans-Serif" font-size="10.00">JSONProperty()</text>
<text text-anchor="start" x="250.41" y="-858.5" font-family="Helvetica,sans-Serif" font-size="10.00">+</text>
<text text-anchor="start" x="264.66" y="-858.5" font-family="Helvetica,sans-Serif" font-size="10.00">JSONProperty()</text>
<text text-anchor="start" x="250.41" y="-843.25" font-family="Helvetica,sans-Serif" font-size="10.00">+</text>
<text text-anchor="start" x="264.66" y="-843.25" font-family="Helvetica,sans-Serif" font-size="10.00">JSONProperty()</text>
<text text-anchor="start" x="250.41" y="-828" font-family="Helvetica,sans-Serif" font-size="10.00">+</text>
<text text-anchor="start" x="264.66" y="-828" font-family="Helvetica,sans-Serif" font-size="10.00">JSONProperty()</text>
<text text-anchor="start" x="250.41" y="-812.75" font-family="Helvetica,sans-Serif" font-size="10.00">+</text>
<text text-anchor="start" x="264.66" y="-812.75" font-family="Helvetica,sans-Serif" font-size="10.00">JSONProperty()</text>
<text text-anchor="start" x="250.41" y="-797.5" font-family="Helvetica,sans-Serif" font-size="10.00">+</text>
<text text-anchor="start" x="264.66" y="-797.5" font-family="Helvetica,sans-Serif" font-size="10.00">JSONProperty()</text>
<text text-anchor="start" x="250.41" y="-782.25" font-family="Helvetica,sans-Serif" font-size="10.00">+</text>
<text text-anchor="start" x="264.66" y="-782.25" font-family="Helvetica,sans-Serif" font-size="10.00">JSONProperty()</text>
<text text-anchor="start" x="250.41" y="-767" font-family="Helvetica,sans-Serif" font-size="10.00">+</text>
<text text-anchor="start" x="264.66" y="-767" font-family="Helvetica,sans-Serif" font-size="10.00">JSONProperty()</text>
<text text-anchor="start" x="250.41" y="-751.75" font-family="Helvetica,sans-Serif" font-size="10.00">+</text>
<text text-anchor="start" x="264.66" y="-751.75" font-family="Helvetica,sans-Serif" font-size="10.00">JSONProperty()</text>
<text text-anchor="start" x="250.41" y="-736.5" font-family="Helvetica,sans-Serif" font-size="10.00">+</text>
<text text-anchor="start" x="264.66" y="-736.5" font-family="Helvetica,sans-Serif" font-size="10.00">JSONProperty()</text>
<text text-anchor="start" x="250.41" y="-721.25" font-family="Helvetica,sans-Serif" font-size="10.00">+</text>
<text text-anchor="start" x="264.66" y="-721.25" font-family="Helvetica,sans-Serif" font-size="10.00">~JSONProperty()</text>
<text text-anchor="start" x="250.41" y="-706" font-family="Helvetica,sans-Serif" font-size="10.00">+</text>
<text text-anchor="start" x="264.66" y="-706" font-family="Helvetica,sans-Serif" font-size="10.00">JSONProperty()</text>
<text text-anchor="start" x="250.41" y="-690.75" font-family="Helvetica,sans-Serif" font-size="10.00">+</text>
<text text-anchor="start" x="264.66" y="-690.75" font-family="Helvetica,sans-Serif" font-size="10.00">JSONProperty()</text>
<text text-anchor="start" x="264.66" y="-675.5" font-family="Helvetica,sans-Serif" font-size="10.00">and 18 more...</text>
<text text-anchor="start" x="250.41" y="-660.25" font-family="Helvetica,sans-Serif" font-size="10.00">+</text>
<text text-anchor="start" x="264.66" y="-660.25" font-family="Helvetica,sans-Serif" font-size="10.00">print_property()</text>
<polygon fill="#666666" stroke="#666666" points="242.16,-946.25 242.16,-946.25 351.41,-946.25 351.41,-946.25 242.16,-946.25"/>
<polygon fill="#666666" stroke="#666666" points="242.16,-915.75 242.16,-915.75 262.66,-915.75 262.66,-915.75 242.16,-915.75"/>
<polygon fill="#666666" stroke="#666666" points="262.66,-915.75 262.66,-915.75 351.41,-915.75 351.41,-915.75 262.66,-915.75"/>
<polygon fill="none" stroke="#666666" points="242.16,-654.5 242.16,-963.5 351.41,-963.5 351.41,-654.5 242.16,-654.5"/>
</a>
</g>
</g>
<!-- Node4&#45;&gt;Node7 -->
<g id="edge8_Node000007_Node000004" class="edge">
<title>Node4&#45;&gt;Node7</title>
<g id="a_edge8_Node000007_Node000004"><a xlink:title=" ">
<path fill="none" stroke="#63b8ff" d="M174.63,-1034.13C185.37,-1025.83 197.56,-1015.26 206.79,-1004 217.49,-990.95 227.23,-976.41 236.01,-961.33"/>
<polygon fill="none" stroke="#63b8ff" points="235.91,-961.51 235.37,-954.32 241.8,-951.05 242.34,-958.24 235.91,-961.51"/>
</a>
</g>
<text text-anchor="middle" x="230.79" y="-988.88" font-family="Helvetica,sans-Serif" font-size="10.00" fill="grey"> &#45;key</text>
</g>
<!-- Node15 -->
<g id="Node000015" class="node">
<title>Node15</title>
<g id="a_Node000015"><a xlink:href="structngen_1_1_layer_description.html" target="_top" xlink:title="A simple structure to hold meta data related to a computational layer.">
<polygon fill="white" stroke="none" points="126.91,-636.5 20.66,-636.5 20.66,-571.5 126.91,-571.5 126.91,-636.5"/>
<text text-anchor="start" x="24.66" y="-623" font-family="Helvetica,sans-Serif" font-size="10.00">ngen::LayerDescription</text>
<text text-anchor="start" x="36.04" y="-607.75" font-family="Helvetica,sans-Serif" font-size="10.00">+</text>
<text text-anchor="start" x="57.41" y="-607.75" font-family="Helvetica,sans-Serif" font-size="10.00">id</text>
<text text-anchor="start" x="36.04" y="-592.5" font-family="Helvetica,sans-Serif" font-size="10.00">+</text>
<text text-anchor="start" x="57.41" y="-592.5" font-family="Helvetica,sans-Serif" font-size="10.00">time_step</text>
<text text-anchor="start" x="72.29" y="-577.25" font-family="Helvetica,sans-Serif" font-size="10.00"> </text>
<polygon fill="#666666" stroke="#666666" points="20.66,-619.25 20.66,-619.25 126.91,-619.25 126.91,-619.25 20.66,-619.25"/>
<polygon fill="#666666" stroke="#666666" points="20.66,-588.75 20.66,-588.75 55.41,-588.75 55.41,-588.75 20.66,-588.75"/>
<polygon fill="#666666" stroke="#666666" points="55.41,-588.75 55.41,-588.75 126.91,-588.75 126.91,-588.75 55.41,-588.75"/>
<polygon fill="none" stroke="#666666" points="20.66,-571.5 20.66,-636.5 126.91,-636.5 126.91,-571.5 20.66,-571.5"/>
</a>
</g>
</g>
<!-- Node4&#45;&gt;Node15 -->
<g id="edge24_Node000015_Node000004" class="edge">
<title>Node4&#45;&gt;Node15</title>
<g id="a_edge24_Node000015_Node000004"><a xlink:title=" ">
<path fill="none" stroke="#63b8ff" d="M124.85,-1045.78C103.67,-1039.46 74.57,-1026.98 60.79,-1004 -6.92,-891.12 32.99,-726.11 58.1,-648.46"/>
<polygon fill="none" stroke="#63b8ff" points="58.07,-648.57 56.17,-641.61 61.86,-637.18 63.76,-644.14 58.07,-648.57"/>
</a>
</g>
<text text-anchor="middle" x="98.29" y="-994.5" font-family="Helvetica,sans-Serif" font-size="10.00" fill="grey"> +name</text>
<text text-anchor="middle" x="98.29" y="-983.25" font-family="Helvetica,sans-Serif" font-size="10.00" fill="grey">+time_step_units</text>
</g>
<!-- Node5 -->
<g id="Node000005" class="node">
<title>Node5</title>
<g id="a_Node000005"><a xlink:title=" ">
<polygon fill="white" stroke="none" points="192.04,-1191.25 107.54,-1191.25 107.54,-1130.25 192.04,-1130.25 192.04,-1191.25"/>
<text text-anchor="start" x="111.54" y="-1177.75" font-family="Helvetica,sans-Serif" font-size="10.00">std::basic_string&lt;</text>
<text text-anchor="start" x="134.41" y="-1166.5" font-family="Helvetica,sans-Serif" font-size="10.00"> Char &gt;</text>
<text text-anchor="start" x="148.29" y="-1151.25" font-family="Helvetica,sans-Serif" font-size="10.00"> </text>
<text text-anchor="start" x="148.29" y="-1136" font-family="Helvetica,sans-Serif" font-size="10.00"> </text>
<polygon fill="#666666" stroke="#666666" points="107.54,-1162.75 107.54,-1162.75 192.04,-1162.75 192.04,-1162.75 107.54,-1162.75"/>
<polygon fill="#666666" stroke="#666666" points="107.54,-1147.5 107.54,-1147.5 192.04,-1147.5 192.04,-1147.5 107.54,-1147.5"/>
<polygon fill="none" stroke="#666666" points="107.54,-1130.25 107.54,-1191.25 192.04,-1191.25 192.04,-1130.25 107.54,-1130.25"/>
</a>
</g>
</g>
<!-- Node5&#45;&gt;Node4 -->
<g id="edge4_Node000004_Node000005" class="edge">
<title>Node5&#45;&gt;Node4</title>
<g id="a_edge4_Node000004_Node000005"><a xlink:title=" ">
<path fill="none" stroke="#63b8ff" d="M149.79,-1119C149.79,-1104.92 149.79,-1089.62 149.79,-1077.35"/>
<polygon fill="none" stroke="#63b8ff" points="146.29,-1118.92 149.79,-1128.92 153.29,-1118.92 146.29,-1118.92"/>
</a>
</g>
</g>
<!-- Node6&#45;&gt;Node3 -->
<g id="edge5_Node000003_Node000006" class="edge">
<title>Node6&#45;&gt;Node3</title>
<g id="a_edge5_Node000003_Node000006"><a xlink:title=" ">
<path fill="none" stroke="#63b8ff" d="M260.5,-492.66C261.11,-482.35 261.81,-470.26 262.53,-457.98"/>
<polygon fill="none" stroke="#63b8ff" points="262.53,-458.07 258.88,-451.84 263.23,-446.09 266.87,-452.31 262.53,-458.07"/>
</a>
</g>
<text text-anchor="middle" x="290.57" y="-465" font-family="Helvetica,sans-Serif" font-size="10.00" fill="grey"> +parameters</text>
</g>
<!-- Node6&#45;&gt;Node7 -->
<g id="edge9_Node000007_Node000006" class="edge">
<title>Node6&#45;&gt;Node7</title>
<g id="a_edge9_Node000007_Node000006"><a xlink:title=" ">
<path fill="none" stroke="#63b8ff" d="M252.53,-553.28C251.49,-559.28 250.58,-565.57 250.04,-571.5 247.41,-600.27 246.2,-607.87 250.04,-636.5 250.27,-638.27 250.52,-640.05 250.79,-641.83"/>
<polygon fill="none" stroke="#63b8ff" points="250.79,-641.87 255.7,-647.15 252.71,-653.72 247.8,-648.43 250.79,-641.87"/>
</a>
</g>
<text text-anchor="middle" x="266.91" y="-600.12" font-family="Helvetica,sans-Serif" font-size="10.00" fill="grey"> &#45;values</text>
</g>
<!-- Node14 -->
<g id="Node000014" class="node">
<title>Node14</title>
<g id="a_Node000014"><a xlink:href="structrealization_1_1config_1_1_forcing.html" target="_top" xlink:title="Structure for holding forcing configuration information.">
<polygon fill="white" stroke="none" points="207.54,-437.62 126.04,-437.62 126.04,-330.88 207.54,-330.88 207.54,-437.62"/>
<text text-anchor="start" x="130.04" y="-424.12" font-family="Helvetica,sans-Serif" font-size="10.00">realization::config</text>
<text text-anchor="start" x="148.41" y="-412.88" font-family="Helvetica,sans-Serif" font-size="10.00">::Forcing</text>
<text text-anchor="start" x="165.29" y="-397.62" font-family="Helvetica,sans-Serif" font-size="10.00"> </text>
<text text-anchor="start" x="135.41" y="-382.38" font-family="Helvetica,sans-Serif" font-size="10.00">+</text>
<text text-anchor="start" x="150.79" y="-382.38" font-family="Helvetica,sans-Serif" font-size="10.00">Forcing()</text>
<text text-anchor="start" x="135.41" y="-367.12" font-family="Helvetica,sans-Serif" font-size="10.00">+</text>
<text text-anchor="start" x="150.79" y="-367.12" font-family="Helvetica,sans-Serif" font-size="10.00">Forcing()</text>
<text text-anchor="start" x="135.41" y="-351.88" font-family="Helvetica,sans-Serif" font-size="10.00">+</text>
<text text-anchor="start" x="150.79" y="-351.88" font-family="Helvetica,sans-Serif" font-size="10.00">has_key()</text>
<text text-anchor="start" x="135.41" y="-336.62" font-family="Helvetica,sans-Serif" font-size="10.00">+</text>
<text text-anchor="start" x="150.79" y="-336.62" font-family="Helvetica,sans-Serif" font-size="10.00">clone()</text>
<polygon fill="#666666" stroke="#666666" points="126.04,-409.12 126.04,-409.12 207.54,-409.12 207.54,-409.12 126.04,-409.12"/>
<polygon fill="#666666" stroke="#666666" points="126.04,-393.88 126.04,-393.88 207.54,-393.88 207.54,-393.88 126.04,-393.88"/>
<polygon fill="none" stroke="#666666" points="126.04,-330.88 126.04,-437.62 207.54,-437.62 207.54,-330.88 126.04,-330.88"/>
</a>
</g>
</g>
<!-- Node6&#45;&gt;Node14 -->
<g id="edge21_Node000014_Node000006" class="edge">
<title>Node6&#45;&gt;Node14</title>
<g id="a_edge21_Node000014_Node000006"><a xlink:title=" ">
<path fill="none" stroke="#63b8ff" d="M217.17,-492.52C211.15,-487.01 205.43,-480.94 200.79,-474.5 195.32,-466.92 190.62,-458.34 186.6,-449.59"/>
<polygon fill="none" stroke="#63b8ff" points="186.56,-449.49 180.54,-445.52 181.89,-438.44 187.91,-442.41 186.56,-449.49"/>
</a>
</g>
<text text-anchor="middle" x="229.29" y="-465" font-family="Helvetica,sans-Serif" font-size="10.00" fill="grey"> +parameters</text>
</g>
<!-- Node7&#45;&gt;Node6 -->
<g id="edge7_Node000006_Node000007" class="edge">
<title>Node7&#45;&gt;Node6</title>
<g id="a_edge7_Node000006_Node000007"><a xlink:title=" ">
<path fill="none" stroke="#63b8ff" d="M302.32,-654.72C300.15,-626.62 295.74,-597.86 287.79,-571.5 287.11,-569.27 286.31,-567.04 285.41,-564.83"/>
<polygon fill="none" stroke="#63b8ff" points="285.45,-564.91 279.23,-561.26 280.2,-554.12 286.42,-557.77 285.45,-564.91"/>
</a>
</g>
<text text-anchor="middle" x="324.39" y="-600.12" font-family="Helvetica,sans-Serif" font-size="10.00" fill="grey"> +elements</text>
</g>
<!-- Node8 -->
<g id="Node000008" class="node">
<title>Node8</title>
<g id="a_Node000008"><a xlink:title=" ">
<polygon fill="white" stroke="none" points="319.29,-1083 224.29,-1083 224.29,-1022 319.29,-1022 319.29,-1083"/>
<text text-anchor="start" x="228.29" y="-1069.5" font-family="Helvetica,sans-Serif" font-size="10.00">std::vector&lt; geojson</text>
<text text-anchor="start" x="233.91" y="-1058.25" font-family="Helvetica,sans-Serif" font-size="10.00">::JSONProperty &gt;</text>
<text text-anchor="start" x="270.29" y="-1043" font-family="Helvetica,sans-Serif" font-size="10.00"> </text>
<text text-anchor="start" x="270.29" y="-1027.75" font-family="Helvetica,sans-Serif" font-size="10.00"> </text>
<polygon fill="#666666" stroke="#666666" points="224.29,-1054.5 224.29,-1054.5 319.29,-1054.5 319.29,-1054.5 224.29,-1054.5"/>
<polygon fill="#666666" stroke="#666666" points="224.29,-1039.25 224.29,-1039.25 319.29,-1039.25 319.29,-1039.25 224.29,-1039.25"/>
<polygon fill="none" stroke="#666666" points="224.29,-1022 224.29,-1083 319.29,-1083 319.29,-1022 224.29,-1022"/>
</a>
</g>
</g>
<!-- Node7&#45;&gt;Node8 -->
<g id="edge11_Node000008_Node000007" class="edge">
<title>Node7&#45;&gt;Node8</title>
<g id="a_edge11_Node000008_Node000007"><a xlink:title=" ">
<path fill="none" stroke="#63b8ff" d="M269.64,-963.27C268.73,-977.01 268.37,-990.74 268.79,-1004 268.84,-1005.74 268.91,-1007.52 268.98,-1009.31"/>
<polygon fill="none" stroke="#63b8ff" points="268.98,-1009.24 273.28,-1015.02 269.59,-1021.22 265.29,-1015.43 268.98,-1009.24"/>
</a>
</g>
<text text-anchor="middle" x="292.79" y="-988.88" font-family="Helvetica,sans-Serif" font-size="10.00" fill="grey"> +elements</text>
</g>
<!-- Node8&#45;&gt;Node7 -->
<g id="edge10_Node000007_Node000008" class="edge">
<title>Node8&#45;&gt;Node7</title>
<g id="a_edge10_Node000007_Node000008"><a xlink:title=" ">
<path fill="none" stroke="#63b8ff" d="M309.1,-1022.12C313.85,-1016.63 318.02,-1010.55 320.79,-1004 324.58,-995.04 327.22,-985.65 328.93,-976.04"/>
<polygon fill="none" stroke="#63b8ff" points="328.92,-976.08 325.76,-969.6 330.52,-964.19 333.68,-970.67 328.92,-976.08"/>
</a>
</g>
<text text-anchor="middle" x="350.48" y="-988.88" font-family="Helvetica,sans-Serif" font-size="10.00" fill="grey"> &#45;value_list</text>
</g>
<!-- Node9 -->
<g id="Node000009" class="node">
<title>Node9</title>
<g id="a_Node000009"><a xlink:title=" ">
<polygon fill="white" stroke="none" points="420.54,-1185.62 345.04,-1185.62 345.04,-1135.88 420.54,-1135.88 420.54,-1185.62"/>
<text text-anchor="start" x="349.04" y="-1172.12" font-family="Helvetica,sans-Serif" font-size="10.00">std::vector&lt; T &gt;</text>
<text text-anchor="start" x="381.29" y="-1156.88" font-family="Helvetica,sans-Serif" font-size="10.00"> </text>
<text text-anchor="start" x="381.29" y="-1141.62" font-family="Helvetica,sans-Serif" font-size="10.00"> </text>
<polygon fill="#666666" stroke="#666666" points="345.04,-1168.38 345.04,-1168.38 420.54,-1168.38 420.54,-1168.38 345.04,-1168.38"/>
<polygon fill="#666666" stroke="#666666" points="345.04,-1153.12 345.04,-1153.12 420.54,-1153.12 420.54,-1153.12 345.04,-1153.12"/>
<polygon fill="none" stroke="#666666" points="345.04,-1135.88 345.04,-1185.62 420.54,-1185.62 420.54,-1135.88 345.04,-1135.88"/>
</a>
</g>
</g>
<!-- Node9&#45;&gt;Node8 -->
<g id="edge12_Node000008_Node000009" class="edge">
<title>Node9&#45;&gt;Node8</title>
<g id="a_edge12_Node000008_Node000009"><a xlink:title=" ">
<path fill="none" stroke="orange" d="M334.39,-1151.95C311,-1145.48 284.98,-1133.69 270.79,-1112.25 265.16,-1103.74 264.08,-1092.92 264.85,-1082.88"/>
<polygon fill="orange" stroke="orange" points="333.22,-1155.27 343.77,-1154.27 334.91,-1148.47 333.22,-1155.27"/>
</a>
</g>
<text text-anchor="middle" x="330.79" y="-1102.75" font-family="Helvetica,sans-Serif" font-size="10.00" fill="grey"> &lt; geojson::JSONProperty &gt;</text>
</g>
<!-- Node9&#45;&gt;Node13 -->
<g id="edge19_Node000013_Node000009" class="edge">
<title>Node9&#45;&gt;Node13</title>
<g id="a_edge19_Node000013_Node000009"><a xlink:title=" ">
<path fill="none" stroke="orange" d="M393.72,-1124.95C399.24,-1104.38 404.79,-1077.71 404.79,-1053.5 404.79,-1053.5 404.79,-1053.5 404.79,-383.25 404.79,-334.71 378.12,-283.89 358.44,-252.98"/>
<polygon fill="orange" stroke="orange" points="390.37,-1123.96 391.02,-1134.53 397.1,-1125.86 390.37,-1123.96"/>
</a>
</g>
<text text-anchor="start" x="404.79" y="-605.75" font-family="Helvetica,sans-Serif" font-size="10.00" fill="grey"> &lt; realization::config</text>
<text text-anchor="middle" x="446.79" y="-594.5" font-family="Helvetica,sans-Serif" font-size="10.00" fill="grey">::Formulation &gt;</text>
</g>
<!-- Node10 -->
<g id="Node000010" class="node">
<title>Node10</title>
<g id="a_Node000010"><a xlink:title=" ">
<polygon fill="white" stroke="none" points="425.79,-1288.25 411.79,-1288.25 411.79,-1238.5 425.79,-1238.5 425.79,-1288.25"/>
<text text-anchor="start" x="415.79" y="-1274.75" font-family="Helvetica,sans-Serif" font-size="10.00">T</text>
<text text-anchor="start" x="417.29" y="-1259.5" font-family="Helvetica,sans-Serif" font-size="10.00"> </text>
<text text-anchor="start" x="417.29" y="-1244.25" font-family="Helvetica,sans-Serif" font-size="10.00"> </text>
<polygon fill="#666666" stroke="#666666" points="411.79,-1271 411.79,-1271 425.79,-1271 425.79,-1271 411.79,-1271"/>
<polygon fill="#666666" stroke="#666666" points="411.79,-1255.75 411.79,-1255.75 425.79,-1255.75 425.79,-1255.75 411.79,-1255.75"/>
<polygon fill="none" stroke="#666666" points="411.79,-1238.5 411.79,-1288.25 425.79,-1288.25 425.79,-1238.5 411.79,-1238.5"/>
</a>
</g>
</g>
<!-- Node10&#45;&gt;Node9 -->
<g id="edge13_Node000009_Node000010" class="edge">
<title>Node10&#45;&gt;Node9</title>
<g id="a_edge13_Node000009_Node000010"><a xlink:title=" ">
<path fill="none" stroke="#63b8ff" d="M411.79,-1256.74C403.32,-1249.43 389.48,-1235.77 383.79,-1220.5 381.23,-1213.63 380.03,-1205.99 379.62,-1198.54"/>
<polygon fill="none" stroke="#63b8ff" points="379.62,-1198.48 375.63,-1192.48 379.63,-1186.48 383.63,-1192.49 379.62,-1198.48"/>
</a>
</g>
<text text-anchor="middle" x="407.79" y="-1211" font-family="Helvetica,sans-Serif" font-size="10.00" fill="grey"> +elements</text>
</g>
<!-- Node11 -->
<g id="Node000011" class="node">
<title>Node11</title>
<g id="a_Node000011"><a xlink:title=" ">
<polygon fill="white" stroke="none" points="543.41,-1185.62 464.16,-1185.62 464.16,-1135.88 543.41,-1135.88 543.41,-1185.62"/>
<text text-anchor="start" x="468.16" y="-1172.12" font-family="Helvetica,sans-Serif" font-size="10.00">std::map&lt; K, T &gt;</text>
<text text-anchor="start" x="502.29" y="-1156.88" font-family="Helvetica,sans-Serif" font-size="10.00"> </text>
<text text-anchor="start" x="502.29" y="-1141.62" font-family="Helvetica,sans-Serif" font-size="10.00"> </text>
<polygon fill="#666666" stroke="#666666" points="464.16,-1168.38 464.16,-1168.38 543.41,-1168.38 543.41,-1168.38 464.16,-1168.38"/>
<polygon fill="#666666" stroke="#666666" points="464.16,-1153.12 464.16,-1153.12 543.41,-1153.12 543.41,-1153.12 464.16,-1153.12"/>
<polygon fill="none" stroke="#666666" points="464.16,-1135.88 464.16,-1185.62 543.41,-1185.62 543.41,-1135.88 464.16,-1135.88"/>
</a>
</g>
</g>
<!-- Node10&#45;&gt;Node11 -->
<g id="edge16_Node000011_Node000010" class="edge">
<title>Node10&#45;&gt;Node11</title>
<g id="a_edge16_Node000011_Node000010"><a xlink:title=" ">
<path fill="none" stroke="#63b8ff" d="M425.59,-1254.05C434.2,-1243.55 449.49,-1224.98 462.79,-1209.25 466.71,-1204.61 470.88,-1199.73 474.99,-1194.94"/>
<polygon fill="none" stroke="#63b8ff" points="474.83,-1195.12 475.72,-1187.96 482.67,-1186.03 481.78,-1193.19 474.83,-1195.12"/>
</a>
</g>
<text text-anchor="middle" x="486.79" y="-1211" font-family="Helvetica,sans-Serif" font-size="10.00" fill="grey"> +elements</text>
</g>
<!-- Node11&#45;&gt;Node6 -->
<g id="edge14_Node000006_Node000011" class="edge">
<title>Node11&#45;&gt;Node6</title>
<g id="a_edge14_Node000006_Node000011"><a xlink:title=" ">
<path fill="none" stroke="orange" d="M516.06,-1125.11C548.86,-1025.67 627.12,-735.91 489.79,-571.5 466.95,-544.16 368.44,-532.04 307.68,-527.08"/>
<polygon fill="orange" stroke="orange" points="512.74,-1123.98 512.87,-1134.58 519.38,-1126.22 512.74,-1123.98"/>
</a>
</g>
<text text-anchor="middle" x="616.87" y="-988.88" font-family="Helvetica,sans-Serif" font-size="10.00" fill="grey"> &lt; std::string, JSONProperty &gt;</text>
</g>
<!-- Node12 -->
<g id="Node000012" class="node">
<title>Node12</title>
<g id="a_Node000012"><a xlink:title=" ">
<polygon fill="white" stroke="none" points="532.16,-1288.25 517.41,-1288.25 517.41,-1238.5 532.16,-1238.5 532.16,-1288.25"/>
<text text-anchor="start" x="521.41" y="-1274.75" font-family="Helvetica,sans-Serif" font-size="10.00">K</text>
<text text-anchor="start" x="523.29" y="-1259.5" font-family="Helvetica,sans-Serif" font-size="10.00"> </text>
<text text-anchor="start" x="523.29" y="-1244.25" font-family="Helvetica,sans-Serif" font-size="10.00"> </text>
<polygon fill="#666666" stroke="#666666" points="517.41,-1271 517.41,-1271 532.16,-1271 532.16,-1271 517.41,-1271"/>
<polygon fill="#666666" stroke="#666666" points="517.41,-1255.75 517.41,-1255.75 532.16,-1255.75 532.16,-1255.75 517.41,-1255.75"/>
<polygon fill="none" stroke="#666666" points="517.41,-1238.5 517.41,-1288.25 532.16,-1288.25 532.16,-1238.5 517.41,-1238.5"/>
</a>
</g>
</g>
<!-- Node12&#45;&gt;Node11 -->
<g id="edge15_Node000011_Node000012" class="edge">
<title>Node12&#45;&gt;Node11</title>
<g id="a_edge15_Node000011_Node000012"><a xlink:title=" ">
<path fill="none" stroke="#63b8ff" d="M519.81,-1238.53C517.27,-1226.37 514.14,-1211.34 511.31,-1197.8"/>
<polygon fill="none" stroke="#63b8ff" points="511.36,-1198.05 506.22,-1193 508.91,-1186.31 514.05,-1191.36 511.36,-1198.05"/>
</a>
</g>
<text text-anchor="middle" x="529.79" y="-1211" font-family="Helvetica,sans-Serif" font-size="10.00" fill="grey"> +keys</text>
</g>
<!-- Node13&#45;&gt;Node3 -->
<g id="edge17_Node000003_Node000013" class="edge">
<title>Node13&#45;&gt;Node3</title>
<g id="a_edge17_Node000003_Node000013"><a xlink:title=" ">
<path fill="none" stroke="#63b8ff" d="M306.55,-252.83C295.86,-264.58 284.93,-278.92 278.29,-294 275.96,-299.29 274.06,-304.91 272.52,-310.67"/>
<polygon fill="none" stroke="#63b8ff" points="272.49,-310.79 275.09,-317.52 269.88,-322.51 267.28,-315.78 272.49,-310.79"/>
</a>
</g>
<text text-anchor="middle" x="297.04" y="-295.75" font-family="Helvetica,sans-Serif" font-size="10.00" fill="grey"> +nested</text>
</g>
<!-- Node14&#45;&gt;Node2 -->
<g id="edge20_Node000002_Node000014" class="edge">
<title>Node14&#45;&gt;Node2</title>
<g id="a_edge20_Node000002_Node000014"><a xlink:title=" ">
<path fill="none" stroke="#63b8ff" d="M145.04,-331.05C142.28,-322.56 139.87,-313.75 138.29,-305.25 137.27,-299.77 136.52,-294.05 136,-288.29"/>
<polygon fill="none" stroke="#63b8ff" points="136.02,-288.58 131.63,-282.85 135.23,-276.6 139.61,-282.33 136.02,-288.58"/>
</a>
</g>
<text text-anchor="middle" x="157.04" y="-295.75" font-family="Helvetica,sans-Serif" font-size="10.00" fill="grey"> +forcing</text>
</g>
<!-- Node15&#45;&gt;Node1 -->
<g id="edge23_Node000001_Node000015" class="edge">
<title>Node15&#45;&gt;Node1</title>
<g id="a_edge23_Node000001_Node000015"><a xlink:title=" ">
<path fill="none" stroke="#63b8ff" d="M68.61,-571.63C64.63,-544.71 59.79,-504.85 59.79,-469.88 59.79,-469.88 59.79,-469.88 59.79,-221.62 59.79,-193.28 59.79,-162.11 59.79,-134.9"/>
<polygon fill="none" stroke="#63b8ff" points="59.79,-134.78 55.79,-128.78 59.79,-122.78 63.79,-128.78 59.79,-134.78"/>
</a>
</g>
<text text-anchor="middle" x="83.79" y="-380.38" font-family="Helvetica,sans-Serif" font-size="10.00" fill="grey"> &#45;descriptor</text>
</g>
</g>
</svg>
