<?xml version="1.0" encoding="UTF-8" standalone="no"?>
<!DOCTYPE svg PUBLIC "-//W3C//DTD SVG 1.1//EN"
 "http://www.w3.org/Graphics/SVG/1.1/DTD/svg11.dtd">
<!-- Generated by graphviz version 12.2.0 (20241103.1931)
 -->
<!-- Title: forcing_params Pages: 1 -->
<svg width="116pt" height="324pt"
 viewBox="0.00 0.00 115.62 324.25" xmlns="http://www.w3.org/2000/svg" xmlns:xlink="http://www.w3.org/1999/xlink">

<svg id="main" version="1.1" xmlns="http://www.w3.org/2000/svg" xmlns:xlink="http://www.w3.org/1999/xlink" xml:space="preserve">

<style type="text/css"><![CDATA[
.node, .edge {opacity: 0.7;}
.node.selected, .edge.selected {opacity: 1;}
.edge:hover path { stroke: red; }
.edge:hover polygon { stroke: red; fill: red; }
]]></style>
<script type="application/ecmascript" xlink:href="svg.min.js"/>
<svg id="graph" class="graph">
<g id="graph0" class="graph" transform="scale(1 1) rotate(0) translate(4 320.25)">
<title>forcing_params</title>
<!-- Node1 -->
<g id="Node000001" class="node">
<title>Node1</title>
<g id="a_Node000001"><a xlink:title="forcing_params providing configuration information for forcing time period and source.">
<polygon fill="#999999" stroke="none" points="95.25,-65 0,-65 0,0 95.25,0 95.25,-65"/>
<text text-anchor="start" x="14.25" y="-51.5" font-family="Helvetica,sans-Serif" font-size="10.00">forcing_params</text>
<text text-anchor="start" x="4" y="-36.25" font-family="Helvetica,sans-Serif" font-size="10.00">+</text>
<text text-anchor="start" x="14" y="-36.25" font-family="Helvetica,sans-Serif" font-size="10.00">simulation_start_t</text>
<text text-anchor="start" x="4" y="-21" font-family="Helvetica,sans-Serif" font-size="10.00">+</text>
<text text-anchor="start" x="14" y="-21" font-family="Helvetica,sans-Serif" font-size="10.00">simulation_end_t</text>
<text text-anchor="start" x="4" y="-5.75" font-family="Helvetica,sans-Serif" font-size="10.00">+</text>
<text text-anchor="start" x="14" y="-5.75" font-family="Helvetica,sans-Serif" font-size="10.00">forcing_params()</text>
<polygon fill="#666666" stroke="#666666" points="0,-47.75 0,-47.75 95.25,-47.75 95.25,-47.75 0,-47.75"/>
<polygon fill="#666666" stroke="#666666" points="0,-17.25 0,-17.25 12,-17.25 12,-17.25 0,-17.25"/>
<polygon fill="#666666" stroke="#666666" points="12,-17.25 12,-17.25 95.25,-17.25 95.25,-17.25 12,-17.25"/>
<polygon fill="none" stroke="#666666" points="0,0 0,-65 95.25,-65 95.25,0 0,0"/>
</a>
</g>
</g>
<!-- Node2 -->
<g id="Node000002" class="node">
<title>Node2</title>
<g id="a_Node000002"><a xlink:title=" ">
<polygon fill="white" stroke="none" points="72.62,-218.25 22.62,-218.25 22.62,-168.5 72.62,-168.5 72.62,-218.25"/>
<text text-anchor="start" x="26.62" y="-204.75" font-family="Helvetica,sans-Serif" font-size="10.00">std::string</text>
<text text-anchor="start" x="46.12" y="-189.5" font-family="Helvetica,sans-Serif" font-size="10.00"> </text>
<text text-anchor="start" x="46.12" y="-174.25" font-family="Helvetica,sans-Serif" font-size="10.00"> </text>
<polygon fill="#666666" stroke="#666666" points="22.62,-201 22.62,-201 72.62,-201 72.62,-201 22.62,-201"/>
<polygon fill="#666666" stroke="#666666" points="22.62,-185.75 22.62,-185.75 72.62,-185.75 72.62,-185.75 22.62,-185.75"/>
<polygon fill="none" stroke="#666666" points="22.62,-168.5 22.62,-218.25 72.62,-218.25 72.62,-168.5 22.62,-168.5"/>
</a>
</g>
</g>
<!-- Node2&#45;&gt;Node1 -->
<g id="edge1_Node000001_Node000002" class="edge">
<title>Node2&#45;&gt;Node1</title>
<g id="a_edge1_Node000001_Node000002"><a xlink:title=" ">
<path fill="none" stroke="#63b8ff" d="M47.62,-168.59C47.62,-144.64 47.62,-107.14 47.62,-77.72"/>
<polygon fill="none" stroke="#63b8ff" points="47.63,-77.74 43.63,-71.74 47.63,-65.74 51.63,-71.74 47.63,-77.74"/>
</a>
</g>
<text text-anchor="middle" x="77.62" y="-141" font-family="Helvetica,sans-Serif" font-size="10.00" fill="grey"> +date_format</text>
<text text-anchor="middle" x="77.62" y="-129.75" font-family="Helvetica,sans-Serif" font-size="10.00" fill="grey">+end_time</text>
<text text-anchor="middle" x="77.62" y="-118.5" font-family="Helvetica,sans-Serif" font-size="10.00" fill="grey">+init_config</text>
<text text-anchor="middle" x="77.62" y="-107.25" font-family="Helvetica,sans-Serif" font-size="10.00" fill="grey">+path</text>
<text text-anchor="middle" x="77.62" y="-96" font-family="Helvetica,sans-Serif" font-size="10.00" fill="grey">+provider</text>
<text text-anchor="middle" x="77.62" y="-84.75" font-family="Helvetica,sans-Serif" font-size="10.00" fill="grey">+start_time</text>
</g>
<!-- Node3 -->
<g id="Node000003" class="node">
<title>Node3</title>
<g id="a_Node000003"><a xlink:title=" ">
<polygon fill="white" stroke="none" points="89.88,-316.25 5.38,-316.25 5.38,-255.25 89.88,-255.25 89.88,-316.25"/>
<text text-anchor="start" x="9.38" y="-302.75" font-family="Helvetica,sans-Serif" font-size="10.00">std::basic_string&lt;</text>
<text text-anchor="start" x="32.25" y="-291.5" font-family="Helvetica,sans-Serif" font-size="10.00"> Char &gt;</text>
<text text-anchor="start" x="46.12" y="-276.25" font-family="Helvetica,sans-Serif" font-size="10.00"> </text>
<text text-anchor="start" x="46.12" y="-261" font-family="Helvetica,sans-Serif" font-size="10.00"> </text>
<polygon fill="#666666" stroke="#666666" points="5.38,-287.75 5.38,-287.75 89.88,-287.75 89.88,-287.75 5.38,-287.75"/>
<polygon fill="#666666" stroke="#666666" points="5.38,-272.5 5.38,-272.5 89.88,-272.5 89.88,-272.5 5.38,-272.5"/>
<polygon fill="none" stroke="#666666" points="5.38,-255.25 5.38,-316.25 89.88,-316.25 89.88,-255.25 5.38,-255.25"/>
</a>
</g>
</g>
<!-- Node3&#45;&gt;Node2 -->
<g id="edge2_Node000002_Node000003" class="edge">
<title>Node3&#45;&gt;Node2</title>
<g id="a_edge2_Node000002_Node000003"><a xlink:title=" ">
<path fill="none" stroke="#63b8ff" d="M47.62,-244.15C47.62,-235.19 47.62,-226 47.62,-217.98"/>
<polygon fill="none" stroke="#63b8ff" points="44.13,-244.14 47.63,-254.14 51.13,-244.14 44.13,-244.14"/>
</a>
</g>
</g>
</g>
</svg>
</svg>

<style type='text/css'>
<![CDATA[
[data-mouse-over-selected='false'] { opacity: 0.7; }
[data-mouse-over-selected='true']  { opacity: 1.0; }
]]>
</style>
<script type="application/ecmascript"><![CDATA[
document.addEventListener('DOMContentLoaded', (event) => {
  highlightEdges();
  highlightAdjacentNodes();
});
]]></script>
</svg>
